<?xml version="1.0" encoding="UTF-8" standalone="no"?>
<!-- Created with Inkscape (http://www.inkscape.org/) -->

<svg
   xmlns:dc="http://purl.org/dc/elements/1.1/"
   xmlns:cc="http://creativecommons.org/ns#"
   xmlns:rdf="http://www.w3.org/1999/02/22-rdf-syntax-ns#"
   xmlns:svg="http://www.w3.org/2000/svg"
   xmlns="http://www.w3.org/2000/svg"
   xmlns:sodipodi="http://sodipodi.sourceforge.net/DTD/sodipodi-0.dtd"
   xmlns:inkscape="http://www.inkscape.org/namespaces/inkscape"
   width="210mm"
   height="297mm"
   viewBox="0 0 744.09448819 1052.3622047"
   id="svg4398"
   version="1.1"
   inkscape:version="0.91 r13725"
   sodipodi:docname="DGLEngine_Logo_01.svg">
  <defs
     id="defs4400">
    <inkscape:path-effect
       is_visible="true"
       id="path-effect4302"
       effect="spiro" />
    <inkscape:path-effect
       fuse_tolerance="0"
       vertical_pattern="false"
       prop_units="false"
       tang_offset="0"
       normal_offset="0"
       spacing="0"
       scale_y_rel="false"
       prop_scale="1"
       copytype="single_stretched"
       pattern="m 190.20774,179.42914 1,0"
       is_visible="true"
       id="path-effect4304"
       effect="skeletal" />
    <inkscape:path-effect
       effect="spiro"
       id="path-effect4326"
       is_visible="true" />
    <inkscape:path-effect
       effect="skeletal"
       id="path-effect4328"
       is_visible="true"
       pattern="m 115.39273,250.93194 1,0"
       copytype="single_stretched"
       prop_scale="1"
       scale_y_rel="false"
       spacing="0"
       normal_offset="0"
       tang_offset="0"
       prop_units="false"
       vertical_pattern="false"
       fuse_tolerance="0" />
    <inkscape:path-effect
       is_visible="true"
       id="path-effect4182"
       effect="spiro" />
    <inkscape:path-effect
       fuse_tolerance="0"
       vertical_pattern="false"
       prop_units="false"
       tang_offset="0"
       normal_offset="0"
       spacing="0"
       scale_y_rel="false"
       prop_scale="1"
       copytype="single_stretched"
       pattern="m -17.550308,200.21596 1,0"
       is_visible="true"
       id="path-effect4184"
       effect="skeletal" />
    <inkscape:path-effect
       effect="spiro"
       id="path-effect4320"
       is_visible="true" />
    <inkscape:path-effect
       effect="skeletal"
       id="path-effect4322"
       is_visible="true"
       pattern="m 75.885864,142.75339 1,0"
       copytype="single_stretched"
       prop_scale="1"
       scale_y_rel="false"
       spacing="0"
       normal_offset="0"
       tang_offset="0"
       prop_units="false"
       vertical_pattern="false"
       fuse_tolerance="0" />
    <inkscape:path-effect
       is_visible="true"
       id="path-effect4366"
       effect="spiro" />
    <inkscape:path-effect
       fuse_tolerance="0"
       vertical_pattern="false"
       prop_units="false"
       tang_offset="0"
       normal_offset="0"
       spacing="0"
       scale_y_rel="false"
       prop_scale="1"
       copytype="single_stretched"
       pattern="m 190.20774,179.42914 1,0"
       is_visible="true"
       id="path-effect4368"
       effect="skeletal" />
    <inkscape:path-effect
       effect="spiro"
       id="path-effect4370"
       is_visible="true" />
    <inkscape:path-effect
       effect="skeletal"
       id="path-effect4372"
       is_visible="true"
       pattern="m 115.39273,250.93194 1,0"
       copytype="single_stretched"
       prop_scale="1"
       scale_y_rel="false"
       spacing="0"
       normal_offset="0"
       tang_offset="0"
       prop_units="false"
       vertical_pattern="false"
       fuse_tolerance="0" />
    <inkscape:path-effect
       is_visible="true"
       id="path-effect4374"
       effect="spiro" />
    <inkscape:path-effect
       fuse_tolerance="0"
       vertical_pattern="false"
       prop_units="false"
       tang_offset="0"
       normal_offset="0"
       spacing="0"
       scale_y_rel="false"
       prop_scale="1"
       copytype="single_stretched"
       pattern="m -17.550308,200.21596 1,0"
       is_visible="true"
       id="path-effect4376"
       effect="skeletal" />
    <inkscape:path-effect
       effect="spiro"
       id="path-effect4378"
       is_visible="true" />
    <inkscape:path-effect
       effect="skeletal"
       id="path-effect4380"
       is_visible="true"
       pattern="m 75.885864,142.75339 1,0"
       copytype="single_stretched"
       prop_scale="1"
       scale_y_rel="false"
       spacing="0"
       normal_offset="0"
       tang_offset="0"
       prop_units="false"
       vertical_pattern="false"
       fuse_tolerance="0" />
  </defs>
  <sodipodi:namedview
     id="base"
     pagecolor="#ffffff"
     bordercolor="#666666"
     borderopacity="1.0"
     inkscape:pageopacity="0.0"
     inkscape:pageshadow="2"
     inkscape:zoom="0.35"
     inkscape:cx="-67.857143"
     inkscape:cy="520"
     inkscape:document-units="px"
     inkscape:current-layer="layer1"
     showgrid="false"
     inkscape:window-width="1920"
     inkscape:window-height="1017"
     inkscape:window-x="-8"
     inkscape:window-y="-8"
     inkscape:window-maximized="1" />
  <metadata
     id="metadata4403">
    <rdf:RDF>
      <cc:Work
         rdf:about="">
        <dc:format>image/svg+xml</dc:format>
        <dc:type
           rdf:resource="http://purl.org/dc/dcmitype/StillImage" />
        <dc:title></dc:title>
      </cc:Work>
    </rdf:RDF>
  </metadata>
  <g
     inkscape:label="Calque 1"
     inkscape:groupmode="layer"
     id="layer1">
    <flowRoot
       transform="matrix(0.93611092,0,0,0.95473876,216.65911,355.31159)"
       style="font-style:normal;font-weight:normal;font-size:40px;line-height:125%;font-family:sans-serif;letter-spacing:0px;word-spacing:0px;fill:#000000;fill-opacity:1;stroke:none;stroke-width:1px;stroke-linecap:butt;stroke-linejoin:miter;stroke-opacity:1"
       id="flowRoot4292"
       xml:space="preserve"><flowRegion
         id="flowRegion4294"><rect
           y="125.7067"
           x="50.018337"
           height="129.17136"
           width="306.25262"
           id="rect4296" /></flowRegion><flowPara
         style="font-style:normal;font-variant:normal;font-weight:900;font-stretch:normal;font-family:Arial;-inkscape-font-specification:'Arial Heavy'"
         id="flowPara4298">GLScene</flowPara></flowRoot>    <g
       transform="translate(18.682283,-170.63181)"
       id="g4334">
      <path
         style="fill:#000000;fill-opacity:1;fill-rule:evenodd;stroke:#000000;stroke-width:0.61384392px;stroke-linecap:butt;stroke-linejoin:miter;stroke-opacity:1"
         d="m 444.88519,671.56693 c 5.36467,-16.46463 2.5153,-35.43616 -7.4493,-49.59845 -6.16501,-8.76208 -14.82019,-15.64835 -24.46014,-20.32306 0,0 -1e-5,0 -2e-5,0 -9.64054,-4.67501 -20.2484,-7.19152 -30.92797,-8.05324 -10e-6,0 -2e-5,0 -2e-5,-10e-6 -21.35925,-1.72345 -42.67735,3.05016 -63.40713,8.47823 -10e-6,1e-5 -10e-6,1e-5 -2e-5,1e-5 -76.80611,20.1116 -151.12434,49.71015 -220.727098,87.90846 1.3e-5,0 2.5e-5,-10e-6 3.8e-5,-10e-6 71.7303,-35.55687 149.28808,-59.33244 228.62226,-70.08484 10e-6,0 3e-5,0 4e-5,0 14.75497,-1.99979 29.66181,-3.5551 44.51815,-2.55633 10e-6,1e-5 2e-5,1e-5 4e-5,1e-5 14.85523,0.9987 29.75802,4.66403 42.43877,12.46621 15.17885,9.33921 26.63994,24.58651 31.3924,41.76302 z"
         id="path4180"
         inkscape:path-effect="#path-effect4182;#path-effect4184"
         inkscape:original-d="m 444.88519,671.56693 c 0,0 19.7146,-23.40284 -7.4493,-49.59845 -23.6594,-22.81621 -79.3918,-27.55764 -118.7953,-19.89807 -28.7129,5.58147 -220.727098,87.90846 -220.727098,87.90846 0,0 194.989698,-58.89468 228.622298,-70.08485 27.2524,-9.06736 67.8074,-6.03058 86.957,9.90989 24.3353,20.25699 31.3924,41.76302 31.3924,41.76302 z"
         inkscape:connector-curvature="0"
         sodipodi:nodetypes="csscssc" />
      <path
         sodipodi:nodetypes="csscssc"
         inkscape:connector-curvature="0"
         inkscape:original-d="m 444.37209,661.59339 c 0,0 16.53416,-19.42294 -16.37342,-42.97587 -28.6622,-20.51448 -87.68822,-26.648 -127.51239,-21.50389 -29.01956,3.74847 -215.286508,67.56001 -215.286508,67.56001 0,0 207.645588,-49.77835 240.831148,-58.17457 26.89019,-6.80343 63.04692,0.0675 85.80792,14.49627 28.92452,18.33596 32.53325,40.59805 32.53325,40.59805 z"
         inkscape:path-effect="#path-effect4320;#path-effect4322"
         id="path4318"
         d="m 444.37209,661.59339 c -0.26904,-15.63419 -6.17132,-31.12609 -16.37342,-42.97587 -7.39164,-8.58542 -16.9105,-15.23306 -27.27035,-19.81773 0,0 -10e-6,-10e-6 -10e-6,-10e-6 -10.36023,-4.58484 -21.55303,-7.14614 -32.83512,-8.1804 0,0 -1e-5,0 -2e-5,0 -22.56422,-2.06853 -45.22083,1.88949 -67.40685,6.49424 -10e-6,10e-6 -3e-5,10e-6 -4e-5,10e-6 -73.76463,15.30999 -146.00045,37.97863 -215.286508,67.56001 1.3e-5,0 2.6e-5,-10e-6 3.9e-5,-10e-6 76.004239,-33.39356 157.964079,-53.19157 240.831109,-58.17456 1e-5,0 3e-5,0 4e-5,0 14.72297,-0.88533 29.54767,-1.3044 44.17914,0.55834 2e-5,0 3e-5,0 4e-5,0 14.63078,1.86265 29.14001,6.0918 41.6287,13.93793 14.95723,9.39701 26.62134,23.95258 32.53325,40.59805 z"
         style="fill:#000000;fill-opacity:1;fill-rule:evenodd;stroke:#000000;stroke-width:0.57999653px;stroke-linecap:butt;stroke-linejoin:miter;stroke-opacity:1" />
    </g>
    <g
       id="g4330"
       transform="translate(24.682283,-174.63181)">
      <path
         style="fill:#000000;fill-opacity:1;fill-rule:evenodd;stroke:#000000;stroke-width:0.56915557px;stroke-linecap:butt;stroke-linejoin:miter;stroke-opacity:1"
         d="m 237.31991,685.87697 c 3.00035,15.21304 11.67405,29.25478 23.93474,38.74763 8.6336,6.68457 18.91128,11.11806 29.58349,13.42595 10e-6,0 10e-6,0 2e-5,0 10.67261,2.30798 21.73922,2.52963 32.58661,1.27842 10e-6,0 10e-6,0 2e-5,0 21.69483,-2.50243 42.27409,-10.76456 62.24763,-19.59548 2e-5,-10e-6 3e-5,-2e-5 4e-5,-2e-5 66.92815,-29.59103 130.60225,-66.53676 189.50602,-109.95741 -1e-5,10e-6 -2e-5,10e-6 -3e-5,2e-5 -64.42388,48.24856 -137.89406,84.3861 -215.43557,105.96559 -1e-5,0 -3e-5,10e-6 -4e-5,10e-6 -13.69145,3.81027 -27.58098,7.18366 -41.74697,8.32335 -1e-5,0 -2e-5,0 -3e-5,0 -14.16527,1.13963 -28.69354,-0.0239 -41.98347,-5.05688 -16.19556,-6.13341 -30.13907,-18.07282 -38.69246,-33.13118 z"
         id="path4300"
         inkscape:path-effect="#path-effect4302;#path-effect4304"
         inkscape:original-d="m 237.31991,685.87697 c 0,0 -11.73717,22.38216 23.93474,38.74763 31.06993,14.25427 87.90729,8.24915 124.41781,-4.89113 26.60491,-9.57522 189.50602,-109.95741 189.50602,-109.95741 0,0 -185.82466,90.9919 -215.4356,105.96561 -23.99368,12.13315 -59.42599,12.7628 -83.73051,3.26648 -30.88597,-12.06779 -38.69246,-33.13118 -38.69246,-33.13118 z"
         inkscape:connector-curvature="0"
         sodipodi:nodetypes="csscssc" />
      <path
         sodipodi:nodetypes="csscssc"
         inkscape:connector-curvature="0"
         inkscape:original-d="m 231.97153,674.83813 c 0,0 -17.97582,24.76345 11.00621,48.93222 25.24298,21.05085 81.1722,21.76135 119.92084,11.28052 28.2357,-7.63729 213.8139,-103.5952 213.8139,-103.5952 0,0 -190.23554,72.80114 -222.97373,86.38727 -26.52766,11.0088 -67.19606,10.90415 -87.44521,-3.61405 -25.73259,-18.44956 -34.32201,-39.39076 -34.32201,-39.39076 z"
         inkscape:path-effect="#path-effect4326;#path-effect4328"
         id="path4324"
         d="m 231.97153,674.83813 c -4.16353,16.80859 0.0464,35.52529 11.00621,48.93222 6.78075,8.29475 15.90995,14.53901 25.86187,18.50646 0,0 1e-5,0 2e-5,0 9.95254,3.9677 20.71424,5.71278 31.42815,5.80221 10e-6,0 10e-6,0 2e-5,0 21.42793,0.17886 42.34634,-6.11948 62.63078,-13.02815 75.15604,-25.59737 147.1466,-60.4776 213.8139,-103.5952 -10e-6,0 -2e-5,10e-6 -4e-5,10e-6 -68.97976,40.63645 -144.62131,69.94244 -222.97369,86.38726 -10e-6,0 -3e-5,0 -4e-5,10e-6 -14.57238,3.05849 -29.32829,5.68461 -44.21798,5.75965 -14.88858,0.075 -30.01687,-2.50619 -43.22719,-9.37371 -15.81275,-8.22043 -28.3434,-22.60164 -34.32201,-39.39076 z"
         style="fill:#000000;fill-opacity:1;fill-rule:evenodd;stroke:#000000;stroke-width:0.61384392px;stroke-linecap:butt;stroke-linejoin:miter;stroke-opacity:1" />
    </g>
    <g
       id="g4338"
       transform="matrix(-1,0,0,-1,701.31774,1172.4991)">
      <path
         sodipodi:nodetypes="csscssc"
         inkscape:connector-curvature="0"
         inkscape:original-d="m 444.88519,671.56693 c 0,0 19.7146,-23.40284 -7.4493,-49.59845 -23.6594,-22.81621 -79.3918,-27.55764 -118.7953,-19.89807 -28.7129,5.58147 -220.727098,87.90846 -220.727098,87.90846 0,0 194.989698,-58.89468 228.622298,-70.08485 27.2524,-9.06736 67.8074,-6.03058 86.957,9.90989 24.3353,20.25699 31.3924,41.76302 31.3924,41.76302 z"
         inkscape:path-effect="#path-effect4182;#path-effect4184"
         id="path4340"
         d="m 444.88519,671.56693 c 5.36467,-16.46463 2.5153,-35.43616 -7.4493,-49.59845 -6.16501,-8.76208 -14.82019,-15.64835 -24.46014,-20.32306 0,0 -1e-5,0 -2e-5,0 -9.64054,-4.67501 -20.2484,-7.19152 -30.92797,-8.05324 -10e-6,0 -2e-5,0 -2e-5,-10e-6 -21.35925,-1.72345 -42.67735,3.05016 -63.40713,8.47823 -10e-6,1e-5 -10e-6,1e-5 -2e-5,1e-5 -76.80611,20.1116 -151.12434,49.71015 -220.727098,87.90846 1.3e-5,0 2.5e-5,-10e-6 3.8e-5,-10e-6 71.7303,-35.55687 149.28808,-59.33244 228.62226,-70.08484 10e-6,0 3e-5,0 4e-5,0 14.75497,-1.99979 29.66181,-3.5551 44.51815,-2.55633 10e-6,1e-5 2e-5,1e-5 4e-5,1e-5 14.85523,0.9987 29.75802,4.66403 42.43877,12.46621 15.17885,9.33921 26.63994,24.58651 31.3924,41.76302 z"
         style="fill:#000000;fill-opacity:1;fill-rule:evenodd;stroke:#000000;stroke-width:0.61384392px;stroke-linecap:butt;stroke-linejoin:miter;stroke-opacity:1" />
      <path
         style="fill:#000000;fill-opacity:1;fill-rule:evenodd;stroke:#000000;stroke-width:0.57999653px;stroke-linecap:butt;stroke-linejoin:miter;stroke-opacity:1"
         d="m 444.37209,661.59339 c -0.26904,-15.63419 -6.17132,-31.12609 -16.37342,-42.97587 -7.39164,-8.58542 -16.9105,-15.23306 -27.27035,-19.81773 0,0 -10e-6,-10e-6 -10e-6,-10e-6 -10.36023,-4.58484 -21.55303,-7.14614 -32.83512,-8.1804 0,0 -1e-5,0 -2e-5,0 -22.56422,-2.06853 -45.22083,1.88949 -67.40685,6.49424 -10e-6,10e-6 -3e-5,10e-6 -4e-5,10e-6 -73.76463,15.30999 -146.00045,37.97863 -215.286508,67.56001 1.3e-5,0 2.6e-5,-10e-6 3.9e-5,-10e-6 76.004239,-33.39356 157.964079,-53.19157 240.831109,-58.17456 1e-5,0 3e-5,0 4e-5,0 14.72297,-0.88533 29.54767,-1.3044 44.17914,0.55834 2e-5,0 3e-5,0 4e-5,0 14.63078,1.86265 29.14001,6.0918 41.6287,13.93793 14.95723,9.39701 26.62134,23.95258 32.53325,40.59805 z"
         id="path4342"
         inkscape:path-effect="#path-effect4320;#path-effect4322"
         inkscape:original-d="m 444.37209,661.59339 c 0,0 16.53416,-19.42294 -16.37342,-42.97587 -28.6622,-20.51448 -87.68822,-26.648 -127.51239,-21.50389 -29.01956,3.74847 -215.286508,67.56001 -215.286508,67.56001 0,0 207.645588,-49.77835 240.831148,-58.17457 26.89019,-6.80343 63.04692,0.0675 85.80792,14.49627 28.92452,18.33596 32.53325,40.59805 32.53325,40.59805 z"
         inkscape:connector-curvature="0"
         sodipodi:nodetypes="csscssc" />
    </g>
    <g
       transform="matrix(-1,0,0,-1,697.61934,1173.3507)"
       id="g4344">
      <path
         sodipodi:nodetypes="csscssc"
         inkscape:connector-curvature="0"
         inkscape:original-d="m 237.31991,685.87697 c 0,0 -11.73717,22.38216 23.93474,38.74763 31.06993,14.25427 87.90729,8.24915 124.41781,-4.89113 26.60491,-9.57522 189.50602,-109.95741 189.50602,-109.95741 0,0 -185.82466,90.9919 -215.4356,105.96561 -23.99368,12.13315 -59.42599,12.7628 -83.73051,3.26648 -30.88597,-12.06779 -38.69246,-33.13118 -38.69246,-33.13118 z"
         inkscape:path-effect="#path-effect4302;#path-effect4304"
         id="path4346"
         d="m 237.31991,685.87697 c 3.00035,15.21304 11.67405,29.25478 23.93474,38.74763 8.6336,6.68457 18.91128,11.11806 29.58349,13.42595 10e-6,0 10e-6,0 2e-5,0 10.67261,2.30798 21.73922,2.52963 32.58661,1.27842 10e-6,0 10e-6,0 2e-5,0 21.69483,-2.50243 42.27409,-10.76456 62.24763,-19.59548 2e-5,-10e-6 3e-5,-2e-5 4e-5,-2e-5 66.92815,-29.59103 130.60225,-66.53676 189.50602,-109.95741 -1e-5,10e-6 -2e-5,10e-6 -3e-5,2e-5 -64.42388,48.24856 -137.89406,84.3861 -215.43557,105.96559 -1e-5,0 -3e-5,10e-6 -4e-5,10e-6 -13.69145,3.81027 -27.58098,7.18366 -41.74697,8.32335 -1e-5,0 -2e-5,0 -3e-5,0 -14.16527,1.13963 -28.69354,-0.0239 -41.98347,-5.05688 -16.19556,-6.13341 -30.13907,-18.07282 -38.69246,-33.13118 z"
         style="fill:#000000;fill-opacity:1;fill-rule:evenodd;stroke:#000000;stroke-width:0.56915557px;stroke-linecap:butt;stroke-linejoin:miter;stroke-opacity:1" />
      <path
         style="fill:#000000;fill-opacity:1;fill-rule:evenodd;stroke:#000000;stroke-width:0.61384392px;stroke-linecap:butt;stroke-linejoin:miter;stroke-opacity:1"
         d="m 231.97153,674.83813 c -4.16353,16.80859 0.0464,35.52529 11.00621,48.93222 6.78075,8.29475 15.90995,14.53901 25.86187,18.50646 0,0 1e-5,0 2e-5,0 9.95254,3.9677 20.71424,5.71278 31.42815,5.80221 10e-6,0 10e-6,0 2e-5,0 21.42793,0.17886 42.34634,-6.11948 62.63078,-13.02815 75.15604,-25.59737 147.1466,-60.4776 213.8139,-103.5952 -10e-6,0 -2e-5,10e-6 -4e-5,10e-6 -68.97976,40.63645 -144.62131,69.94244 -222.97369,86.38726 -10e-6,0 -3e-5,0 -4e-5,10e-6 -14.57238,3.05849 -29.32829,5.68461 -44.21798,5.75965 -14.88858,0.075 -30.01687,-2.50619 -43.22719,-9.37371 -15.81275,-8.22043 -28.3434,-22.60164 -34.32201,-39.39076 z"
         id="path4348"
         inkscape:path-effect="#path-effect4326;#path-effect4328"
         inkscape:original-d="m 231.97153,674.83813 c 0,0 -17.97582,24.76345 11.00621,48.93222 25.24298,21.05085 81.1722,21.76135 119.92084,11.28052 28.2357,-7.63729 213.8139,-103.5952 213.8139,-103.5952 0,0 -190.23554,72.80114 -222.97373,86.38727 -26.52766,11.0088 -67.19606,10.90415 -87.44521,-3.61405 -25.73259,-18.44956 -34.32201,-39.39076 -34.32201,-39.39076 z"
         inkscape:connector-curvature="0"
         sodipodi:nodetypes="csscssc" />
    </g>
  </g>
</svg>
