  0
SECTION
  2
HEADER
  9
$ACADVER
  1
AC1009
  9
$INSBASE
 10
0.0
 20
0.0
 30
0.0
  9
$EXTMIN
 10
-70956.305273
 20
-53468.093074
 30
-500.0
  9
$EXTMAX
 10
216423.943727
 20
205823.532926
 30
44500.0
  9
$LIMMIN
 10
0.0
 20
0.0
  9
$LIMMAX
 10
12.0
 20
9.0
  9
$ORTHOMODE
 70
     0
  9
$REGENMODE
 70
     1
  9
$FILLMODE
 70
     1
  9
$QTEXTMODE
 70
     0
  9
$MIRRTEXT
 70
     1
  9
$DRAGMODE
 70
     2
  9
$LTSCALE
 40
1.0
  9
$OSMODE
 70
     2
  9
$ATTMODE
 70
     1
  9
$TEXTSIZE
 40
0.2
  9
$TRACEWID
 40
0.05
  9
$TEXTSTYLE
  7
STANDARD
  9
$CLAYER
  8
QUADER
  9
$CELTYPE
  6
CONTINUOUS
  9
$CECOLOR
 62
   256
  9
$DIMSCALE
 40
1.0
  9
$DIMASZ
 40
0.18
  9
$DIMEXO
 40
0.0625
  9
$DIMDLI
 40
0.38
  9
$DIMRND
 40
0.0
  9
$DIMDLE
 40
0.0
  9
$DIMEXE
 40
0.18
  9
$DIMTP
 40
0.0
  9
$DIMTM
 40
0.0
  9
$DIMTXT
 40
0.18
  9
$DIMCEN
 40
0.09
  9
$DIMTSZ
 40
0.0
  9
$DIMTOL
 70
     0
  9
$DIMLIM
 70
     0
  9
$DIMTIH
 70
     1
  9
$DIMTOH
 70
     1
  9
$DIMSE1
 70
     0
  9
$DIMSE2
 70
     0
  9
$DIMTAD
 70
     0
  9
$DIMZIN
 70
     0
  9
$DIMBLK
  1

  9
$DIMASO
 70
     1
  9
$DIMSHO
 70
     1
  9
$DIMPOST
  1

  9
$DIMAPOST
  1

  9
$DIMALT
 70
     0
  9
$DIMALTD
 70
     2
  9
$DIMALTF
 40
25.4
  9
$DIMLFAC
 40
1.0
  9
$DIMTOFL
 70
     0
  9
$DIMTVP
 40
0.0
  9
$DIMTIX
 70
     0
  9
$DIMSOXD
 70
     0
  9
$DIMSAH
 70
     0
  9
$DIMBLK1
  1

  9
$DIMBLK2
  1

  9
$DIMSTYLE
  2
STANDARD
  9
$DIMCLRD
 70
     0
  9
$DIMCLRE
 70
     0
  9
$DIMCLRT
 70
     0
  9
$DIMTFAC
 40
1.0
  9
$DIMGAP
 40
0.09
  9
$LUNITS
 70
     2
  9
$LUPREC
 70
     4
  9
$SKETCHINC
 40
0.1
  9
$FILLETRAD
 40
0.0
  9
$AUNITS
 70
     0
  9
$AUPREC
 70
     0
  9
$MENU
  1
.
  9
$ELEVATION
 40
0.0
  9
$PELEVATION
 40
0.0
  9
$THICKNESS
 40
0.0
  9
$LIMCHECK
 70
     0
  9
$BLIPMODE
 70
     0
  9
$CHAMFERA
 40
0.0
  9
$CHAMFERB
 40
0.0
  9
$SKPOLY
 70
     0
  9
$TDCREATE
 40
0.0
  9
$TDUPDATE
 40
0.0
  9
$TDINDWG
 40
0.0
  9
$TDUSRTIMER
 40
0.0
  9
$USRTIMER
 70
     1
  9
$ANGBASE
 50
0.0
  9
$ANGDIR
 70
     0
  9
$PDMODE
 70
     0
  9
$PDSIZE
 40
0.0
  9
$PLINEWID
 40
0.0
  9
$COORDS
 70
     2
  9
$SPLFRAME
 70
     0
  9
$SPLINETYPE
 70
     6
  9
$SPLINESEGS
 70
     8
  9
$ATTDIA
 70
     0
  9
$ATTREQ
 70
     1
  9
$HANDLING
 70
     1
  9
$HANDSEED
  5
18AB
  9
$SURFTAB1
 70
     6
  9
$SURFTAB2
 70
     6
  9
$SURFTYPE
 70
     6
  9
$SURFU
 70
     6
  9
$SURFV
 70
     6
  9
$UCSNAME
  2

  9
$UCSORG
 10
0.0
 20
0.0
 30
0.0
  9
$UCSXDIR
 10
1.0
 20
0.0
 30
0.0
  9
$UCSYDIR
 10
0.0
 20
1.0
 30
0.0
  9
$PUCSNAME
  2

  9
$PUCSORG
 10
0.0
 20
0.0
 30
0.0
  9
$PUCSXDIR
 10
1.0
 20
0.0
 30
0.0
  9
$PUCSYDIR
 10
0.0
 20
1.0
 30
0.0
  9
$USERI1
 70
     0
  9
$USERI2
 70
     0
  9
$USERI3
 70
     0
  9
$USERI4
 70
     0
  9
$USERI5
 70
     0
  9
$USERR1
 40
0.0
  9
$USERR2
 40
0.0
  9
$USERR3
 40
0.0
  9
$USERR4
 40
0.0
  9
$USERR5
 40
0.0
  9
$WORLDVIEW
 70
     1
  9
$SHADEDGE
 70
     3
  9
$SHADEDIF
 70
    70
  9
$TILEMODE
 70
     1
  9
$MAXACTVP
 70
    48
  9
$PLIMCHECK
 70
     0
  9
$PEXTMIN
 10
1.000000E+020
 20
1.000000E+020
 30
1.000000E+020
  9
$PEXTMAX
 10
-1.000000E+020
 20
-1.000000E+020
 30
-1.000000E+020
  9
$PLIMMIN
 10
0.0
 20
0.0
  9
$PLIMMAX
 10
12.0
 20
9.0
  9
$UNITMODE
 70
     0
  9
$VISRETAIN
 70
     1
  9
$PLINEGEN
 70
     0
  9
$PSLTSCALE
 70
     1
  0
ENDSEC
  0
SECTION
  2
TABLES
  0
TABLE
  2
VPORT
 70
     2
  0
VPORT
  2
*ACTIVE
 70
     0
 10
0.0
 20
0.0
 11
1.0
 21
1.0
 12
72733.819227
 22
76177.719926
 13
0.0
 23
0.0
 14
1.0
 24
1.0
 15
2250.0
 25
2250.0
 16
0.0
 26
0.0
 36
1.0
 17
0.0
 27
0.0
 37
0.0
 40
262447.305018
 41
2.140244
 42
50.0
 43
0.0
 44
0.0
 50
0.0
 51
0.0
 71
     0
 72
   100
 73
     1
 74
     1
 75
     0
 76
     1
 77
     0
 78
     1
  0
ENDTAB
  0
TABLE
  2
LTYPE
 70
     1
  0
LTYPE
  2
CONTINUOUS
 70
     0
  3
Solid line
 72
    65
 73
     0
 40
0.0
  0
ENDTAB
  0
TABLE
  2
LAYER
 70
   140
  0
LAYER
  2
0
 70
     0
 62
     7
  6
CONTINUOUS
  0
LAYER
  2
QUADER
 70
     0
 62
    50
  6
CONTINUOUS
  0
ENDTAB
  0
TABLE
  2
STYLE
 70
     1
  0
STYLE
  2
STANDARD
 70
     0
 40
0.0
 41
1.0
 50
0.0
 71
     0
 42
0.2
  3
txt
  4

  0
ENDTAB
  0
TABLE
  2
VIEW
 70
     0
  0
ENDTAB
  0
TABLE
  2
UCS
 70
     0
  0
ENDTAB
  0
TABLE
  2
APPID
 70
     1
  0
APPID
  2
ACAD
 70
     0
  0
ENDTAB
  0
TABLE
  2
DIMSTYLE
 70
     1
  0
DIMSTYLE
  2
STANDARD
 70
     0
  3

  4

  5

  6

  7

 40
1.0
 41
0.18
 42
0.0625
 43
0.38
 44
0.18
 45
0.0
 46
0.0
 47
0.0
 48
0.0
140
0.18
141
0.09
142
0.0
143
25.4
144
1.0
145
0.0
146
1.0
147
0.09
 71
     0
 72
     0
 73
     1
 74
     1
 75
     0
 76
     0
 77
     0
 78
     0
170
     0
171
     2
172
     0
173
     0
174
     0
175
     0
176
     0
177
     0
178
     0
  0
ENDTAB
  0
ENDSEC
  0
SECTION
  2
BLOCKS
  0
BLOCK
  8
0
  2
$MODEL_SPACE
 70
     0
 10
0.0
 20
0.0
 30
0.0
  3
$MODEL_SPACE
  1

  0
ENDBLK
  5
180F
  8
0
  0
BLOCK
 67
     1
  8
0
  2
$PAPER_SPACE
 70
     0
 10
0.0
 20
0.0
 30
0.0
  3
$PAPER_SPACE
  1

  0
ENDBLK
  5
180C
 67
     1
  8
0
  0
BLOCK
  8
0
  2
KREUZ
 70
     0
 10
0.0
 20
0.0
 30
0.0
  3
KREUZ
  1

  0
LINE
  5
16F0
  8
0
  6
CONTINUOUS
 10
0.0
 20
608.443764
 30
0.0
 11
0.0
 21
-608.443764
 31
0.0
  0
LINE
  5
16F1
  8
0
  6
CONTINUOUS
 10
-608.443764
 20
0.0
 30
0.0
 11
608.443764
 21
0.0
 31
0.0
  0
ENDBLK
  5
16F2
  8
0
  0
BLOCK
  8
0
  2
QUADER
 70
     0
 10
0.0
 20
0.0
 30
0.0
  3
QUADER
  1

  0
3DFACE
  5
1714
  8
QUADER
  6
CONTINUOUS
 10
150.736055
 20
-117.169287
 30
0.0
 11
150.736055
 21
-117.169287
 31
1000.0
 12
-117.169287
 22
-150.736055
 32
1000.0
 13
-117.169287
 23
-150.736055
 33
0.0
  0
3DFACE
  5
1715
  8
QUADER
  6
CONTINUOUS
 10
117.169287
 20
150.736055
 30
0.0
 11
117.169287
 21
150.736055
 31
1000.0
 12
150.736055
 22
-117.169287
 32
1000.0
 13
150.736055
 23
-117.169287
 33
0.0
  0
3DFACE
  5
1716
  8
QUADER
  6
CONTINUOUS
 10
-150.736055
 20
117.169287
 30
0.0
 11
-150.736055
 21
117.169287
 31
1000.0
 12
117.169287
 22
150.736055
 32
1000.0
 13
117.169287
 23
150.736055
 33
0.0
  0
3DFACE
  5
1717
  8
QUADER
  6
CONTINUOUS
 10
-150.736055
 20
117.169287
 30
0.0
 11
-117.169287
 21
-150.736055
 31
0.0
 12
-117.169287
 22
-150.736055
 32
1000.0
 13
-150.736055
 23
117.169287
 33
1000.0
  0
POLYLINE
  5
1718
  8
0
  6
CONTINUOUS
 66
     1
 10
0.0
 20
0.0
 30
0.0
 70
    16
 71
     6
 72
     3
  0
VERTEX
  5
1719
  8
0
  6
CONTINUOUS
 10
150.736055
 20
-117.169287
 30
1000.0
 70
    64
  0
VERTEX
  5
171A
  8
0
  6
CONTINUOUS
 10
150.736055
 20
-117.169287
 30
0.0
 70
    64
  0
VERTEX
  5
171B
  8
0
  6
CONTINUOUS
 10
150.736055
 20
-117.169287
 30
0.0
 70
    64
  0
VERTEX
  5
171C
  8
0
  6
CONTINUOUS
 10
-117.169287
 20
-150.736055
 30
1000.0
 70
    64
  0
VERTEX
  5
171D
  8
0
  6
CONTINUOUS
 10
-117.169287
 20
-150.736055
 30
0.0
 70
    64
  0
VERTEX
  5
171E
  8
0
  6
CONTINUOUS
 10
-117.169287
 20
-150.736055
 30
0.0
 70
    64
  0
VERTEX
  5
171F
  8
0
  6
CONTINUOUS
 10
-150.736055
 20
117.169287
 30
1000.0
 70
    64
  0
VERTEX
  5
1720
  8
0
  6
CONTINUOUS
 10
-150.736055
 20
117.169287
 30
0.0
 70
    64
  0
VERTEX
  5
1721
  8
0
  6
CONTINUOUS
 10
-117.169287
 20
-150.736055
 30
0.0
 70
    64
  0
VERTEX
  5
1722
  8
0
  6
CONTINUOUS
 10
117.169287
 20
150.736055
 30
1000.0
 70
    64
  0
VERTEX
  5
1723
  8
0
  6
CONTINUOUS
 10
117.169287
 20
150.736055
 30
0.0
 70
    64
  0
VERTEX
  5
1724
  8
0
  6
CONTINUOUS
 10
150.736055
 20
-117.169287
 30
0.0
 70
    64
  0
VERTEX
  5
1725
  8
0
  6
CONTINUOUS
 10
117.169287
 20
150.736055
 30
1000.0
 70
    64
  0
VERTEX
  5
1726
  8
0
  6
CONTINUOUS
 10
117.169287
 20
150.736055
 30
1000.0
 70
    64
  0
VERTEX
  5
1727
  8
0
  6
CONTINUOUS
 10
150.736055
 20
-117.169287
 30
1000.0
 70
    64
  0
VERTEX
  5
1728
  8
0
  6
CONTINUOUS
 10
-150.736055
 20
117.169287
 30
1000.0
 70
    64
  0
VERTEX
  5
1729
  8
0
  6
CONTINUOUS
 10
-150.736055
 20
117.169287
 30
1000.0
 70
    64
  0
VERTEX
  5
172A
  8
0
  6
CONTINUOUS
 10
-117.169287
 20
-150.736055
 30
1000.0
 70
    64
  0
SEQEND
  5
172B
  8
0
  6
CONTINUOUS
  0
3DFACE
  5
172C
  8
QUADER
  6
CONTINUOUS
 10
150.736055
 20
-117.169287
 30
1000.0
 11
117.169287
 21
150.736055
 31
1000.0
 12
-150.736055
 22
117.169287
 32
1000.0
 13
-117.169287
 23
-150.736055
 33
1000.0
  0
ENDBLK
  5
172D
  8
0
  0
BLOCK
  8
0
  2
QUADER2
 70
     0
 10
0.0
 20
0.0
 30
0.0
  3
QUADER2
  1

  0
3DFACE
  5
174E
  8
QUADER
  6
CONTINUOUS
 10
-150.736055
 20
117.169287
 30
0.0
 11
-117.169287
 21
-150.736055
 31
0.0
 12
-117.169287
 22
-150.736055
 32
1000.0
 13
-150.736055
 23
117.169287
 33
1000.0
  0
3DFACE
  5
174F
  8
QUADER
  6
CONTINUOUS
 10
-150.736055
 20
117.169287
 30
0.0
 11
-150.736055
 21
117.169287
 31
1000.0
 12
117.169287
 22
150.736055
 32
1000.0
 13
117.169287
 23
150.736055
 33
0.0
  0
3DFACE
  5
1750
  8
QUADER
  6
CONTINUOUS
 10
117.169287
 20
150.736055
 30
0.0
 11
117.169287
 21
150.736055
 31
1000.0
 12
150.736055
 22
-117.169287
 32
1000.0
 13
150.736055
 23
-117.169287
 33
0.0
  0
3DFACE
  5
1751
  8
QUADER
  6
CONTINUOUS
 10
150.736055
 20
-117.169287
 30
0.0
 11
150.736055
 21
-117.169287
 31
1000.0
 12
-117.169287
 22
-150.736055
 32
1000.0
 13
-117.169287
 23
-150.736055
 33
0.0
  0
3DFACE
  5
1752
  8
QUADER
  6
CONTINUOUS
 10
150.736055
 20
-117.169287
 30
1000.0
 11
117.169287
 21
150.736055
 31
1000.0
 12
-150.736055
 22
117.169287
 32
1000.0
 13
-117.169287
 23
-150.736055
 33
1000.0
  0
ENDBLK
  5
1753
  8
0
  0
ENDSEC
  0
SECTION
  2
ENTITIES
  0
INSERT
  5
175F
  8
QUADER
  6
CONTINUOUS
  2
QUADER2
 10
-10487.130772
 20
12995.032917
 30
0.0
 43
6.0
  0
INSERT
  5
1760
  8
QUADER
  6
CONTINUOUS
  2
QUADER2
 10
-8253.37388
 20
13264.90353
 30
0.0
 43
6.0
  0
INSERT
  5
1761
  8
QUADER
  6
CONTINUOUS
  2
QUADER2
 10
-6019.616988
 20
13534.774143
 30
0.0
 43
6.0
  0
INSERT
  5
1762
  8
QUADER
  6
CONTINUOUS
  2
QUADER2
 10
-3785.860096
 20
13804.644756
 30
0.0
 43
6.0
  0
INSERT
  5
1763
  8
QUADER
  6
CONTINUOUS
  2
QUADER2
 10
-1552.103204
 20
14074.515368
 30
0.0
 43
6.0
  0
INSERT
  5
1764
  8
QUADER
  6
CONTINUOUS
  2
QUADER2
 10
681.653688
 20
14344.385981
 30
0.0
 43
6.0
  0
INSERT
  5
1765
  8
QUADER
  6
CONTINUOUS
  2
QUADER2
 10
2915.41058
 20
14614.256594
 30
0.0
 43
6.0
  0
INSERT
  5
1766
  8
QUADER
  6
CONTINUOUS
  2
QUADER2
 10
5149.167472
 20
14884.127207
 30
0.0
 43
6.0
  0
INSERT
  5
1767
  8
QUADER
  6
CONTINUOUS
  2
QUADER2
 10
7382.924364
 20
15153.99782
 30
0.0
 43
6.0
  0
INSERT
  5
1768
  8
QUADER
  6
CONTINUOUS
  2
QUADER2
 10
9616.681256
 20
15423.868433
 30
0.0
 43
6.0
  0
INSERT
  5
1769
  8
QUADER
  6
CONTINUOUS
  2
QUADER2
 10
11850.438148
 20
15693.739046
 30
0.0
 43
6.0
  0
INSERT
  5
176A
  8
QUADER
  6
CONTINUOUS
  2
QUADER2
 10
14084.19504
 20
15963.609659
 30
0.0
 43
6.0
  0
INSERT
  5
176B
  8
QUADER
  6
CONTINUOUS
  2
QUADER2
 10
14354.065652
 20
13729.852767
 30
0.0
 43
6.0
  0
INSERT
  5
176C
  8
QUADER
  6
CONTINUOUS
  2
QUADER2
 10
14623.936265
 20
11496.095875
 30
0.0
 43
6.0
  0
INSERT
  5
176D
  8
QUADER
  6
CONTINUOUS
  2
QUADER2
 10
14893.806878
 20
9262.338983
 30
0.0
 43
6.0
  0
INSERT
  5
176E
  8
QUADER
  6
CONTINUOUS
  2
QUADER2
 10
15163.677491
 20
7028.582091
 30
0.0
 43
6.0
  0
INSERT
  5
176F
  8
QUADER
  6
CONTINUOUS
  2
QUADER2
 10
15433.548104
 20
4794.825199
 30
0.0
 43
6.0
  0
INSERT
  5
1770
  8
QUADER
  6
CONTINUOUS
  2
QUADER2
 10
15703.418717
 20
2561.068307
 30
0.0
 43
6.0
  0
INSERT
  5
1771
  8
QUADER
  6
CONTINUOUS
  2
QUADER2
 10
15973.28933
 20
327.311415
 30
0.0
 43
6.0
  0
INSERT
  5
1772
  8
QUADER
  6
CONTINUOUS
  2
QUADER2
 10
16243.159943
 20
-1906.445477
 30
0.0
 43
6.0
  0
INSERT
  5
1773
  8
QUADER
  6
CONTINUOUS
  2
QUADER2
 10
16513.030556
 20
-4140.202368
 30
0.0
 43
6.0
  0
INSERT
  5
1774
  8
QUADER
  6
CONTINUOUS
  2
QUADER2
 10
16782.901169
 20
-6373.95926
 30
0.0
 43
6.0
  0
INSERT
  5
1775
  8
QUADER
  6
CONTINUOUS
  2
QUADER2
 10
17052.771782
 20
-8607.716152
 30
0.0
 43
6.0
  0
INSERT
  5
1776
  8
QUADER
  6
CONTINUOUS
  2
QUADER2
 10
14819.01489
 20
-8877.586765
 30
0.0
 43
6.0
  0
INSERT
  5
1777
  8
QUADER
  6
CONTINUOUS
  2
QUADER2
 10
12585.257998
 20
-9147.457378
 30
0.0
 43
6.0
  0
INSERT
  5
1778
  8
QUADER
  6
CONTINUOUS
  2
QUADER2
 10
10351.501106
 20
-9417.327991
 30
0.0
 43
6.0
  0
INSERT
  5
1779
  8
QUADER
  6
CONTINUOUS
  2
QUADER2
 10
8117.744214
 20
-9687.198604
 30
0.0
 43
6.0
  0
INSERT
  5
177A
  8
QUADER
  6
CONTINUOUS
  2
QUADER2
 10
5883.987322
 20
-9957.069217
 30
0.0
 43
6.0
  0
INSERT
  5
177B
  8
QUADER
  6
CONTINUOUS
  2
QUADER2
 10
3650.23043
 20
-10226.93983
 30
0.0
 43
6.0
  0
INSERT
  5
177C
  8
QUADER
  6
CONTINUOUS
  2
QUADER2
 10
1416.473538
 20
-10496.810443
 30
0.0
 43
6.0
  0
INSERT
  5
177D
  8
QUADER
  6
CONTINUOUS
  2
QUADER2
 10
-817.283354
 20
-10766.681056
 30
0.0
 43
6.0
  0
INSERT
  5
177E
  8
QUADER
  6
CONTINUOUS
  2
QUADER2
 10
-3051.040246
 20
-11036.551669
 30
0.0
 43
6.0
  0
INSERT
  5
177F
  8
QUADER
  6
CONTINUOUS
  2
QUADER2
 10
-5284.797138
 20
-11306.422282
 30
0.0
 43
6.0
  0
INSERT
  5
1780
  8
QUADER
  6
CONTINUOUS
  2
QUADER2
 10
-7518.55403
 20
-11576.292895
 30
0.0
 43
6.0
  0
INSERT
  5
1781
  8
QUADER
  6
CONTINUOUS
  2
QUADER2
 10
-7788.424643
 20
-9342.536003
 30
0.0
 43
6.0
  0
INSERT
  5
1782
  8
QUADER
  6
CONTINUOUS
  2
QUADER2
 10
-8058.295255
 20
-7108.779111
 30
0.0
 43
6.0
  0
INSERT
  5
1783
  8
QUADER
  6
CONTINUOUS
  2
QUADER2
 10
-8328.165868
 20
-4875.022219
 30
0.0
 43
6.0
  0
INSERT
  5
1784
  8
QUADER
  6
CONTINUOUS
  2
QUADER2
 10
-8598.036481
 20
-2641.265327
 30
0.0
 43
6.0
  0
INSERT
  5
1785
  8
QUADER
  6
CONTINUOUS
  2
QUADER2
 10
-8867.907094
 20
-407.508435
 30
0.0
 43
6.0
  0
INSERT
  5
1786
  8
QUADER
  6
CONTINUOUS
  2
QUADER2
 10
-9137.777707
 20
1826.248457
 30
0.0
 43
6.0
  0
INSERT
  5
1787
  8
QUADER
  6
CONTINUOUS
  2
QUADER2
 10
-9407.64832
 20
4060.005349
 30
0.0
 43
6.0
  0
INSERT
  5
1788
  8
QUADER
  6
CONTINUOUS
  2
QUADER2
 10
-9677.518933
 20
6293.762241
 30
0.0
 43
6.0
  0
INSERT
  5
1789
  8
QUADER
  6
CONTINUOUS
  2
QUADER2
 10
-9947.389546
 20
8527.519133
 30
0.0
 43
6.0
  0
INSERT
  5
178A
  8
QUADER
  6
CONTINUOUS
  2
QUADER2
 10
-10217.260159
 20
10761.276025
 30
0.0
 43
6.0
  0
INSERT
  5
178B
  8
QUADER
  6
CONTINUOUS
  2
QUADER2
 10
-7983.503267
 20
11031.146638
 30
0.0
 43
5.0
  0
INSERT
  5
178C
  8
QUADER
  6
CONTINUOUS
  2
QUADER2
 10
-5749.746375
 20
11301.017251
 30
0.0
 43
5.0
  0
INSERT
  5
178D
  8
QUADER
  6
CONTINUOUS
  2
QUADER2
 10
-3515.989483
 20
11570.887864
 30
0.0
 43
5.0
  0
INSERT
  5
178E
  8
QUADER
  6
CONTINUOUS
  2
QUADER2
 10
-1282.232591
 20
11840.758477
 30
0.0
 43
5.0
  0
INSERT
  5
178F
  8
QUADER
  6
CONTINUOUS
  2
QUADER2
 10
951.524301
 20
12110.629089
 30
0.0
 43
5.0
  0
INSERT
  5
1790
  8
QUADER
  6
CONTINUOUS
  2
QUADER2
 10
3185.281193
 20
12380.499702
 30
0.0
 43
5.0
  0
INSERT
  5
1791
  8
QUADER
  6
CONTINUOUS
  2
QUADER2
 10
5419.038085
 20
12650.370315
 30
0.0
 43
5.0
  0
INSERT
  5
1792
  8
QUADER
  6
CONTINUOUS
  2
QUADER2
 10
7652.794977
 20
12920.240928
 30
0.0
 43
5.0
  0
INSERT
  5
1793
  8
QUADER
  6
CONTINUOUS
  2
QUADER2
 10
9886.551869
 20
13190.111541
 30
0.0
 43
5.0
  0
INSERT
  5
1794
  8
QUADER
  6
CONTINUOUS
  2
QUADER2
 10
12120.308761
 20
13459.982154
 30
0.0
 43
5.0
  0
INSERT
  5
1795
  8
QUADER
  6
CONTINUOUS
  2
QUADER2
 10
12390.179373
 20
11226.225262
 30
0.0
 43
5.0
  0
INSERT
  5
1796
  8
QUADER
  6
CONTINUOUS
  2
QUADER2
 10
12660.049986
 20
8992.46837
 30
0.0
 43
5.0
  0
INSERT
  5
1797
  8
QUADER
  6
CONTINUOUS
  2
QUADER2
 10
12929.920599
 20
6758.711478
 30
0.0
 43
5.0
  0
INSERT
  5
1798
  8
QUADER
  6
CONTINUOUS
  2
QUADER2
 10
13199.791212
 20
4524.954586
 30
0.0
 43
5.0
  0
INSERT
  5
1799
  8
QUADER
  6
CONTINUOUS
  2
QUADER2
 10
13469.661825
 20
2291.197694
 30
0.0
 43
5.0
  0
INSERT
  5
179A
  8
QUADER
  6
CONTINUOUS
  2
QUADER2
 10
13739.532438
 20
57.440802
 30
0.0
 43
5.0
  0
INSERT
  5
179B
  8
QUADER
  6
CONTINUOUS
  2
QUADER2
 10
14009.403051
 20
-2176.316089
 30
0.0
 43
5.0
  0
INSERT
  5
179C
  8
QUADER
  6
CONTINUOUS
  2
QUADER2
 10
14279.273664
 20
-4410.072981
 30
0.0
 43
5.0
  0
INSERT
  5
179D
  8
QUADER
  6
CONTINUOUS
  2
QUADER2
 10
14549.144277
 20
-6643.829873
 30
0.0
 43
5.0
  0
INSERT
  5
179E
  8
QUADER
  6
CONTINUOUS
  2
QUADER2
 10
12315.387385
 20
-6913.700486
 30
0.0
 43
5.0
  0
INSERT
  5
179F
  8
QUADER
  6
CONTINUOUS
  2
QUADER2
 10
10081.630493
 20
-7183.571099
 30
0.0
 43
5.0
  0
INSERT
  5
17A0
  8
QUADER
  6
CONTINUOUS
  2
QUADER2
 10
7847.873601
 20
-7453.441712
 30
0.0
 43
5.0
  0
INSERT
  5
17A1
  8
QUADER
  6
CONTINUOUS
  2
QUADER2
 10
5614.116709
 20
-7723.312325
 30
0.0
 43
5.0
  0
INSERT
  5
17A2
  8
QUADER
  6
CONTINUOUS
  2
QUADER2
 10
3380.359817
 20
-7993.182938
 30
0.0
 43
5.0
  0
INSERT
  5
17A3
  8
QUADER
  6
CONTINUOUS
  2
QUADER2
 10
1146.602925
 20
-8263.053551
 30
0.0
 43
5.0
  0
INSERT
  5
17A4
  8
QUADER
  6
CONTINUOUS
  2
QUADER2
 10
-1087.153967
 20
-8532.924164
 30
0.0
 43
5.0
  0
INSERT
  5
17A5
  8
QUADER
  6
CONTINUOUS
  2
QUADER2
 10
-3320.910859
 20
-8802.794777
 30
0.0
 43
5.0
  0
INSERT
  5
17A6
  8
QUADER
  6
CONTINUOUS
  2
QUADER2
 10
-5554.667751
 20
-9072.66539
 30
0.0
 43
5.0
  0
INSERT
  5
17A7
  8
QUADER
  6
CONTINUOUS
  2
QUADER2
 10
-7713.632654
 20
8797.389746
 30
0.0
 43
5.0
  0
INSERT
  5
17A8
  8
QUADER
  6
CONTINUOUS
  2
QUADER2
 10
-7443.762041
 20
6563.632854
 30
0.0
 43
5.0
  0
INSERT
  5
17A9
  8
QUADER
  6
CONTINUOUS
  2
QUADER2
 10
-7173.891428
 20
4329.875962
 30
0.0
 43
5.0
  0
INSERT
  5
17AA
  8
QUADER
  6
CONTINUOUS
  2
QUADER2
 10
-6904.020815
 20
2096.11907
 30
0.0
 43
5.0
  0
INSERT
  5
17AB
  8
QUADER
  6
CONTINUOUS
  2
QUADER2
 10
-6634.150202
 20
-137.637822
 30
0.0
 43
5.0
  0
INSERT
  5
17AC
  8
QUADER
  6
CONTINUOUS
  2
QUADER2
 10
-6364.279589
 20
-2371.394714
 30
0.0
 43
5.0
  0
INSERT
  5
17AD
  8
QUADER
  6
CONTINUOUS
  2
QUADER2
 10
-6094.408976
 20
-4605.151606
 30
0.0
 43
5.0
  0
INSERT
  5
17AE
  8
QUADER
  6
CONTINUOUS
  2
QUADER2
 10
-5824.538364
 20
-6838.908498
 30
0.0
 43
5.0
  0
INSERT
  5
17AF
  8
QUADER
  6
CONTINUOUS
  2
QUADER2
 10
-5479.875762
 20
9067.260359
 30
0.0
 43
4.0
  0
INSERT
  5
17B0
  8
QUADER
  6
CONTINUOUS
  2
QUADER2
 10
-3246.11887
 20
9337.130972
 30
0.0
 43
4.0
  0
INSERT
  5
17B1
  8
QUADER
  6
CONTINUOUS
  2
QUADER2
 10
-1012.361978
 20
9607.001585
 30
0.0
 43
4.0
  0
INSERT
  5
17B2
  8
QUADER
  6
CONTINUOUS
  2
QUADER2
 10
1221.394914
 20
9876.872198
 30
0.0
 43
4.0
  0
INSERT
  5
17B3
  8
QUADER
  6
CONTINUOUS
  2
QUADER2
 10
3455.151806
 20
10146.74281
 30
0.0
 43
4.0
  0
INSERT
  5
17B4
  8
QUADER
  6
CONTINUOUS
  2
QUADER2
 10
5688.908698
 20
10416.613423
 30
0.0
 43
4.0
  0
INSERT
  5
17B5
  8
QUADER
  6
CONTINUOUS
  2
QUADER2
 10
7922.66559
 20
10686.484036
 30
0.0
 43
4.0
  0
INSERT
  5
17B6
  8
QUADER
  6
CONTINUOUS
  2
QUADER2
 10
10156.422482
 20
10956.354649
 30
0.0
 43
4.0
  0
INSERT
  5
17B7
  8
QUADER
  6
CONTINUOUS
  2
QUADER2
 10
10426.293094
 20
8722.597757
 30
0.0
 43
4.0
  0
INSERT
  5
17B8
  8
QUADER
  6
CONTINUOUS
  2
QUADER2
 10
10696.163707
 20
6488.840865
 30
0.0
 43
4.0
  0
INSERT
  5
17B9
  8
QUADER
  6
CONTINUOUS
  2
QUADER2
 10
10966.03432
 20
4255.083973
 30
0.0
 43
4.0
  0
INSERT
  5
17BA
  8
QUADER
  6
CONTINUOUS
  2
QUADER2
 10
11235.904933
 20
2021.327081
 30
0.0
 43
4.0
  0
INSERT
  5
17BB
  8
QUADER
  6
CONTINUOUS
  2
QUADER2
 10
11505.775546
 20
-212.42981
 30
0.0
 43
4.0
  0
INSERT
  5
17BC
  8
QUADER
  6
CONTINUOUS
  2
QUADER2
 10
11775.646159
 20
-2446.186702
 30
0.0
 43
4.0
  0
INSERT
  5
17BD
  8
QUADER
  6
CONTINUOUS
  2
QUADER2
 10
12045.516772
 20
-4679.943594
 30
0.0
 43
4.0
  0
INSERT
  5
17BE
  8
QUADER
  6
CONTINUOUS
  2
QUADER2
 10
9811.75988
 20
-4949.814207
 30
0.0
 43
4.0
  0
INSERT
  5
17BF
  8
QUADER
  6
CONTINUOUS
  2
QUADER2
 10
7578.002988
 20
-5219.68482
 30
0.0
 43
4.0
  0
INSERT
  5
17C0
  8
QUADER
  6
CONTINUOUS
  2
QUADER2
 10
5344.246096
 20
-5489.555433
 30
0.0
 43
4.0
  0
INSERT
  5
17C1
  8
QUADER
  6
CONTINUOUS
  2
QUADER2
 10
3110.489204
 20
-5759.426046
 30
0.0
 43
4.0
  0
INSERT
  5
17C2
  8
QUADER
  6
CONTINUOUS
  2
QUADER2
 10
876.732312
 20
-6029.296659
 30
0.0
 43
4.0
  0
INSERT
  5
17C3
  8
QUADER
  6
CONTINUOUS
  2
QUADER2
 10
-1357.02458
 20
-6299.167272
 30
0.0
 43
4.0
  0
INSERT
  5
17C4
  8
QUADER
  6
CONTINUOUS
  2
QUADER2
 10
-3590.781472
 20
-6569.037885
 30
0.0
 43
4.0
  0
INSERT
  5
17C5
  8
QUADER
  6
CONTINUOUS
  2
QUADER2
 10
-3860.652084
 20
-4335.280993
 30
0.0
 43
4.0
  0
INSERT
  5
17C6
  8
QUADER
  6
CONTINUOUS
  2
QUADER2
 10
-4130.522697
 20
-2101.524101
 30
0.0
 43
4.0
  0
INSERT
  5
17C7
  8
QUADER
  6
CONTINUOUS
  2
QUADER2
 10
-4400.39331
 20
132.232791
 30
0.0
 43
4.0
  0
INSERT
  5
17C8
  8
QUADER
  6
CONTINUOUS
  2
QUADER2
 10
-4670.263923
 20
2365.989683
 30
0.0
 43
4.0
  0
INSERT
  5
17C9
  8
QUADER
  6
CONTINUOUS
  2
QUADER2
 10
-4940.134536
 20
4599.746575
 30
0.0
 43
4.0
  0
INSERT
  5
17CA
  8
QUADER
  6
CONTINUOUS
  2
QUADER2
 10
-5210.005149
 20
6833.503467
 30
0.0
 43
4.0
  0
INSERT
  5
17D1
  8
QUADER
  6
CONTINUOUS
  2
QUADER2
 10
-2976.248257
 20
7103.37408
 30
0.0
 43
3.0
  0
INSERT
  5
17D2
  8
QUADER
  6
CONTINUOUS
  2
QUADER2
 10
-742.491365
 20
7373.244693
 30
0.0
 43
3.0
  0
INSERT
  5
17D3
  8
QUADER
  6
CONTINUOUS
  2
QUADER2
 10
1491.265527
 20
7643.115306
 30
0.0
 43
3.0
  0
INSERT
  5
17D4
  8
QUADER
  6
CONTINUOUS
  2
QUADER2
 10
3725.022419
 20
7912.985919
 30
0.0
 43
3.0
  0
INSERT
  5
17D5
  8
QUADER
  6
CONTINUOUS
  2
QUADER2
 10
5958.779311
 20
8182.856531
 30
0.0
 43
3.0
  0
INSERT
  5
17D6
  8
QUADER
  6
CONTINUOUS
  2
QUADER2
 10
8192.536203
 20
8452.727144
 30
0.0
 43
3.0
  0
INSERT
  5
17D7
  8
QUADER
  6
CONTINUOUS
  2
QUADER2
 10
8462.406815
 20
6218.970252
 30
0.0
 43
3.0
  0
INSERT
  5
17D8
  8
QUADER
  6
CONTINUOUS
  2
QUADER2
 10
8732.277428
 20
3985.21336
 30
0.0
 43
3.0
  0
INSERT
  5
17D9
  8
QUADER
  6
CONTINUOUS
  2
QUADER2
 10
9002.148041
 20
1751.456469
 30
0.0
 43
3.0
  0
INSERT
  5
17DA
  8
QUADER
  6
CONTINUOUS
  2
QUADER2
 10
9272.018654
 20
-482.300423
 30
0.0
 43
3.0
  0
INSERT
  5
17DB
  8
QUADER
  6
CONTINUOUS
  2
QUADER2
 10
9541.889267
 20
-2716.057315
 30
0.0
 43
3.0
  0
INSERT
  5
17DC
  8
QUADER
  6
CONTINUOUS
  2
QUADER2
 10
7308.132375
 20
-2985.927928
 30
0.0
 43
3.0
  0
INSERT
  5
17DD
  8
QUADER
  6
CONTINUOUS
  2
QUADER2
 10
5074.375483
 20
-3255.798541
 30
0.0
 43
3.0
  0
INSERT
  5
17DE
  8
QUADER
  6
CONTINUOUS
  2
QUADER2
 10
2840.618591
 20
-3525.669154
 30
0.0
 43
3.0
  0
INSERT
  5
17DF
  8
QUADER
  6
CONTINUOUS
  2
QUADER2
 10
606.861699
 20
-3795.539767
 30
0.0
 43
3.0
  0
INSERT
  5
17E0
  8
QUADER
  6
CONTINUOUS
  2
QUADER2
 10
-1626.895193
 20
-4065.41038
 30
0.0
 43
3.0
  0
INSERT
  5
17E1
  8
QUADER
  6
CONTINUOUS
  2
QUADER2
 10
-1896.765805
 20
-1831.653488
 30
0.0
 43
3.0
  0
INSERT
  5
17E2
  8
QUADER
  6
CONTINUOUS
  2
QUADER2
 10
-2166.636418
 20
402.103404
 30
0.0
 43
3.0
  0
INSERT
  5
17E3
  8
QUADER
  6
CONTINUOUS
  2
QUADER2
 10
-2436.507031
 20
2635.860296
 30
0.0
 43
3.0
  0
INSERT
  5
17E4
  8
QUADER
  6
CONTINUOUS
  2
QUADER2
 10
-2706.377644
 20
4869.617188
 30
0.0
 43
3.0
  0
INSERT
  5
17E5
  8
QUADER
  6
CONTINUOUS
  2
QUADER2
 10
-472.620752
 20
5139.487801
 30
0.0
 43
2.0
  0
INSERT
  5
17E6
  8
QUADER
  6
CONTINUOUS
  2
QUADER2
 10
1761.13614
 20
5409.358414
 30
0.0
 43
2.0
  0
INSERT
  5
17E7
  8
QUADER
  6
CONTINUOUS
  2
QUADER2
 10
3994.893032
 20
5679.229027
 30
0.0
 43
2.0
  0
INSERT
  5
17E8
  8
QUADER
  6
CONTINUOUS
  2
QUADER2
 10
6228.649924
 20
5949.09964
 30
0.0
 43
2.0
  0
INSERT
  5
17E9
  8
QUADER
  6
CONTINUOUS
  2
QUADER2
 10
6498.520536
 20
3715.342748
 30
0.0
 43
2.0
  0
INSERT
  5
17EA
  8
QUADER
  6
CONTINUOUS
  2
QUADER2
 10
6768.391149
 20
1481.585856
 30
0.0
 43
2.0
  0
INSERT
  5
17EB
  8
QUADER
  6
CONTINUOUS
  2
QUADER2
 10
7038.261762
 20
-752.171036
 30
0.0
 43
2.0
  0
INSERT
  5
17EC
  8
QUADER
  6
CONTINUOUS
  2
QUADER2
 10
4804.50487
 20
-1022.041649
 30
0.0
 43
2.0
  0
INSERT
  5
17ED
  8
QUADER
  6
CONTINUOUS
  2
QUADER2
 10
2570.747978
 20
-1291.912262
 30
0.0
 43
2.0
  0
INSERT
  5
17EE
  8
QUADER
  6
CONTINUOUS
  2
QUADER2
 10
336.991086
 20
-1561.782875
 30
0.0
 43
2.0
  0
INSERT
  5
17EF
  8
QUADER
  6
CONTINUOUS
  2
QUADER2
 10
67.120474
 20
671.974017
 30
0.0
 43
2.0
  0
INSERT
  5
17F0
  8
QUADER
  6
CONTINUOUS
  2
QUADER2
 10
-202.750139
 20
2905.730909
 30
0.0
 43
2.0
  0
INSERT
  5
17F1
  8
QUADER
  6
CONTINUOUS
  2
QUADER2
 10
2031.006753
 20
3175.601522
 30
0.0
  0
INSERT
  5
17F2
  8
QUADER
  6
CONTINUOUS
  2
QUADER2
 10
4264.763644
 20
3445.472135
 30
0.0
  0
INSERT
  5
17F3
  8
QUADER
  6
CONTINUOUS
  2
QUADER2
 10
4534.634257
 20
1211.715243
 30
0.0
  0
INSERT
  5
17F4
  8
QUADER
  6
CONTINUOUS
  2
QUADER2
 10
2300.877365
 20
941.84463
 30
0.0
  0
ENDSEC
  0
EOF
