0
SECTION
2
ENTITIES
0
3DFACE
8
0
10
-9.43999
20
-0.12999
30
-3.45999
11
-9.34999
21
0.349991
31
-2.79999
12
-9.45
22
0.37999
32
-3.45999
13
-9.45
23
0.37999
33
-3.45999
0
3DFACE
8
0
10
-9.34
20
-0.139999
30
-2.79999
11
-9.32999
21
-0.639999
31
-2.81
12
-9.43999
22
-0.12999
32
-3.45999
13
-9.43999
23
-0.12999
33
-3.45999
0
3DFACE
8
0
10
-9.34999
20
0.349991
30
-2.79999
11
-9.25999
21
0.87999
31
-2.79999
12
-9.31999
22
0.449997
32
-2.79999
13
-9.31999
23
0.449997
33
-2.79999
0
3DFACE
8
0
10
-9.34
20
-0.139999
30
-2.79999
11
-9.20999
21
-1.15999
31
-2.82999
12
-9.32999
22
-0.639999
32
-2.81
13
-9.32999
23
-0.639999
33
-2.81
0
3DFACE
8
0
10
-3.31
20
-0.0499878
30
-1.18999
11
-3.29999
21
1.01999
31
-1.20999
12
-3.82999
22
-0.0599976
32
-1.2
13
-3.82999
23
-0.0599976
33
-1.2
0
3DFACE
8
0
10
-3.85999
20
1.06999
30
-1.23999
11
-3.82999
21
-0.0599976
31
-1.2
12
-3.85999
22
0.019989
32
-1.20999
13
-3.85999
23
0.019989
33
-1.20999
0
3DFACE
8
0
10
-3.31
20
-0.0499878
30
-1.18999
11
-3.24998
21
-1.12
31
-1.23999
12
-3.82999
22
-0.0599976
32
-1.2
13
-3.82999
23
-0.0599976
33
-1.2
0
3DFACE
8
0
10
-3.82999
20
-0.0599976
30
-1.2
11
-3.81
21
-1.18999
31
-1.26999
12
-3.84999
22
-0.149994
32
-1.20999
13
-3.84999
23
-0.149994
33
-1.20999
0
3DFACE
8
0
10
7.82999
20
0.189987
30
-2.90999
11
7.85999
21
-0.579987
31
-2.93999
12
7.73
22
-0.559998
32
-3.45999
13
7.73
23
-0.559998
33
-3.45999
0
3DFACE
8
0
10
7.82999
20
0.189987
30
-2.90999
11
7.82999
21
0.979996
31
-2.92
12
7.7
22
0.969986
32
-3.42999
13
7.7
23
0.969986
33
-3.42999
0
3DFACE
8
0
10
7.7
20
0.969986
30
-3.42999
11
7.73
21
-0.559998
31
-3.45999
12
7.82999
22
0.189987
32
-2.90999
13
7.82999
23
0.189987
33
-2.90999
0
3DFACE
8
0
10
7.81
20
0.189987
30
-2.79999
11
7.84
21
-0.589996
31
-2.81
12
7.85999
22
-0.579987
32
-2.93999
13
7.85999
23
-0.579987
33
-2.93999
0
3DFACE
8
0
10
7.81
20
0.189987
30
-2.79999
11
7.82999
21
0.979996
31
-2.92
12
7.82999
22
0.189987
32
-2.90999
13
7.82999
23
0.189987
33
-2.90999
0
3DFACE
8
0
10
1.43999
20
-3.07999
30
-1.87999
11
2.06
21
-3.06
31
-1.85999
12
1.42999
22
-3.17
32
-2.39
13
1.42999
23
-3.17
33
-2.39
0
3DFACE
8
0
10
2.06
20
-3.06
30
-1.85999
11
2.25999
21
-3.03999
31
-1.87
12
2.18999
22
-3.12999
32
-2.37999
13
2.18999
23
-3.12999
33
-2.37999
0
3DFACE
8
0
10
1.31
20
3.28999
30
-2.28
11
1.93999
21
3.18999
31
-1.75999
12
2.06999
22
3.28
32
-2.26999
13
2.06999
23
3.28
33
-2.26999
0
3DFACE
8
0
10
2.06999
20
3.28
30
-2.26999
11
2.14
21
3.17999
31
-1.76999
12
1.93999
22
3.18999
32
-1.75999
13
1.93999
23
3.18999
33
-1.75999
0
3DFACE
8
0
10
-1.04999
20
-2.82999
30
-1.42
11
-1.03
21
-2.96999
31
-1.42999
12
-1.12
22
-2.95999
32
-1.25999
13
-1.12
23
-2.95999
33
-1.25999
0
3DFACE
8
0
10
-1.14
20
-2.82999
30
-1.14999
11
-1.04999
21
-2.82999
31
-1.42
12
-1.15999
22
-2.62
32
-1.14
13
-1.15999
23
-2.62
33
-1.14
0
3DFACE
8
0
10
-1.25999
20
2.81
30
-1.06
11
-1.17
21
2.81999
31
-1.32999
12
-1.23999
22
2.93999
32
-1.15999
13
-1.23999
23
2.93999
33
-1.15999
0
3DFACE
8
0
10
-1.23999
20
2.93999
30
-1.15999
11
-1.17
21
2.81999
31
-1.32999
12
-1.14999
22
2.95999
32
-1.32999
13
-1.14999
23
2.95999
33
-1.32999
0
3DFACE
8
0
10
7.75999
20
0.169998
30
-2
11
7.76999
21
-0.679993
31
-2.00999
12
7.73
22
-0.549988
32
-2.10999
13
7.73
23
-0.549988
33
-2.10999
0
3DFACE
8
0
10
7.70999
20
0.919998
30
-2.09
11
7.75999
21
0.169998
31
-2
12
7.71999
22
0.179993
32
-2.06999
13
7.71999
23
0.179993
33
-2.06999
0
3DFACE
8
0
10
-2.64
20
-3.23
30
-1.90999
11
-2.45999
21
-3.12
31
-1.64
12
-1.98
22
-3.09999
32
-1.59999
13
-1.98
23
-3.09999
33
-1.59999
0
3DFACE
8
0
10
-2.64
20
-3.23
30
-1.90999
11
-1.98
21
-3.09999
31
-1.59999
12
-1.01999
22
-3.17999
32
-1.89
13
-1.01999
23
-3.17999
33
-1.89
0
3DFACE
8
0
10
-2.59
20
3.06
30
-1.53999
11
-2.10999
21
3.06
31
-1.5
12
-2.76999
22
3.17
32
-1.79999
13
-2.76999
23
3.17
33
-1.79999
0
3DFACE
8
0
10
-2.10999
20
3.06
30
-1.5
11
-1.14
21
3.06999
31
-1.46999
12
-1.14999
22
3.18999
32
-1.78
13
-1.14999
23
3.18999
33
-1.78
0
3DFACE
8
0
10
-3.68999
20
-3.28999
30
-1.92999
11
-3.29999
21
-3.35999
31
-2.40999
12
-3.65999
22
-3.35999
32
-2.42
13
-3.65999
23
-3.35999
33
-2.42
0
3DFACE
8
0
10
-2.93999
20
-3.34
30
-2.40999
11
-2.64
21
-3.23
31
-1.90999
12
-3.29999
22
-3.35999
32
-2.40999
13
-3.29999
23
-3.35999
33
-2.40999
0
3DFACE
8
0
10
-3.07999
20
3.28999
30
-2.29999
11
-2.76999
21
3.17
31
-1.79999
12
-2.81999
22
3.28999
32
-2.29999
13
-2.81999
23
3.28999
33
-2.29999
0
3DFACE
8
0
10
-3.81999
20
3.18999
30
-1.81999
11
-2.76999
21
3.17
31
-1.79999
12
-3.43999
22
3.28999
32
-2.29999
13
-3.43999
23
3.28999
33
-2.29999
0
3DFACE
8
0
10
-9.43999
20
-0.12999
30
-3.45999
11
-9.34999
21
0.349991
31
-2.79999
12
-9.34
22
-0.139999
32
-2.79999
13
-9.34
23
-0.139999
33
-2.79999
0
3DFACE
8
0
10
-9.43999
20
-0.12999
30
-3.45999
11
-9.32999
21
-0.639999
31
-2.81
12
-9.42
22
-0.649994
32
-3.46999
13
-9.42
23
-0.649994
33
-3.46999
0
3DFACE
8
0
10
-9.34999
20
0.349991
30
-2.79999
11
-9.25999
21
0.87999
31
-2.79999
12
-9.34
22
-0.139999
32
-2.79999
13
-9.34
23
-0.139999
33
-2.79999
0
3DFACE
8
0
10
-9.32999
20
-0.639999
30
-2.81
11
-9.20999
21
-1.15999
31
-2.82999
12
-9.28999
22
-0.73999
32
-2.81999
13
-9.28999
23
-0.73999
33
-2.81999
0
3DFACE
8
0
10
-3.85999
20
1.06999
30
-1.23999
11
-3.82999
21
-0.0599976
31
-1.2
12
-3.29999
22
1.01999
32
-1.20999
13
-3.29999
23
1.01999
33
-1.20999
0
3DFACE
8
0
10
-3.82999
20
-0.0599976
30
-1.2
11
-3.81
21
-1.18999
31
-1.26999
12
-3.24998
22
-1.12
32
-1.23999
13
-3.24998
23
-1.12
33
-1.23999
0
3DFACE
8
0
10
7.81
20
0.189987
30
-2.79999
11
7.85999
21
-0.579987
31
-2.93999
12
7.82999
22
0.189987
32
-2.90999
13
7.82999
23
0.189987
33
-2.90999
0
3DFACE
8
0
10
7.81
20
0.189987
30
-2.79999
11
7.82999
21
0.979996
31
-2.92
12
7.81
22
0.979996
32
-2.78999
13
7.81
23
0.979996
33
-2.78999
0
3DFACE
8
0
10
1.42999
20
-3.17
30
-2.39
11
2.06
21
-3.06
31
-1.85999
12
2.18999
22
-3.12999
32
-2.37999
13
2.18999
23
-3.12999
33
-2.37999
0
3DFACE
8
0
10
1.31
20
3.28999
30
-2.28
11
1.93999
21
3.18999
31
-1.75999
12
1.31999
22
3.17999
32
-1.76999
13
1.31999
23
3.17999
33
-1.76999
0
3DFACE
8
0
10
-1.14
20
-2.82999
30
-1.14999
11
-1.04999
21
-2.82999
31
-1.42
12
-1.12
22
-2.95999
32
-1.25999
13
-1.12
23
-2.95999
33
-1.25999
0
3DFACE
8
0
10
-1.25999
20
2.81
30
-1.06
11
-1.17
21
2.81999
31
-1.32999
12
-1.93999
22
2.89999
32
-1.31999
13
-1.93999
23
2.89999
33
-1.31999
0
3DFACE
8
0
10
7.73
20
-0.549988
30
-2.10999
11
7.75999
21
0.169998
31
-2
12
7.71999
22
0.179993
32
-2.06999
13
7.71999
23
0.179993
33
-2.06999
0
3DFACE
8
0
10
7.70999
20
0.919998
30
-2.09
11
7.75999
21
0.169998
31
-2
12
7.73999
22
1.03999
32
-1.98
13
7.73999
23
1.03999
33
-1.98
0
3DFACE
8
0
10
-1.98
20
-3.09999
30
-1.59999
11
-1.01999
21
-3.17999
31
-1.89
12
-1.00999
22
-3.06999
32
-1.56999
13
-1.00999
23
-3.06999
33
-1.56999
0
3DFACE
8
0
10
-2.10999
20
3.06
30
-1.5
11
-1.14999
21
3.18999
31
-1.78
12
-2.76999
22
3.17
32
-1.79999
13
-2.76999
23
3.17
33
-1.79999
0
3DFACE
8
0
10
-3.68999
20
-3.28999
30
-1.92999
11
-3.29999
21
-3.35999
31
-2.40999
12
-2.64
22
-3.23
32
-1.90999
13
-2.64
23
-3.23
33
-1.90999
0
3DFACE
8
0
10
-2.93999
20
-3.34
30
-2.40999
11
-2.64
21
-3.23
31
-1.90999
12
-2.67999
22
-3.32999
32
-2.40999
13
-2.67999
23
-3.32999
33
-2.40999
0
3DFACE
8
0
10
-3.07999
20
3.28999
30
-2.29999
11
-2.76999
21
3.17
31
-1.79999
12
-3.43999
22
3.28999
32
-2.29999
13
-3.43999
23
3.28999
33
-2.29999
0
3DFACE
8
0
10
-3.81999
20
3.18999
30
-1.81999
11
-3.43999
21
3.28999
31
-2.29999
12
-3.79999
22
3.28
32
-2.31
13
-3.79999
23
3.28
33
-2.31
0
3DFACE
8
0
10
-9.25999
20
0.87999
30
-2.79999
11
-9.09
21
2.12999
31
-2.79999
12
-9.15999
22
1.89999
32
-3.24998
13
-9.15999
23
1.89999
33
-3.24998
0
3DFACE
8
0
10
-9.31999
20
0.889999
30
-3.24998
11
-9.25999
21
0.87999
31
-2.79999
12
-9.15999
22
1.89999
32
-3.24998
13
-9.15999
23
1.89999
33
-3.24998
0
3DFACE
8
0
10
-9.37
20
0.559998
30
-3.23999
11
-9.31999
21
0.889999
31
-3.24998
12
-9.25999
22
0.87999
32
-2.79999
13
-9.25999
23
0.87999
33
-2.79999
0
3DFACE
8
0
10
-9.31999
20
0.449997
30
-2.79999
11
-9.25999
21
0.87999
31
-2.79999
12
-9.37
22
0.559998
32
-3.23999
13
-9.37
23
0.559998
33
-3.23999
0
3DFACE
8
0
10
-9.34
20
-0.829987
30
-3.25999
11
-9.28999
21
-0.73999
31
-2.81999
12
-9.20999
22
-1.15999
32
-2.82999
13
-9.20999
23
-1.15999
33
-2.82999
0
3DFACE
8
0
10
-9.26999
20
-1.15999
30
-3.28
11
-9.20999
21
-1.15999
31
-2.82999
12
-9.34
22
-0.829987
32
-3.25999
13
-9.34
23
-0.829987
33
-3.25999
0
3DFACE
8
0
10
-9.26999
20
-1.15999
30
-3.28
11
-9.06999
21
-2.15999
31
-3.31999
12
-9.20999
22
-1.15999
32
-2.82999
13
-9.20999
23
-1.15999
33
-2.82999
0
3DFACE
8
0
10
-9.20999
20
-1.15999
30
-2.82999
11
-9.06999
21
-2.15999
31
-3.31999
12
-8.98999
22
-2.39999
32
-2.87
13
-8.98999
23
-2.39999
33
-2.87
0
3DFACE
8
0
10
7.64
20
-0.509995
30
-2.74998
11
7.73
21
-0.549988
31
-2.10999
12
7.71999
22
0.179993
32
-2.06999
13
7.71999
23
0.179993
33
-2.06999
0
3DFACE
8
0
10
7.62999
20
0.179993
30
-2.71999
11
7.71999
21
0.179993
31
-2.06999
12
7.64
22
-0.509995
32
-2.74998
13
7.64
23
-0.509995
33
-2.74998
0
3DFACE
8
0
10
7.62
20
0.889999
30
-2.73
11
7.62999
21
0.179993
31
-2.71999
12
7.71999
22
0.179993
32
-2.06999
13
7.71999
23
0.179993
33
-2.06999
0
3DFACE
8
0
10
7.70999
20
0.919998
30
-2.09
11
7.71999
21
0.179993
31
-2.06999
12
7.62
22
0.889999
32
-2.73
13
7.62
23
0.889999
33
-2.73
0
3DFACE
8
0
10
5.98
20
2.06
30
-1.03999
11
6.17999
21
2.07999
31
-1.14
12
5.95
22
2.34999
32
-1.12999
13
5.95
23
2.34999
33
-1.12999
0
3DFACE
8
0
10
5.98
20
2.06
30
-1.03999
11
6.17999
21
2.07999
31
-1.14
12
6.71999
22
1.06
32
-1.15999
13
6.71999
23
1.06
33
-1.15999
0
3DFACE
8
0
10
5.98
20
2.06
30
-1.03999
11
6.01999
21
1.03
31
-0.919998
12
6.71999
22
1.06
32
-1.15999
13
6.71999
23
1.06
33
-1.15999
0
3DFACE
8
0
10
6.01999
20
1.03
30
-0.919998
11
6.71999
21
1.06
31
-1.15999
12
6.81999
22
0.159988
32
-1.17
13
6.81999
23
0.159988
33
-1.17
0
3DFACE
8
0
10
6.03999
20
0.12999
30
-0.909988
11
6.81999
21
0.159988
31
-1.17
12
6.01999
22
1.03
32
-0.919998
13
6.01999
23
1.03
33
-0.919998
0
3DFACE
8
0
10
6.03999
20
0.12999
30
-0.909988
11
6.06
21
-0.779999
31
-0.949997
12
6.81999
22
0.159988
32
-1.17
13
6.81999
23
0.159988
33
-1.17
0
3DFACE
8
0
10
6.71999
20
-0.779999
30
-1.18999
11
6.81999
21
0.159988
31
-1.17
12
6.06
22
-0.779999
32
-0.949997
13
6.06
23
-0.779999
33
-0.949997
0
3DFACE
8
0
10
6.06
20
-0.779999
30
-0.949997
11
6.71999
21
-0.779999
31
-1.18999
12
6.06
22
-1.81
32
-1.10999
13
6.06
23
-1.81
33
-1.10999
0
3DFACE
8
0
10
6.25999
20
-1.81
30
-1.2
11
6.71999
21
-0.779999
31
-1.18999
12
6.06
22
-1.81
32
-1.10999
13
6.06
23
-1.81
33
-1.10999
0
3DFACE
8
0
10
6.04999
20
-2.06
30
-1.2
11
6.06
21
-1.81
31
-1.10999
12
6.25999
22
-1.81
32
-1.2
13
6.25999
23
-1.81
33
-1.2
0
3DFACE
8
0
10
4.81999
20
-1.75999
30
-0.749985
11
6.06
21
-1.81
31
-1.10999
12
6.04999
22
-2.06
32
-1.2
13
6.04999
23
-2.06
33
-1.2
0
3DFACE
8
0
10
4.81999
20
-1.75999
30
-0.749985
11
6.04999
21
-2.06
31
-1.2
12
4.84999
22
-2.03999
32
-0.889999
13
4.84999
23
-2.03999
33
-0.889999
0
3DFACE
8
0
10
4.84999
20
-2.03999
30
-0.889999
11
4.89999
21
-2.48
31
-1.2
12
6.04999
22
-2.06
32
-1.2
13
6.04999
23
-2.06
33
-1.2
0
3DFACE
8
0
10
4.84999
20
-2.03999
30
-0.889999
11
4.89999
21
-2.48
31
-1.2
12
3.23
22
-2.01999
32
-0.439987
13
3.23
23
-2.01999
33
-0.439987
0
3DFACE
8
0
10
3.23
20
-2.01999
30
-0.439987
11
4.89999
21
-2.48
31
-1.2
12
3.34
22
-2.32999
32
-0.719986
13
3.34
23
-2.32999
33
-0.719986
0
3DFACE
8
0
10
3.34
20
-2.32999
30
-0.719986
11
3.5
21
-2.59
31
-1.17999
12
4.89999
22
-2.48
32
-1.2
13
4.89999
23
-2.48
33
-1.2
0
3DFACE
8
0
10
3.23
20
-2.01999
30
-0.439987
11
4.84999
21
-2.03999
31
-0.889999
12
4.81999
22
-1.75999
32
-0.749985
13
4.81999
23
-1.75999
33
-0.749985
0
3DFACE
8
0
10
3.17
20
-1.70999
30
-0.289993
11
3.23
21
-2.01999
31
-0.439987
12
4.81999
22
-1.75999
32
-0.749985
13
4.81999
23
-1.75999
33
-0.749985
0
3DFACE
8
0
10
3.09999
20
-0.779999
30
-0.149994
11
3.17
21
-1.70999
31
-0.289993
12
4.81999
22
-1.75999
32
-0.749985
13
4.81999
23
-1.75999
33
-0.749985
0
3DFACE
8
0
10
3.09999
20
-0.779999
30
-0.149994
11
4.85999
21
-0.779999
31
-0.579987
12
4.81999
22
-1.75999
32
-0.749985
13
4.81999
23
-1.75999
33
-0.749985
0
3DFACE
8
0
10
4.85999
20
-0.779999
30
-0.579987
11
6.06
21
-0.779999
31
-0.949997
12
4.81999
22
-1.75999
32
-0.749985
13
4.81999
23
-1.75999
33
-0.749985
0
3DFACE
8
0
10
4.81999
20
-1.75999
30
-0.749985
11
6.06
21
-0.779999
31
-0.949997
12
6.06
22
-1.81
32
-1.10999
13
6.06
23
-1.81
33
-1.10999
0
3DFACE
8
0
10
4.85999
20
-0.779999
30
-0.579987
11
6.06
21
-0.779999
31
-0.949997
12
4.82999
22
0.0899963
32
-0.539993
13
4.82999
23
0.0899963
33
-0.539993
0
3DFACE
8
0
10
4.82999
20
0.0899963
30
-0.539993
11
6.03999
21
0.12999
31
-0.909988
12
6.06
22
-0.779999
32
-0.949997
13
6.06
23
-0.779999
33
-0.949997
0
3DFACE
8
0
10
3.09999
20
-0.779999
30
-0.149994
11
4.85999
21
-0.779999
31
-0.579987
12
4.82999
22
0.0899963
32
-0.539993
13
4.82999
23
0.0899963
33
-0.539993
0
3DFACE
8
0
10
3.09
20
0.0299988
30
-0.159988
11
3.09999
21
-0.779999
31
-0.149994
12
4.82999
22
0.0899963
32
-0.539993
13
4.82999
23
0.0899963
33
-0.539993
0
3DFACE
8
0
10
3.09
20
0.0299988
30
-0.159988
11
4.82999
21
0.0899963
31
-0.539993
12
3.04999
22
0.909988
32
-0.119995
13
3.04999
23
0.909988
33
-0.119995
0
3DFACE
8
0
10
3.04999
20
0.909988
30
-0.119995
11
4.82999
21
0.0899963
31
-0.539993
12
4.81
22
0.979996
32
-0.539993
13
4.81
23
0.979996
33
-0.539993
0
3DFACE
8
0
10
4.74998
20
1.95999
30
-0.689987
11
4.81
21
0.979996
31
-0.539993
12
3.04999
22
0.909988
32
-0.119995
13
3.04999
23
0.909988
33
-0.119995
0
3DFACE
8
0
10
3.04999
20
0.909988
30
-0.119995
11
3.06999
21
1.84
31
-0.23999
12
4.74998
22
1.95999
32
-0.689987
13
4.74998
23
1.95999
33
-0.689987
0
3DFACE
8
0
10
3.06999
20
1.84
30
-0.23999
11
4.74998
21
1.95999
31
-0.689987
12
3.12
22
2.14
32
-0.37999
13
3.12
23
2.14
33
-0.37999
0
3DFACE
8
0
10
4.74998
20
1.95999
30
-0.689987
11
4.78
21
2.26999
31
-0.829987
12
3.12
22
2.14
32
-0.37999
13
3.12
23
2.14
33
-0.37999
0
3DFACE
8
0
10
3.12
20
2.14
30
-0.37999
11
4.85999
21
2.7
31
-1.12
12
4.78
22
2.26999
32
-0.829987
13
4.78
23
2.26999
33
-0.829987
0
3DFACE
8
0
10
3.20999
20
2.46999
30
-0.669998
11
4.85999
21
2.7
31
-1.12
12
3.12
22
2.14
32
-0.37999
13
3.12
23
2.14
33
-0.37999
0
3DFACE
8
0
10
3.20999
20
2.46999
30
-0.669998
11
4.85999
21
2.7
31
-1.12
12
3.34999
22
2.74998
32
-1.09999
13
3.34999
23
2.74998
33
-1.09999
0
3DFACE
8
0
10
4.78
20
2.26999
30
-0.829987
11
5.95
21
2.34999
31
-1.12999
12
4.85999
22
2.7
32
-1.12
13
4.85999
23
2.7
33
-1.12
0
3DFACE
8
0
10
4.74998
20
1.95999
30
-0.689987
11
4.78
21
2.26999
31
-0.829987
12
5.95
22
2.34999
32
-1.12999
13
5.95
23
2.34999
33
-1.12999
0
3DFACE
8
0
10
5.95
20
2.34999
30
-1.12999
11
5.98
21
2.06
31
-1.03999
12
4.74998
22
1.95999
32
-0.689987
13
4.74998
23
1.95999
33
-0.689987
0
3DFACE
8
0
10
4.74998
20
1.95999
30
-0.689987
11
5.98
21
2.06
31
-1.03999
12
6.01999
22
1.03
32
-0.919998
13
6.01999
23
1.03
33
-0.919998
0
3DFACE
8
0
10
4.81
20
0.979996
30
-0.539993
11
6.01999
21
1.03
31
-0.919998
12
4.74998
22
1.95999
32
-0.689987
13
4.74998
23
1.95999
33
-0.689987
0
3DFACE
8
0
10
4.81
20
0.979996
30
-0.539993
11
4.82999
21
0.0899963
31
-0.539993
12
6.01999
22
1.03
32
-0.919998
13
6.01999
23
1.03
33
-0.919998
0
3DFACE
8
0
10
6.01999
20
1.03
30
-0.919998
11
6.03999
21
0.12999
31
-0.909988
12
4.82999
22
0.0899963
32
-0.539993
13
4.82999
23
0.0899963
33
-0.539993
0
3DFACE
8
0
10
-2.93999
20
2.37
30
-1.39
11
-1.73
21
2.48999
31
-1.03
12
-2.42999
22
2.84
32
-1.40999
13
-2.42999
23
2.84
33
-1.40999
0
3DFACE
8
0
10
-2.93999
20
2.37
30
-1.39
11
-1.92
21
1.96999
31
-0.929993
12
-1.73
22
2.48999
32
-1.03
13
-1.73
23
2.48999
33
-1.03
0
3DFACE
8
0
10
-1.73
20
2.48999
30
-1.03
11
-1.17999
21
1.7
31
-0.609985
12
-1.92
22
1.96999
32
-0.929993
13
-1.92
23
1.96999
33
-0.929993
0
3DFACE
8
0
10
-1.17999
20
1.7
30
-0.609985
11
-1.04999
21
2.21999
31
-0.709991
12
-1.73
22
2.48999
32
-1.03
13
-1.73
23
2.48999
33
-1.03
0
3DFACE
8
0
10
-1.17999
20
1.7
30
-0.609985
11
-0.0899963
21
1.84
31
-0.259995
12
-1.04999
22
2.21999
32
-0.709991
13
-1.04999
23
2.21999
33
-0.709991
0
3DFACE
8
0
10
-0.209991
20
1.39999
30
-0.219986
11
-0.0899963
21
1.84
31
-0.259995
12
-1.17999
22
1.7
32
-0.609985
13
-1.17999
23
1.7
33
-0.609985
0
3DFACE
8
0
10
-1.17999
20
1.7
30
-0.609985
11
-0.209991
21
1.39999
31
-0.219986
12
-0.289993
22
0.899994
32
-0.189987
13
-0.289993
23
0.899994
33
-0.189987
0
3DFACE
8
0
10
-1.17999
20
1.7
30
-0.609985
11
-0.289993
21
0.899994
31
-0.189987
12
-1.28
22
1.03
32
-0.529999
13
-1.28
23
1.03
33
-0.529999
0
3DFACE
8
0
10
-1.32999
20
-0.019989
30
-0.5
11
-0.289993
21
0.899994
31
-0.189987
12
-1.28
22
1.03
32
-0.529999
13
-1.28
23
1.03
33
-0.529999
0
3DFACE
8
0
10
-1.32999
20
-0.019989
30
-0.5
11
-0.339996
21
-0.00999451
31
-0.179993
12
-0.289993
22
0.899994
32
-0.189987
13
-0.289993
23
0.899994
33
-0.189987
0
3DFACE
8
0
10
-1.32999
20
-0.019989
30
-0.5
11
-0.249985
21
-0.919998
31
-0.219986
12
-0.339996
22
-0.00999451
32
-0.179993
13
-0.339996
23
-0.00999451
33
-0.179993
0
3DFACE
8
0
10
-1.32999
20
-0.019989
30
-0.5
11
-1.23999
21
-1.07999
31
-0.569992
12
-0.249985
22
-0.919998
32
-0.219986
13
-0.249985
23
-0.919998
33
-0.219986
0
3DFACE
8
0
10
-1.10999
20
-1.73
30
-0.659988
11
-0.249985
21
-0.919998
31
-0.219986
12
-1.23999
22
-1.07999
32
-0.569992
13
-1.23999
23
-1.07999
33
-0.569992
0
3DFACE
8
0
10
-1.10999
20
-1.73
30
-0.659988
11
-0.149994
21
-1.40999
31
-0.259995
12
-0.249985
22
-0.919998
32
-0.219986
13
-0.249985
23
-0.919998
33
-0.219986
0
3DFACE
8
0
10
-1.10999
20
-1.73
30
-0.659988
11
-0.00999451
21
-1.84999
31
-0.319992
12
-0.149994
22
-1.40999
32
-0.259995
13
-0.149994
23
-1.40999
33
-0.259995
0
3DFACE
8
0
10
-1.10999
20
-1.73
30
-0.659988
11
-0.959991
21
-2.24998
31
-0.779999
12
-0.00999451
22
-1.84999
32
-0.319992
13
-0.00999451
23
-1.84999
33
-0.319992
0
3DFACE
8
0
10
-2.93999
20
2.37
30
-1.39
11
-2.09999
21
1.09
31
-0.839996
12
-1.92
22
1.96999
32
-0.929993
13
-1.92
23
1.96999
33
-0.929993
0
3DFACE
8
0
10
-2.09999
20
1.09
30
-0.839996
11
-1.17999
21
1.7
31
-0.609985
12
-1.92
22
1.96999
32
-0.929993
13
-1.92
23
1.96999
33
-0.929993
0
3DFACE
8
0
10
-1.28
20
1.03
30
-0.529999
11
-1.17999
21
1.7
31
-0.609985
12
-2.09999
22
1.09
32
-0.839996
13
-2.09999
23
1.09
33
-0.839996
0
3DFACE
8
0
10
-3.23999
20
1.12999
30
-1.37999
11
-2.93999
21
2.37
31
-1.39
12
-2.09999
22
1.09
32
-0.839996
13
-2.09999
23
1.09
33
-0.839996
0
3DFACE
8
0
10
-3.26999
20
-0.0499878
30
-1.39999
11
-2.09999
21
1.09
31
-0.839996
12
-3.23999
22
1.12999
32
-1.37999
13
-3.23999
23
1.12999
33
-1.37999
0
3DFACE
8
0
10
-3.26999
20
-0.0499878
30
-1.39999
11
-2.15999
21
-0.0299988
31
-0.809998
12
-2.09999
22
1.09
32
-0.839996
13
-2.09999
23
1.09
33
-0.839996
0
3DFACE
8
0
10
-3.26999
20
-0.0499878
30
-1.39999
11
-2.04999
21
-1.15999
31
-0.869995
12
-2.15999
22
-0.0299988
32
-0.809998
13
-2.15999
23
-0.0299988
33
-0.809998
0
3DFACE
8
0
10
-3.26999
20
-0.0499878
30
-1.39999
11
-3.18999
21
-1.21999
31
-1.42
12
-2.04999
22
-1.15999
32
-0.869995
13
-2.04999
23
-1.15999
33
-0.869995
0
3DFACE
8
0
10
-2.84
20
-2.45
30
-1.46999
11
-2.04999
21
-1.15999
31
-0.869995
12
-3.18999
22
-1.21999
32
-1.42
13
-3.18999
23
-1.21999
33
-1.42
0
3DFACE
8
0
10
-2.84
20
-2.45
30
-1.46999
11
-1.84
21
-2.00999
31
-1
12
-2.04999
22
-1.15999
32
-0.869995
13
-2.04999
23
-1.15999
33
-0.869995
0
3DFACE
8
0
10
-2.84
20
-2.45
30
-1.46999
11
-1.62999
21
-2.53999
31
-1.12
12
-1.84
22
-2.00999
32
-1
13
-1.84
23
-2.00999
33
-1
0
3DFACE
8
0
10
-2.84
20
-2.45
30
-1.46999
11
-2.31
21
-2.89999
31
-1.50999
12
-1.62999
22
-2.53999
32
-1.12
13
-1.62999
23
-2.53999
33
-1.12
0
3DFACE
8
0
10
-1.62999
20
-2.53999
30
-1.12
11
-1.10999
21
-1.73
31
-0.659988
12
-0.959991
22
-2.24998
32
-0.779999
13
-0.959991
23
-2.24998
33
-0.779999
0
3DFACE
8
0
10
-1.84
20
-2.00999
30
-1
11
-1.10999
21
-1.73
31
-0.659988
12
-1.62999
22
-2.53999
32
-1.12
13
-1.62999
23
-2.53999
33
-1.12
0
3DFACE
8
0
10
-2.04999
20
-1.15999
30
-0.869995
11
-1.10999
21
-1.73
31
-0.659988
12
-1.84
22
-2.00999
32
-1
13
-1.84
23
-2.00999
33
-1
0
3DFACE
8
0
10
-1.23999
20
-1.07999
30
-0.569992
11
-1.10999
21
-1.73
31
-0.659988
12
-2.04999
22
-1.15999
32
-0.869995
13
-2.04999
23
-1.15999
33
-0.869995
0
3DFACE
8
0
10
-2.04999
20
-1.15999
30
-0.869995
11
-1.32999
21
-0.019989
31
-0.5
12
-1.23999
22
-1.07999
32
-0.569992
13
-1.23999
23
-1.07999
33
-0.569992
0
3DFACE
8
0
10
-2.15999
20
-0.0299988
30
-0.809998
11
-1.32999
21
-0.019989
31
-0.5
12
-2.04999
22
-1.15999
32
-0.869995
13
-2.04999
23
-1.15999
33
-0.869995
0
3DFACE
8
0
10
-2.09999
20
1.09
30
-0.839996
11
-1.32999
21
-0.019989
31
-0.5
12
-2.15999
22
-0.0299988
32
-0.809998
13
-2.15999
23
-0.0299988
33
-0.809998
0
3DFACE
8
0
10
-1.32999
20
-0.019989
30
-0.5
11
-1.28
21
1.03
31
-0.529999
12
-2.09999
22
1.09
32
-0.839996
13
-2.09999
23
1.09
33
-0.839996
0
3DFACE
8
0
10
-2.93999
20
-3.34
30
-2.40999
11
-2.90999
21
-3.29999
31
-2.89
12
-2.67999
22
-3.32999
32
-2.40999
13
-2.67999
23
-3.32999
33
-2.40999
0
3DFACE
8
0
10
-2.67999
20
-3.32999
30
-2.40999
11
-2.64
21
-3.28999
31
-2.89
12
-2.90999
22
-3.29999
32
-2.89
13
-2.90999
23
-3.29999
33
-2.89
0
3DFACE
8
0
10
-2.90999
20
-3.29999
30
-2.89
11
-2.64
21
-3.28999
31
-2.89
12
-2.59
22
-3.12999
32
-3.25999
13
-2.59
23
-3.12999
33
-3.25999
0
3DFACE
8
0
10
-2.89
20
-3.14999
30
-3.25999
11
-2.59
21
-3.12999
31
-3.25999
12
-2.90999
22
-3.29999
32
-2.89
13
-2.90999
23
-3.29999
33
-2.89
0
3DFACE
8
0
10
-2.90999
20
-3.29999
30
-2.89
11
-2.89
21
-3.14999
31
-3.25999
12
-3.17999
22
-3.15999
32
-3.23
13
-3.17999
23
-3.15999
33
-3.23
0
3DFACE
8
0
10
-3.21999
20
-3.24998
30
-2.89999
11
-3.17999
21
-3.15999
31
-3.23
12
-2.90999
22
-3.29999
32
-2.89
13
-2.90999
23
-3.29999
33
-2.89
0
3DFACE
8
0
10
-2.93999
20
-3.34
30
-2.40999
11
-2.90999
21
-3.29999
31
-2.89
12
-3.21999
22
-3.24998
32
-2.89999
13
-3.21999
23
-3.24998
33
-2.89999
0
3DFACE
8
0
10
-3.23
20
-3.31
30
-2.51999
11
-3.21999
21
-3.24998
31
-2.89999
12
-2.93999
22
-3.34
32
-2.40999
13
-2.93999
23
-3.34
33
-2.40999
0
3DFACE
8
0
10
-3.59
20
-3.32999
30
-2.5
11
-3.29999
21
-3.35999
31
-2.40999
12
-3.24998
22
-3.31
32
-2.89999
13
-3.24998
23
-3.31
33
-2.89999
0
3DFACE
8
0
10
-3.57999
20
-3.25999
30
-2.87999
11
-3.24998
21
-3.31
31
-2.89999
12
-3.59
22
-3.32999
32
-2.5
13
-3.59
23
-3.32999
33
-2.5
0
3DFACE
8
0
10
-3.57999
20
-3.25999
30
-2.87999
11
-3.24998
21
-3.31
31
-2.89999
12
-3.5
22
-3.15999
32
-3.24998
13
-3.5
23
-3.15999
33
-3.24998
0
3DFACE
8
0
10
-3.5
20
-3.15999
30
-3.24998
11
-3.24998
21
-3.31
31
-2.89999
12
-3.20999
22
-3.17
32
-3.26999
13
-3.20999
23
-3.17
33
-3.26999
0
3DFACE
8
0
10
-3.07999
20
3.28999
30
-2.29999
11
-2.81999
21
3.28999
31
-2.29999
12
-3.04999
22
3.26999
32
-2.78
13
-3.04999
23
3.26999
33
-2.78
0
3DFACE
8
0
10
-3.04999
20
3.26999
30
-2.78
11
-2.78
21
3.26999
31
-2.78
12
-2.81999
22
3.28999
32
-2.29999
13
-2.81999
23
3.28999
33
-2.29999
0
3DFACE
8
0
10
-2.78
20
3.26999
30
-2.78
11
-2.71999
21
3.12
31
-3.15999
12
-3.04999
22
3.26999
32
-2.78
13
-3.04999
23
3.26999
33
-2.78
0
3DFACE
8
0
10
-3.04999
20
3.26999
30
-2.78
11
-3.01999
21
3.12999
31
-3.14999
12
-2.71999
22
3.12
32
-3.15999
13
-2.71999
23
3.12
33
-3.15999
0
3DFACE
8
0
10
-3.31
20
3.12999
30
-3.12
11
-3.01999
21
3.12999
31
-3.14999
12
-3.04999
22
3.26999
32
-2.78
13
-3.04999
23
3.26999
33
-2.78
0
3DFACE
8
0
10
-3.34999
20
3.2
30
-2.78999
11
-3.04999
21
3.26999
31
-2.78
12
-3.31
22
3.12999
32
-3.12
13
-3.31
23
3.12999
33
-3.12
0
3DFACE
8
0
10
-3.34999
20
3.2
30
-2.78999
11
-3.04999
21
3.26999
31
-2.78
12
-3.07999
22
3.28999
32
-2.29999
13
-3.07999
23
3.28999
33
-2.29999
0
3DFACE
8
0
10
-3.37
20
3.24998
30
-2.40999
11
-3.07999
21
3.28999
31
-2.29999
12
-3.34999
22
3.2
32
-2.78999
13
-3.34999
23
3.2
33
-2.78999
0
3DFACE
8
0
10
-3.43999
20
3.28999
30
-2.29999
11
-3.39
21
3.25999
31
-2.78999
12
-3.73
22
3.25999
32
-2.39
13
-3.73
23
3.25999
33
-2.39
0
3DFACE
8
0
10
-3.73
20
3.25999
30
-2.39
11
-3.70999
21
3.2
31
-2.76999
12
-3.39
22
3.25999
32
-2.78999
13
-3.39
23
3.25999
33
-2.78999
0
3DFACE
8
0
10
-3.62999
20
3.12
30
-3.14
11
-3.39
21
3.25999
31
-2.78999
12
-3.70999
22
3.2
32
-2.76999
13
-3.70999
23
3.2
33
-2.76999
0
3DFACE
8
0
10
-3.39
20
3.25999
30
-2.78999
11
-3.34
21
3.14
31
-3.15999
12
-3.62999
22
3.12
32
-3.14
13
-3.62999
23
3.12
33
-3.14
0
3DFACE
8
0
10
-3.43999
20
3.28999
30
-2.29999
11
-3.07999
21
3.28999
31
-2.29999
12
-3.37
22
3.24998
32
-2.40999
13
-3.37
23
3.24998
33
-2.40999
0
3DFACE
8
0
10
-2.93999
20
2.37
30
-1.39
11
-2.92999
21
2.39999
31
-1.31
12
-3.28
22
1.17
32
-1.25999
13
-3.28
23
1.17
33
-1.25999
0
3DFACE
8
0
10
-3.29999
20
1.01999
30
-1.20999
11
-3.23999
21
1.12999
31
-1.37999
12
-3.28
22
1.17
32
-1.25999
13
-3.28
23
1.17
33
-1.25999
0
3DFACE
8
0
10
-3.31
20
-0.0499878
30
-1.18999
11
-3.29999
21
1.01999
31
-1.20999
12
-3.26999
22
-0.0499878
32
-1.39999
13
-3.26999
23
-0.0499878
33
-1.39999
0
3DFACE
8
0
10
-3.24998
20
-1.12
30
-1.23999
11
-3.18999
21
-1.21999
31
-1.42
12
-3.26999
22
-0.0499878
32
-1.39999
13
-3.26999
23
-0.0499878
33
-1.39999
0
3DFACE
8
0
10
-3.24998
20
-1.12
30
-1.23999
11
-3.18999
21
-1.21999
31
-1.42
12
-3.23
22
-1.26999
32
-1.29999
13
-3.23
23
-1.26999
33
-1.29999
0
3DFACE
8
0
10
-3.23
20
-1.26999
30
-1.29999
11
-2.84
21
-2.45
31
-1.46999
12
-2.82999
22
-2.48
32
-1.39
13
-2.82999
23
-2.48
33
-1.39
0
3DFACE
8
0
10
-0.199997
20
1.39
30
-0.0899963
11
-0.0899963
21
1.84
31
-0.259995
12
-0.0599976
22
1.85999
32
-0.119995
13
-0.0599976
23
1.85999
33
-0.119995
0
3DFACE
8
0
10
-0.289993
20
0.899994
30
-0.189987
11
-0.199997
21
1.39
31
-0.0899963
12
-0.209991
22
1.39999
32
-0.219986
13
-0.209991
23
1.39999
33
-0.219986
0
3DFACE
8
0
10
-0.339996
20
-0.00999451
30
-0.179993
11
-0.289993
21
0.869995
31
-0.0699921
12
-0.289993
22
0.899994
32
-0.189987
13
-0.289993
23
0.899994
33
-0.189987
0
3DFACE
8
0
10
-0.339996
20
-0.00999451
30
-0.0699921
11
-0.249985
21
-0.889999
31
-0.0999908
12
-0.339996
22
-0.00999451
32
-0.179993
13
-0.339996
23
-0.00999451
33
-0.179993
0
3DFACE
8
0
10
-0.249985
20
-0.919998
30
-0.219986
11
-0.139999
21
-1.40999
31
-0.139999
12
-0.249985
22
-0.889999
32
-0.0999908
13
-0.249985
23
-0.889999
33
-0.0999908
0
3DFACE
8
0
10
-0.00999451
20
-1.84999
30
-0.319992
11
0.00999451
21
-1.87
31
-0.179993
12
-0.139999
22
-1.40999
32
-0.139999
13
-0.139999
23
-1.40999
33
-0.139999
0
3DFACE
8
0
10
0.0599976
20
-1.32999
30
-0.0799866
11
0.0999908
21
-1.34
31
-0.199997
12
0.259995
22
-1.98999
32
-0.169998
13
0.259995
23
-1.98999
33
-0.169998
0
3DFACE
8
0
10
-0.019989
20
-0.889999
30
-0.0299988
11
-0.00999451
21
-0.87999
31
-0.159988
12
0.0599976
22
-1.32999
32
-0.0799866
13
0.0599976
23
-1.32999
33
-0.0799866
0
3DFACE
8
0
10
-0.0799866
20
-0.409988
30
-0.00999451
11
-0.0599976
21
-0.459991
31
-0.12999
12
-0.019989
22
-0.889999
32
-0.0299988
13
-0.019989
23
-0.889999
33
-0.0299988
0
3DFACE
8
0
10
0
20
-0.259995
30
-0.0299988
11
0.00999451
21
-0.309998
31
-0.149994
12
-0.0799866
22
-0.409988
32
-0.00999451
13
-0.0799866
23
-0.409988
33
-0.00999451
0
3DFACE
8
0
10
0.00999451
20
-0.309998
30
-0.149994
11
2.45999
21
-0.219986
31
0
12
2.45999
22
-0.249985
32
-0.139999
13
2.45999
23
-0.249985
33
-0.139999
0
3DFACE
8
0
10
-0.00999451
20
0.249985
30
-0.0299988
11
2.45
21
0.339996
31
-0.139999
12
0
22
0.299988
32
-0.139999
13
0
23
0.299988
33
-0.139999
0
3DFACE
8
0
10
-0.0999908
20
0.389999
30
0.00999451
11
0
21
0.299988
31
-0.139999
12
-0.00999451
22
0.249985
32
-0.0299988
13
-0.00999451
23
0.249985
33
-0.0299988
0
3DFACE
8
0
10
-0.0799866
20
0.449997
30
-0.119995
11
-0.0599976
21
0.869995
31
-0.00999451
12
-0.0999908
22
0.389999
32
0.00999451
13
-0.0999908
23
0.389999
33
0.00999451
0
3DFACE
8
0
10
-0.0399933
20
0.869995
30
-0.12999
11
0.00999451
21
1.31999
31
-0.0299988
12
-0.0599976
22
0.869995
32
-0.00999451
13
-0.0599976
23
0.869995
33
-0.00999451
0
3DFACE
8
0
10
0.0499878
20
1.34
30
-0.159988
11
0.189987
21
1.98999
31
-0.0999908
12
0.00999451
22
1.31999
32
-0.0299988
13
0.00999451
23
1.31999
33
-0.0299988
0
3DFACE
8
0
10
3.32999
20
-2.39999
30
-0.689987
11
3.5
21
-2.59
31
-1.17999
12
3.34
22
-2.32999
32
-0.719986
13
3.34
23
-2.32999
33
-0.719986
0
3DFACE
8
0
10
3.21999
20
-2.06
30
-0.389999
11
3.34
21
-2.32999
31
-0.719986
12
3.23
22
-2.01999
32
-0.439987
13
3.23
23
-2.01999
33
-0.439987
0
3DFACE
8
0
10
3.17
20
-1.70999
30
-0.289993
11
3.23
21
-2.01999
31
-0.439987
12
3.14999
22
-1.74998
32
-0.219986
13
3.14999
23
-1.74998
33
-0.219986
0
3DFACE
8
0
10
3.09999
20
-0.779999
30
-0.149994
11
3.17
21
-1.70999
31
-0.289993
12
3.07999
22
-0.799988
32
-0.0799866
13
3.07999
23
-0.799988
33
-0.0799866
0
3DFACE
8
0
10
3.04999
20
0.0399933
30
-0.0499878
11
3.07999
21
-0.799988
31
-0.0799866
12
3.09999
22
-0.779999
32
-0.149994
13
3.09999
23
-0.779999
33
-0.149994
0
3DFACE
8
0
10
3.04999
20
0.0399933
30
-0.0499878
11
3.04999
21
0.909988
31
-0.119995
12
3.03
22
0.909988
32
-0.0599976
13
3.03
23
0.909988
33
-0.0599976
0
3DFACE
8
0
10
3.03
20
0.909988
30
-0.0599976
11
3.06999
21
1.84
31
-0.23999
12
3.04999
22
0.909988
32
-0.119995
13
3.04999
23
0.909988
33
-0.119995
0
3DFACE
8
0
10
3.04999
20
1.87
30
-0.169998
11
3.12
21
2.14
31
-0.37999
12
3.06999
22
1.84
32
-0.23999
13
3.06999
23
1.84
33
-0.23999
0
3DFACE
8
0
10
3.09999
20
2.17999
30
-0.329987
11
3.12
21
2.14
31
-0.37999
12
3.20999
22
2.46999
32
-0.669998
13
3.20999
23
2.46999
33
-0.669998
0
3DFACE
8
0
10
3.18999
20
2.53
30
-0.619995
11
3.20999
21
2.46999
31
-0.669998
12
3.34999
22
2.74998
32
-1.09999
13
3.34999
23
2.74998
33
-1.09999
0
3DFACE
8
0
10
-9.12
20
-2.23999
30
-3.34
11
-9.06999
21
-2.15999
31
-3.31999
12
-9.34999
22
-1.17999
32
-3.31999
13
-9.34999
23
-1.17999
33
-3.31999
0
3DFACE
8
0
10
-9.34999
20
-1.17999
30
-3.31999
11
-9.26999
21
-1.15999
31
-3.28
12
-9.06999
22
-2.15999
32
-3.31999
13
-9.06999
23
-2.15999
33
-3.31999
0
3DFACE
8
0
10
-9.34
20
-0.829987
30
-3.25999
11
-9.26999
21
-1.15999
31
-3.28
12
-9.34999
22
-1.17999
32
-3.31999
13
-9.34999
23
-1.17999
33
-3.31999
0
3DFACE
8
0
10
-9.42
20
-0.829987
30
-3.28999
11
-9.34999
21
-1.17999
31
-3.31999
12
-9.34
22
-0.829987
32
-3.25999
13
-9.34
23
-0.829987
33
-3.25999
0
3DFACE
8
0
10
-9.45
20
0.559998
30
-3.26999
11
-9.37
21
0.559998
31
-3.23999
12
-9.39999
22
0.909988
32
-3.28999
13
-9.39999
23
0.909988
33
-3.28999
0
3DFACE
8
0
10
-9.39999
20
0.909988
30
-3.28999
11
-9.31999
21
0.889999
31
-3.24998
12
-9.37
22
0.559998
32
-3.23999
13
-9.37
23
0.559998
33
-3.23999
0
3DFACE
8
0
10
-9.31999
20
0.889999
30
-3.24998
11
-9.15999
21
1.89999
31
-3.24998
12
-9.39999
22
0.909988
32
-3.28999
13
-9.39999
23
0.909988
33
-3.28999
0
3DFACE
8
0
10
-9.39999
20
0.909988
30
-3.28999
11
-9.20999
21
1.98
31
-3.26999
12
-9.15999
22
1.89999
32
-3.24998
13
-9.15999
23
1.89999
33
-3.24998
0
3DFACE
8
0
10
-9.48999
20
-0.709991
30
-3.50999
11
-9.42
21
-0.649994
31
-3.46999
12
-9.50999
22
-0.12999
32
-3.5
13
-9.50999
23
-0.12999
33
-3.5
0
3DFACE
8
0
10
-9.50999
20
-0.12999
30
-3.5
11
-9.43999
21
-0.12999
31
-3.45999
12
-9.42
22
-0.649994
32
-3.46999
13
-9.42
23
-0.649994
33
-3.46999
0
3DFACE
8
0
10
-9.45
20
0.37999
30
-3.45999
11
-9.43999
21
-0.12999
31
-3.45999
12
-9.50999
22
-0.12999
32
-3.5
13
-9.50999
23
-0.12999
33
-3.5
0
3DFACE
8
0
10
-9.51999
20
0.439987
30
-3.48999
11
-9.50999
21
-0.12999
31
-3.5
12
-9.45
22
0.37999
32
-3.45999
13
-9.45
23
0.37999
33
-3.45999
0
3DFACE
8
0
10
7.62
20
0.889999
30
-2.73
11
7.62999
21
0.179993
31
-2.71999
12
7.81
22
0.979996
32
-2.78999
13
7.81
23
0.979996
33
-2.78999
0
3DFACE
8
0
10
7.81
20
0.189987
30
-2.79999
11
7.81
21
0.979996
31
-2.78999
12
7.62999
22
0.179993
32
-2.71999
13
7.62999
23
0.179993
33
-2.71999
0
3DFACE
8
0
10
7.62999
20
0.179993
30
-2.71999
11
7.81
21
0.189987
31
-2.79999
12
7.84
22
-0.589996
32
-2.81
13
7.84
23
-0.589996
33
-2.81
0
3DFACE
8
0
10
7.64
20
-0.509995
30
-2.74998
11
7.84
21
-0.589996
31
-2.81
12
7.62999
22
0.179993
32
-2.71999
13
7.62999
23
0.179993
33
-2.71999
0
3DFACE
8
0
10
-3.65999
20
-3.35999
30
-2.42
11
-3.29999
21
-3.35999
31
-2.40999
12
-3.59
22
-3.32999
32
-2.5
13
-3.59
23
-3.32999
33
-2.5
0
3DFACE
8
0
10
-3.20999
20
-3.17
30
-3.26999
11
-2.89
21
-3.14999
31
-3.25999
12
-3.17999
22
-3.15999
32
-3.23
13
-3.17999
23
-3.15999
33
-3.23
0
3DFACE
8
0
10
1.53999
20
-2.96999
30
-1.64
11
1.98999
21
-3
31
-1.82999
12
1.53
22
-3
32
-1.81999
13
1.53
23
-3
33
-1.81999
0
3DFACE
8
0
10
1.40999
20
3.10999
30
-1.71999
11
1.87
21
3.09
31
-1.54999
12
1.87
22
3.12
32
-1.73
13
1.87
23
3.12
33
-1.73
0
3DFACE
8
0
10
-3.34
20
3.14
30
-3.15999
11
-3.31
21
3.12999
31
-3.12
12
-3.01999
22
3.12999
32
-3.14999
13
-3.01999
23
3.12999
33
-3.14999
0
3DFACE
8
0
10
-3.73
20
3.25999
30
-2.39
11
-3.43999
21
3.28999
31
-2.29999
12
-3.79999
22
3.28
32
-2.31
13
-3.79999
23
3.28
33
-2.31
0
3DFACE
8
0
10
-2.21999
20
-2.92999
30
-1.42999
11
-1.62999
21
-2.53999
31
-1.12
12
-1.59
22
-2.57999
32
-1
13
-1.59
23
-2.57999
33
-1
0
3DFACE
8
0
10
-1.62999
20
-2.53999
30
-1.12
11
-0.959991
21
-2.24998
31
-0.779999
12
-1.59
22
-2.57999
32
-1
13
-1.59
23
-2.57999
33
-1
0
3DFACE
8
0
10
-0.959991
20
-2.24998
30
-0.779999
11
-0.00999451
21
-1.84999
31
-0.319992
12
-1.00999
22
-2.31999
32
-0.689987
13
-1.00999
23
-2.31999
33
-0.689987
0
3DFACE
8
0
10
-1.73
20
2.48999
30
-1.03
11
-1.7
21
2.53
31
-0.919998
12
-2.42999
22
2.84
32
-1.40999
13
-2.42999
23
2.84
33
-1.40999
0
3DFACE
8
0
10
-1.10999
20
2.28999
30
-0.609985
11
-1.04999
21
2.21999
31
-0.709991
12
-1.7
22
2.53
32
-0.919998
13
-1.7
23
2.53
33
-0.919998
0
3DFACE
8
0
10
-0.0899963
20
1.84
30
-0.259995
11
-0.0599976
21
1.85999
31
-0.119995
12
-1.10999
22
2.28999
32
-0.609985
13
-1.10999
23
2.28999
33
-0.609985
0
3DFACE
8
0
10
2.31
20
-2.71999
30
-1.31999
11
2.35999
21
-2.31
31
-0.719986
12
2.31
22
-2.64
32
-1.31
13
2.31
23
-2.64
33
-1.31
0
3DFACE
8
0
10
2.37
20
-2.37999
30
-0.62999
11
2.39
21
-2.00999
31
-0.439987
12
2.35999
22
-2.31
32
-0.719986
13
2.35999
23
-2.31
33
-0.719986
0
3DFACE
8
0
10
2.39999
20
-2.03
30
-0.299988
11
2.40999
21
-1.67
31
-0.259995
12
2.39
22
-2.00999
32
-0.439987
13
2.39
23
-2.00999
33
-0.439987
0
3DFACE
8
0
10
2.42999
20
-1.67999
30
-0.139999
11
2.45
21
-0.759995
31
-0.119995
12
2.40999
22
-1.67
32
-0.259995
13
2.40999
23
-1.67
33
-0.259995
0
3DFACE
8
0
10
2.45999
20
-0.779999
30
0
11
2.45999
21
-0.249985
31
-0.139999
12
2.45
22
-0.759995
32
-0.119995
13
2.45
23
-0.759995
33
-0.119995
0
3DFACE
8
0
10
2.42
20
0.849991
30
-0.0999908
11
2.42999
21
0.859985
31
0.019989
12
2.45
22
0.339996
32
-0.139999
13
2.45
23
0.339996
33
-0.139999
0
3DFACE
8
0
10
2.34999
20
1.75999
30
-0.199997
11
2.35999
21
1.74998
31
-0.0799866
12
2.42
22
0.849991
32
-0.0999908
13
2.42
23
0.849991
33
-0.0999908
0
3DFACE
8
0
10
2.31
20
2.09999
30
-0.369995
11
2.32999
21
2.10999
31
-0.229996
12
2.34999
22
1.75999
32
-0.199997
13
2.34999
23
1.75999
33
-0.199997
0
3DFACE
8
0
10
2.26999
20
2.40999
30
-0.639999
11
2.28
21
2.48
31
-0.539993
12
2.31
22
2.09999
32
-0.369995
13
2.31
23
2.09999
33
-0.369995
0
3DFACE
8
0
10
2.2
20
2.84
30
-1.23
11
2.20999
21
2.74998
31
-1.23
12
2.26999
22
2.40999
32
-0.639999
13
2.26999
23
2.40999
33
-0.639999
0
3DFACE
8
0
10
-1.39
20
2.64
30
-0.939987
11
-1.26999
21
2.59999
31
-1.04999
12
-1.93999
22
2.89999
32
-1.31999
13
-1.93999
23
2.89999
33
-1.31999
0
3DFACE
8
0
10
-1.39
20
2.64
30
-0.939987
11
-1.26999
21
2.59999
31
-1.04999
12
0.189987
22
1.98999
32
-0.0999908
13
0.189987
23
1.98999
33
-0.0999908
0
3DFACE
8
0
10
-1.81999
20
-2.93999
30
-1.42
11
-1.28
21
-2.67
31
-1.03
12
-1.15999
22
-2.62
32
-1.14
13
-1.15999
23
-2.62
33
-1.14
0
3DFACE
8
0
10
-1.15999
20
-2.62
30
-1.14
11
0.259995
21
-1.98999
31
-0.169998
12
-1.28
22
-2.67
32
-1.03
13
-1.28
23
-2.67
33
-1.03
0
3DFACE
8
0
10
-3.56999
20
-3.20999
30
-3.26999
11
-3.20999
21
-3.17
31
-3.26999
12
-3.5
22
-3.15999
32
-3.24998
13
-3.5
23
-3.15999
33
-3.24998
0
3DFACE
8
0
10
-3.29999
20
-3.35999
30
-2.40999
11
-3.23
21
-3.31
31
-2.51999
12
-2.93999
22
-3.34
32
-2.40999
13
-2.93999
23
-3.34
33
-2.40999
0
3DFACE
8
0
10
1.53999
20
-2.96999
30
-1.64
11
2.06
21
-2.95999
31
-1.54999
12
1.42999
22
-2.95999
32
-1.53999
13
1.42999
23
-2.95999
33
-1.53999
0
3DFACE
8
0
10
1.98999
20
-3
30
-1.82999
11
2.06
21
-3.06
31
-1.85999
12
1.53
22
-3
32
-1.81999
13
1.53
23
-3
33
-1.81999
0
3DFACE
8
0
10
-1.15999
20
-2.62
30
-1.14
11
-1.14
21
-2.82999
31
-1.14999
12
-1.81999
22
-2.93999
32
-1.42
13
-1.81999
23
-2.93999
33
-1.42
0
3DFACE
8
0
10
-1.81999
20
-2.93999
30
-1.42
11
-1.14
21
-2.82999
31
-1.14999
12
-1.12
22
-2.95999
32
-1.25999
13
-1.12
23
-2.95999
33
-1.25999
0
3DFACE
8
0
10
-1.12
20
-2.95999
30
-1.25999
11
-1.03
21
-2.96999
31
-1.42999
12
-1.81999
22
-2.93999
32
-1.42
13
-1.81999
23
-2.93999
33
-1.42
0
3DFACE
8
0
10
7.73
20
-0.549988
30
-2.10999
11
7.84
21
-0.589996
31
-2.81
12
7.76999
22
-0.679993
32
-2.00999
13
7.76999
23
-0.679993
33
-2.00999
0
3DFACE
8
0
10
7.73999
20
1.03999
30
-1.98
11
7.81
21
0.979996
31
-2.78999
12
7.70999
22
0.919998
32
-2.09
13
7.70999
23
0.919998
33
-2.09
0
3DFACE
8
0
10
1.31999
20
3.04999
30
-1.43999
11
1.42
21
3.06999
31
-1.53999
12
1.93999
22
3.07999
32
-1.45
13
1.93999
23
3.07999
33
-1.45
0
3DFACE
8
0
10
1.40999
20
3.10999
30
-1.71999
11
1.93999
21
3.18999
31
-1.75999
12
1.87
22
3.12
32
-1.73
13
1.87
23
3.12
33
-1.73
0
3DFACE
8
0
10
-1.93999
20
2.89999
30
-1.31999
11
-1.25999
21
2.81
31
-1.06
12
-1.26999
22
2.59999
32
-1.04999
13
-1.26999
23
2.59999
33
-1.04999
0
3DFACE
8
0
10
-1.25999
20
2.81
30
-1.06
11
-1.23999
21
2.93999
31
-1.15999
12
-1.93999
22
2.89999
32
-1.31999
13
-1.93999
23
2.89999
33
-1.31999
0
3DFACE
8
0
10
-1.93999
20
2.89999
30
-1.31999
11
-1.14999
21
2.95999
31
-1.32999
12
-1.23999
22
2.93999
32
-1.15999
13
-1.23999
23
2.93999
33
-1.15999
0
3DFACE
8
0
10
-3.7
20
3.15999
30
-3.15999
11
-3.62999
21
3.12
31
-3.14
12
-3.34
22
3.14
32
-3.15999
13
-3.34
23
3.14
33
-3.15999
0
3DFACE
8
0
10
-3.37
20
3.24998
30
-2.40999
11
-3.34999
21
3.2
31
-2.78999
12
-3.43999
22
3.28999
32
-2.29999
13
-3.43999
23
3.28999
33
-2.29999
0
3DFACE
8
0
10
-3.43999
20
3.28999
30
-2.29999
11
-3.39
21
3.25999
31
-2.78999
12
-3.34999
22
3.2
32
-2.78999
13
-3.34999
23
3.2
33
-2.78999
0
3DFACE
8
0
10
-3.34999
20
3.2
30
-2.78999
11
-3.31
21
3.12999
31
-3.12
12
-3.39
22
3.25999
32
-2.78999
13
-3.39
23
3.25999
33
-2.78999
0
3DFACE
8
0
10
-3.39
20
3.25999
30
-2.78999
11
-3.34
21
3.14
31
-3.15999
12
-3.31
22
3.12999
32
-3.12
13
-3.31
23
3.12999
33
-3.12
0
3DFACE
8
0
10
-9.20999
20
1.98
30
-3.26999
11
-9.15999
21
1.89999
31
-3.24998
12
-9.09
22
2.12999
32
-2.79999
13
-9.09
23
2.12999
33
-2.79999
0
3DFACE
8
0
10
-9.45
20
0.559998
30
-3.26999
11
-9.31999
21
0.449997
31
-2.79999
12
-9.37
22
0.559998
32
-3.23999
13
-9.37
23
0.559998
33
-3.23999
0
3DFACE
8
0
10
-9.42
20
-0.829987
30
-3.28999
11
-9.34
21
-0.829987
31
-3.25999
12
-9.28999
22
-0.73999
32
-2.81999
13
-9.28999
23
-0.73999
33
-2.81999
0
3DFACE
8
0
10
-9.12
20
-2.23999
30
-3.34
11
-8.98999
21
-2.39999
31
-2.87
12
-9.06999
22
-2.15999
32
-3.31999
13
-9.06999
23
-2.15999
33
-3.31999
0
3DFACE
8
0
10
-7.20999
20
-0.119995
30
-1.73999
11
-6.07999
21
-0.0999908
31
-1.45
12
-6.12
22
-0.0299988
32
-1.43999
13
-6.12
23
-0.0299988
33
-1.43999
0
3DFACE
8
0
10
-6.07999
20
-0.0999908
30
-1.45
11
-4.96999
21
-0.00999451
31
-1.26999
12
-6.12
22
-0.0299988
32
-1.43999
13
-6.12
23
-0.0299988
33
-1.43999
0
3DFACE
8
0
10
-4.00999
20
-0.0599976
30
-1.28
11
-3.85999
21
0.019989
31
-1.20999
12
-4.96999
22
-0.00999451
32
-1.26999
13
-4.96999
23
-0.00999451
33
-1.26999
0
3DFACE
8
0
10
-6.07999
20
-1.31999
30
-1.54999
11
-6.07999
21
-1.20999
31
-1.51999
12
-7.14999
22
-1.26999
32
-1.81
13
-7.14999
23
-1.26999
33
-1.81
0
3DFACE
8
0
10
-6.07999
20
-1.31999
30
-1.54999
11
-4.95
21
-1.21999
31
-1.34
12
-6.07999
22
-1.20999
32
-1.51999
13
-6.07999
23
-1.20999
33
-1.51999
0
3DFACE
8
0
10
-4.92
20
-1.34
30
-1.39999
11
-3.81
21
-1.18999
31
-1.26999
12
-4.95
22
-1.21999
32
-1.34
13
-4.95
23
-1.21999
33
-1.34
0
3DFACE
8
0
10
-3.24998
20
-1.12
30
-1.23999
11
-3.23
21
-1.26999
31
-1.29999
12
-3.81
22
-1.18999
32
-1.26999
13
-3.81
23
-1.18999
33
-1.26999
0
3DFACE
8
0
10
-3.65999
20
-3.35999
30
-2.42
11
-3.62
21
-3.34
31
-2.87999
12
-3.59
22
-3.32999
32
-2.5
13
-3.59
23
-3.32999
33
-2.5
0
3DFACE
8
0
10
-3.59
20
-3.32999
30
-2.5
11
-3.57999
21
-3.25999
31
-2.87999
12
-3.62
22
-3.34
32
-2.87999
13
-3.62
23
-3.34
33
-2.87999
0
3DFACE
8
0
10
-3.62
20
-3.34
30
-2.87999
11
-3.57999
21
-3.25999
31
-2.87999
12
-3.5
22
-3.15999
32
-3.24998
13
-3.5
23
-3.15999
33
-3.24998
0
3DFACE
8
0
10
-3.56999
20
-3.20999
30
-3.26999
11
-3.5
21
-3.15999
31
-3.24998
12
-3.62
22
-3.34
32
-2.87999
13
-3.62
23
-3.34
33
-2.87999
0
3DFACE
8
0
10
-3.29999
20
-3.35999
30
-2.40999
11
-3.23
21
-3.31
31
-2.51999
12
-3.21999
22
-3.24998
32
-2.89999
13
-3.21999
23
-3.24998
33
-2.89999
0
3DFACE
8
0
10
-3.20999
20
-3.17
30
-3.26999
11
-3.17999
21
-3.15999
31
-3.23
12
-3.24998
22
-3.31
32
-2.89999
13
-3.24998
23
-3.31
33
-2.89999
0
3DFACE
8
0
10
-3.24998
20
-3.31
30
-2.89999
11
-3.21999
21
-3.24998
31
-2.89999
12
-3.29999
22
-3.35999
32
-2.40999
13
-3.29999
23
-3.35999
33
-2.40999
0
3DFACE
8
0
10
-3.24998
20
-3.31
30
-2.89999
11
-3.21999
21
-3.24998
31
-2.89999
12
-3.17999
22
-3.15999
32
-3.23
13
-3.17999
23
-3.15999
33
-3.23
0
3DFACE
8
0
10
1.43999
20
-3.07999
30
-1.87999
11
1.53999
21
-2.96999
31
-1.64
12
1.42999
22
-2.95999
32
-1.53999
13
1.42999
23
-2.95999
33
-1.53999
0
3DFACE
8
0
10
2.06
20
-3.06
30
-1.85999
11
2.06
21
-2.95999
31
-1.54999
12
1.98999
22
-2.96999
32
-1.64999
13
1.98999
23
-2.96999
33
-1.64999
0
3DFACE
8
0
10
1.87
20
3.12
30
-1.73
11
1.93999
21
3.18999
31
-1.75999
12
1.87
22
3.09
32
-1.54999
13
1.87
23
3.09
33
-1.54999
0
3DFACE
8
0
10
1.31999
20
3.04999
30
-1.43999
11
1.31999
21
3.17999
31
-1.76999
12
1.42
22
3.06999
32
-1.53999
13
1.42
23
3.06999
33
-1.53999
0
3DFACE
8
0
10
-3.79999
20
3.28
30
-2.31
11
-3.73
21
3.25999
31
-2.39
12
-3.75999
22
3.28
32
-2.76999
13
-3.75999
23
3.28
33
-2.76999
0
3DFACE
8
0
10
-3.75999
20
3.28
30
-2.76999
11
-3.70999
21
3.2
31
-2.76999
12
-3.73
22
3.25999
32
-2.39
13
-3.73
23
3.25999
33
-2.39
0
3DFACE
8
0
10
-3.75999
20
3.28
30
-2.76999
11
-3.7
21
3.15999
31
-3.15999
12
-3.62999
22
3.12
32
-3.14
13
-3.62999
23
3.12
33
-3.14
0
3DFACE
8
0
10
-3.70999
20
3.2
30
-2.76999
11
-3.62999
21
3.12
31
-3.14
12
-3.75999
22
3.28
32
-2.76999
13
-3.75999
23
3.28
33
-2.76999
0
3DFACE
8
0
10
-9.45
20
0.37999
30
-3.45999
11
-9.34999
21
0.349991
31
-2.79999
12
-9.51999
22
0.439987
32
-3.48999
13
-9.51999
23
0.439987
33
-3.48999
0
3DFACE
8
0
10
-9.48999
20
-0.709991
30
-3.50999
11
-9.42
21
-0.649994
31
-3.46999
12
-9.32999
22
-0.639999
32
-2.81
13
-9.32999
23
-0.639999
33
-2.81
0
3DFACE
8
0
10
-4.95999
20
-0.159988
30
-1.26999
11
-3.84999
21
-0.149994
31
-1.20999
12
-4.00999
22
-0.0599976
32
-1.28
13
-4.00999
23
-0.0599976
33
-1.28
0
3DFACE
8
0
10
-6.07999
20
-0.0999908
30
-1.45
11
-4.95999
21
-0.159988
31
-1.26999
12
-4.95
22
-0.0799866
32
-1.31999
13
-4.95
23
-0.0799866
33
-1.31999
0
3DFACE
8
0
10
-7.20999
20
-0.119995
30
-1.73999
11
-6.07999
21
-0.0999908
31
-1.45
12
-6.10999
22
-0.179993
32
-1.43999
13
-6.10999
23
-0.179993
33
-1.43999
0
3DFACE
8
0
10
-7.2
20
1.03
30
-1.76999
11
-6.12999
21
1.00999
31
-1.48999
12
-6.12999
22
1.12
32
-1.50999
13
-6.12999
23
1.12
33
-1.50999
0
3DFACE
8
0
10
-6.12999
20
1.12
30
-1.50999
11
-5
21
1.04999
31
-1.31
12
-4.98
22
1.17999
32
-1.35999
13
-4.98
23
1.17999
33
-1.35999
0
3DFACE
8
0
10
-5
20
1.04999
30
-1.31
11
-3.85999
21
1.06999
31
-1.23999
12
-3.87999
22
1.2
32
-1.29999
13
-3.87999
23
1.2
33
-1.29999
0
3DFACE
8
0
10
-3.85999
20
1.06999
30
-1.23999
11
-3.29999
21
1.01999
31
-1.20999
12
-3.28
22
1.17
32
-1.25999
13
-3.28
23
1.17
33
-1.25999
0
3DFACE
8
0
10
7.75999
20
-1.74998
30
-2.01999
11
7.78999
21
-2.42
31
-1.67
12
7.73
22
-2.71999
32
-2.03
13
7.73
23
-2.71999
33
-2.03
0
3DFACE
8
0
10
7.75999
20
-1.74998
30
-2.01999
11
7.84
21
-1.78
31
-1.40999
12
7.78999
22
-2.42
32
-1.67
13
7.78999
23
-2.42
33
-1.67
0
3DFACE
8
0
10
7.75999
20
-1.74998
30
-2.01999
11
7.92
21
-0.669998
31
-1.34999
12
7.84
22
-1.78
32
-1.40999
13
7.84
23
-1.78
33
-1.40999
0
3DFACE
8
0
10
7.75999
20
-1.74998
30
-2.01999
11
7.76999
21
-0.679993
31
-2.00999
12
7.92
22
-0.669998
32
-1.34999
13
7.92
23
-0.669998
33
-1.34999
0
3DFACE
8
0
10
7.75999
20
0.169998
30
-2
11
7.92
21
-0.669998
31
-1.34999
12
7.76999
22
-0.679993
32
-2.00999
13
7.76999
23
-0.679993
33
-2.00999
0
3DFACE
8
0
10
7.75999
20
0.169998
30
-2
11
7.89999
21
0.169998
31
-1.34999
12
7.92
22
-0.669998
32
-1.34999
13
7.92
23
-0.669998
33
-1.34999
0
3DFACE
8
0
10
7.75999
20
0.169998
30
-2
11
7.87999
21
1.01999
31
-1.34999
12
7.89999
22
0.169998
32
-1.34999
13
7.89999
23
0.169998
33
-1.34999
0
3DFACE
8
0
10
7.73999
20
1.03999
30
-1.98
11
7.75999
21
0.169998
31
-2
12
7.87999
22
1.01999
32
-1.34999
13
7.87999
23
1.01999
33
-1.34999
0
3DFACE
8
0
10
7.68999
20
2.10999
30
-1.95999
11
7.87999
21
1.01999
31
-1.34999
12
7.73999
22
1.03999
32
-1.98
13
7.73999
23
1.03999
33
-1.98
0
3DFACE
8
0
10
7.68999
20
2.10999
30
-1.95999
11
7.76999
21
2.14
31
-1.34999
12
7.87999
22
1.01999
32
-1.34999
13
7.87999
23
1.01999
33
-1.34999
0
3DFACE
8
0
10
7.68999
20
2.10999
30
-1.95999
11
7.68999
21
2.78999
31
-1.56999
12
7.76999
22
2.14
32
-1.34999
13
7.76999
23
2.14
33
-1.34999
0
3DFACE
8
0
10
7.62
20
3.07999
30
-1.92999
11
7.68999
21
2.10999
31
-1.95999
12
7.68999
22
2.78999
32
-1.56999
13
7.68999
23
2.78999
33
-1.56999
0
3DFACE
8
0
10
7.62
20
3.07999
30
-1.92999
11
7.68999
21
2.10999
31
-1.95999
12
7.57999
22
3.17999
32
-2.34
13
7.57999
23
3.17999
33
-2.34
0
3DFACE
8
0
10
7.57999
20
3.17999
30
-2.34
11
7.67999
21
2.12
31
-2.39999
12
7.68999
22
2.10999
32
-1.95999
13
7.68999
23
2.10999
33
-1.95999
0
3DFACE
8
0
10
7.67999
20
2.12
30
-2.39999
11
7.68999
21
2.10999
31
-1.95999
12
7.74998
22
1.03
32
-2.43999
13
7.74998
23
1.03
33
-2.43999
0
3DFACE
8
0
10
7.73999
20
1.03999
30
-1.98
11
7.74998
21
1.03
31
-2.43999
12
7.68999
22
2.10999
32
-1.95999
13
7.68999
23
2.10999
33
-1.95999
0
3DFACE
8
0
10
7.67999
20
2.12
30
-2.39999
11
7.82999
21
0.979996
31
-2.92
12
7.74998
22
1.03
32
-2.43999
13
7.74998
23
1.03
33
-2.43999
0
3DFACE
8
0
10
7.67999
20
2.12
30
-2.39999
11
7.73999
21
2.98
31
-2.95
12
7.82999
22
0.979996
32
-2.92
13
7.82999
23
0.979996
33
-2.92
0
3DFACE
8
0
10
7.57999
20
3.17999
30
-2.34
11
7.73999
21
2.98
31
-2.95
12
7.67999
22
2.12
32
-2.39999
13
7.67999
23
2.12
33
-2.39999
0
3DFACE
8
0
10
7.57999
20
3.17999
30
-2.34
11
7.73999
21
2.98
31
-2.95
12
7.53
22
3.17999
32
-2.95999
13
7.53
23
3.17999
33
-2.95999
0
3DFACE
8
0
10
7.53
20
3.17999
30
-2.95999
11
7.73999
21
2.98
31
-2.95
12
7.57999
22
3.12999
32
-3.39999
13
7.57999
23
3.12999
33
-3.39999
0
3DFACE
8
0
10
7.57999
20
3.12999
30
-3.39999
11
7.59
21
2.92
31
-3.39999
12
7.73999
22
2.98
32
-2.95
13
7.73999
23
2.98
33
-2.95
0
3DFACE
8
0
10
7.59
20
2.92
30
-3.39999
11
7.82999
21
0.979996
31
-2.92
12
7.7
22
0.969986
32
-3.42999
13
7.7
23
0.969986
33
-3.42999
0
3DFACE
8
0
10
7.68999
20
-2.51999
30
-3.50999
11
7.85999
21
-0.579987
31
-2.93999
12
7.84999
22
-2.57999
32
-3.03999
13
7.84999
23
-2.57999
33
-3.03999
0
3DFACE
8
0
10
7.68999
20
-2.51999
30
-3.50999
11
7.84999
21
-2.57999
31
-3.03999
12
7.67999
22
-2.71999
32
-3.50999
13
7.67999
23
-2.71999
33
-3.50999
0
3DFACE
8
0
10
7.64
20
-2.79999
30
-3.04999
11
7.67999
21
-2.71999
31
-3.50999
12
7.84999
22
-2.57999
32
-3.03999
13
7.84999
23
-2.57999
33
-3.03999
0
3DFACE
8
0
10
7.74998
20
-1.73999
30
-2.45999
11
7.84999
21
-2.57999
31
-3.03999
12
7.7
22
-2.81
32
-2.43999
13
7.7
23
-2.81
33
-2.43999
0
3DFACE
8
0
10
7.64
20
-2.79999
30
-3.04999
11
7.7
21
-2.81
31
-2.43999
12
7.84999
22
-2.57999
32
-3.03999
13
7.84999
23
-2.57999
33
-3.03999
0
3DFACE
8
0
10
7.84999
20
-2.57999
30
-3.03999
11
7.85999
21
-0.579987
31
-2.93999
12
7.74998
22
-1.73999
32
-2.45999
13
7.74998
23
-1.73999
33
-2.45999
0
3DFACE
8
0
10
7.74998
20
-1.73999
30
-2.45999
11
7.75999
21
-1.74998
31
-2.01999
12
7.7
22
-2.81
32
-2.43999
13
7.7
23
-2.81
33
-2.43999
0
3DFACE
8
0
10
7.7
20
-2.81
30
-2.43999
11
7.73
21
-2.71999
31
-2.03
12
7.75999
22
-1.74998
32
-2.01999
13
7.75999
23
-1.74998
33
-2.01999
0
3DFACE
8
0
10
7.74998
20
-1.73999
30
-2.45999
11
7.78
21
-0.649994
31
-2.45999
12
7.75999
22
-1.74998
32
-2.01999
13
7.75999
23
-1.74998
33
-2.01999
0
3DFACE
8
0
10
7.75999
20
-1.74998
30
-2.01999
11
7.76999
21
-0.679993
31
-2.00999
12
7.78
22
-0.649994
32
-2.45999
13
7.78
23
-0.649994
33
-2.45999
0
3DFACE
8
0
10
7.78
20
-0.649994
30
-2.45999
11
7.85999
21
-0.579987
31
-2.93999
12
7.74998
22
-1.73999
32
-2.45999
13
7.74998
23
-1.73999
33
-2.45999
0
3DFACE
8
0
10
-9.20999
20
1.98
30
-3.26999
11
-9.09
21
2.12999
31
-2.79999
12
-9.25999
22
2.07999
32
-3.64
13
-9.25999
23
2.07999
33
-3.64
0
3DFACE
8
0
10
-9.25999
20
2.07999
30
-3.64
11
-8.93999
21
2.31999
31
-2.64
12
-9.09
22
2.12999
32
-2.79999
13
-9.09
23
2.12999
33
-2.79999
0
3DFACE
8
0
10
-9.24998
20
0.929993
30
-2.62
11
-9.09
21
2.12999
31
-2.79999
12
-8.93999
22
2.31999
32
-2.64
13
-8.93999
23
2.31999
33
-2.64
0
3DFACE
8
0
10
-9.31
20
-0.139999
30
-2.62
11
-9.25999
21
0.87999
31
-2.79999
12
-9.24998
22
0.929993
32
-2.62
13
-9.24998
23
0.929993
33
-2.62
0
3DFACE
8
0
10
-9.45
20
0.559998
30
-3.26999
11
-9.34999
21
0.349991
31
-2.79999
12
-9.31999
22
0.449997
32
-2.79999
13
-9.31999
23
0.449997
33
-2.79999
0
3DFACE
8
0
10
-9.51999
20
0.439987
30
-3.48999
11
-9.45
21
0.559998
31
-3.26999
12
-9.34999
22
0.349991
32
-2.79999
13
-9.34999
23
0.349991
33
-2.79999
0
3DFACE
8
0
10
-9.51999
20
0.439987
30
-3.48999
11
-9.45
21
0.559998
31
-3.26999
12
-9.48
22
0.909988
32
-3.64999
13
-9.48
23
0.909988
33
-3.64999
0
3DFACE
8
0
10
-9.51999
20
0.439987
30
-3.48999
11
-9.48
21
0.909988
31
-3.64999
12
-9.53999
22
0.459991
32
-3.65999
13
-9.53999
23
0.459991
33
-3.65999
0
3DFACE
8
0
10
-9.45
20
0.559998
30
-3.26999
11
-9.39999
21
0.909988
31
-3.28999
12
-9.48
22
0.909988
32
-3.64999
13
-9.48
23
0.909988
33
-3.64999
0
3DFACE
8
0
10
-9.48
20
0.909988
30
-3.64999
11
-9.20999
21
1.98
31
-3.26999
12
-9.39999
22
0.909988
32
-3.28999
13
-9.39999
23
0.909988
33
-3.28999
0
3DFACE
8
0
10
-9.25999
20
2.07999
30
-3.64
11
-9.20999
21
1.98
31
-3.26999
12
-9.48
22
0.909988
32
-3.64999
13
-9.48
23
0.909988
33
-3.64999
0
3DFACE
8
0
10
-9.56999
20
-0.12999
30
-3.67
11
-9.50999
21
-0.12999
31
-3.5
12
-9.51999
22
0.439987
32
-3.48999
13
-9.51999
23
0.439987
33
-3.48999
0
3DFACE
8
0
10
-9.56999
20
-0.12999
30
-3.67
11
-9.48999
21
-0.709991
31
-3.50999
12
-9.50999
22
-0.12999
32
-3.5
13
-9.50999
23
-0.12999
33
-3.5
0
3DFACE
8
0
10
-9.50999
20
-0.719986
30
-3.67999
11
-9.48999
21
-0.709991
31
-3.50999
12
-9.42999
22
-1.17
32
-3.67999
13
-9.42999
23
-1.17
33
-3.67999
0
3DFACE
8
0
10
-9.48999
20
-0.709991
30
-3.50999
11
-9.42999
21
-1.17
31
-3.67999
12
-9.42
22
-0.829987
32
-3.28999
13
-9.42
23
-0.829987
33
-3.28999
0
3DFACE
8
0
10
-9.42
20
-0.829987
30
-3.28999
11
-9.32999
21
-0.639999
31
-2.81
12
-9.48999
22
-0.709991
32
-3.50999
13
-9.48999
23
-0.709991
33
-3.50999
0
3DFACE
8
0
10
-9.42
20
-0.829987
30
-3.28999
11
-9.28999
21
-0.73999
31
-2.81999
12
-9.32999
22
-0.639999
32
-2.81
13
-9.32999
23
-0.639999
33
-2.81
0
3DFACE
8
0
10
-9.31
20
-0.139999
30
-2.62
11
-9.20999
21
-1.15999
31
-2.82999
12
-9.2
22
-1.21999
32
-2.64999
13
-9.2
23
-1.21999
33
-2.64999
0
3DFACE
8
0
10
-8.98999
20
-2.39999
30
-2.87
11
-8.84
21
-2.59
31
-2.71999
12
-9.2
22
-1.21999
32
-2.64999
13
-9.2
23
-1.21999
33
-2.64999
0
3DFACE
8
0
10
-8.98999
20
-2.39999
30
-2.87
11
-8.84
21
-2.59
31
-2.71999
12
-9.17
22
-2.32999
32
-3.70999
13
-9.17
23
-2.32999
33
-3.70999
0
3DFACE
8
0
10
-9.17
20
-2.32999
30
-3.70999
11
-9.12
21
-2.23999
31
-3.34
12
-8.98999
22
-2.39999
32
-2.87
13
-8.98999
23
-2.39999
33
-2.87
0
3DFACE
8
0
10
-9.42999
20
-1.17
30
-3.67999
11
-9.12
21
-2.23999
31
-3.34
12
-9.17
22
-2.32999
32
-3.70999
13
-9.17
23
-2.32999
33
-3.70999
0
3DFACE
8
0
10
-9.34999
20
-1.17999
30
-3.31999
11
-9.12
21
-2.23999
31
-3.34
12
-9.42999
22
-1.17
32
-3.67999
13
-9.42999
23
-1.17
33
-3.67999
0
3DFACE
8
0
10
-9.42999
20
-1.17
30
-3.67999
11
-9.42
21
-0.829987
31
-3.28999
12
-9.34999
22
-1.17999
32
-3.31999
13
-9.34999
23
-1.17999
33
-3.31999
0
3DFACE
8
0
10
-4.00999
20
-0.0599976
30
-1.28
11
-3.82999
21
-0.0599976
31
-1.2
12
-3.84999
22
-0.149994
32
-1.20999
13
-3.84999
23
-0.149994
33
-1.20999
0
3DFACE
8
0
10
-3.85999
20
0.019989
30
-1.20999
11
-3.82999
21
-0.0599976
31
-1.2
12
-4.00999
22
-0.0599976
32
-1.28
13
-4.00999
23
-0.0599976
33
-1.28
0
3DFACE
8
0
10
7.64
20
-2.79999
30
-3.04999
11
7.67999
21
-2.71999
31
-3.50999
12
7.06
22
-2.85999
32
-3.07999
13
7.06
23
-2.85999
33
-3.07999
0
3DFACE
8
0
10
7.00999
20
-2.73
30
-3.57999
11
7.06
21
-2.85999
31
-3.07999
12
6
22
-2.90999
32
-3.10999
13
6
23
-2.90999
33
-3.10999
0
3DFACE
8
0
10
5.15999
20
-2.95
30
-3.14
11
5.87999
21
-2.62
31
-3.65999
12
6
22
-2.90999
32
-3.10999
13
6
23
-2.90999
33
-3.10999
0
3DFACE
8
0
10
5.15999
20
-2.95
30
-3.14
11
5.23
21
-2.62999
31
-3.67
12
5.87999
22
-2.62
32
-3.65999
13
5.87999
23
-2.62
33
-3.65999
0
3DFACE
8
0
10
1.57999
20
-2.81999
30
-3.53999
11
1.95999
21
-3.01999
31
-3.31
12
1.84999
22
-2.53
32
-3.81999
13
1.84999
23
-2.53
33
-3.81999
0
3DFACE
8
0
10
1.32999
20
-2.50999
30
-3.81
11
1.84999
21
-2.53
31
-3.81999
12
1.57999
22
-2.81999
32
-3.53999
13
1.57999
23
-2.81999
33
-3.53999
0
3DFACE
8
0
10
1.76999
20
-3.00999
30
-3.29999
11
1.95999
21
-3.01999
31
-3.31
12
1.57999
22
-2.81999
32
-3.53999
13
1.57999
23
-2.81999
33
-3.53999
0
3DFACE
8
0
10
1.42999
20
-3.03
30
-3.28999
11
1.57999
21
-2.81999
31
-3.53999
12
1.76999
22
-3.00999
32
-3.29999
13
1.76999
23
-3.00999
33
-3.29999
0
3DFACE
8
0
10
-1.06
20
-2.87
30
-3.48999
11
1.42999
21
-3.03
31
-3.28999
12
-1.03999
22
-3.09
32
-3.24998
13
-1.03999
23
-3.09
33
-3.24998
0
3DFACE
8
0
10
1.32999
20
-2.50999
30
-3.81
11
1.57999
21
-2.81999
31
-3.53999
12
-1.06
22
-2.87
32
-3.48999
13
-1.06
23
-2.87
33
-3.48999
0
3DFACE
8
0
10
-2.51999
20
-2.92999
30
-3.5
11
-1.03999
21
-3.09
31
-3.24998
12
-2.59
22
-3.12999
32
-3.25999
13
-2.59
23
-3.12999
33
-3.25999
0
3DFACE
8
0
10
-2.45
20
-2.64999
30
-3.74998
11
-1.06
21
-2.87
31
-3.48999
12
-2.51999
22
-2.92999
32
-3.5
13
-2.51999
23
-2.92999
33
-3.5
0
3DFACE
8
0
10
-3.98999
20
-2.79999
30
-3.76999
11
-2.45
21
-2.64999
31
-3.74998
12
-2.51999
22
-2.92999
32
-3.5
13
-2.51999
23
-2.92999
33
-3.5
0
3DFACE
8
0
10
-2.59
20
-3.12999
30
-3.25999
11
-2.51999
21
-2.92999
31
-3.5
12
-3.98999
22
-2.79999
32
-3.76999
13
-3.98999
23
-2.79999
33
-3.76999
0
3DFACE
8
0
10
-4.06999
20
-3.24998
30
-3.28
11
-3.98999
21
-2.79999
31
-3.76999
12
-2.59
22
-3.12999
32
-3.25999
13
-2.59
23
-3.12999
33
-3.25999
0
3DFACE
8
0
10
-7.7
20
-2.90999
30
-3.65999
11
-7.23999
21
-3.00999
31
-3.67999
12
-6.98
22
-3.29999
32
-2.57999
13
-6.98
23
-3.29999
33
-2.57999
0
3DFACE
8
0
10
-8.21999
20
-2.92
30
-2.67999
11
-6.98
21
-3.29999
31
-2.57999
12
-7.7
22
-2.90999
32
-3.65999
13
-7.7
23
-2.90999
33
-3.65999
0
3DFACE
8
0
10
-8.87999
20
-2.59
30
-3.67999
11
-7.7
21
-2.90999
31
-3.65999
12
-8.21999
22
-2.92
32
-2.67999
13
-8.21999
23
-2.92
33
-2.67999
0
3DFACE
8
0
10
-8.84
20
-2.59
30
-2.71999
11
-8.21999
21
-2.92
31
-2.67999
12
-8.87999
22
-2.59
32
-3.67999
13
-8.87999
23
-2.59
33
-3.67999
0
3DFACE
8
0
10
-9.17
20
-2.32999
30
-3.70999
11
-8.87999
21
-2.59
31
-3.67999
12
-8.84
22
-2.59
32
-2.71999
13
-8.84
23
-2.59
33
-2.71999
0
3DFACE
8
0
10
-9.25999
20
2.07999
30
-3.64
11
-8.93999
21
2.31999
31
-2.64
12
-8.98
22
2.34999
32
-3.59999
13
-8.98
23
2.34999
33
-3.59999
0
3DFACE
8
0
10
-8.98
20
2.34999
30
-3.59999
11
-8.34
21
2.67
31
-2.59
12
-8.93999
22
2.31999
32
-2.64
13
-8.93999
23
2.31999
33
-2.64
0
3DFACE
8
0
10
-8.98
20
2.34999
30
-3.59999
11
-8.34
21
2.67
31
-2.59
12
-7.81999
22
2.70999
32
-3.56999
13
-7.81999
23
2.70999
33
-3.56999
0
3DFACE
8
0
10
-7.81999
20
2.70999
30
-3.56999
11
-7.09999
21
3.09
31
-2.46999
12
-8.34
22
2.67
32
-2.59
13
-8.34
23
2.67
33
-2.59
0
3DFACE
8
0
10
-7.81999
20
2.70999
30
-3.56999
11
-7.09999
21
3.09
31
-2.46999
12
-7.35999
22
2.82999
32
-3.57999
13
-7.35999
23
2.82999
33
-3.57999
0
3DFACE
8
0
10
-4.17999
20
3.17999
30
-3.15999
11
-2.71999
21
3.12
31
-3.15999
12
-4.12
22
2.75999
32
-3.68999
13
-4.12
23
2.75999
33
-3.68999
0
3DFACE
8
0
10
-4.12
20
2.75999
30
-3.68999
11
-2.64
21
2.92999
31
-3.39999
12
-2.71999
22
3.12
32
-3.15999
13
-2.71999
23
3.12
33
-3.15999
0
3DFACE
8
0
10
-4.12
20
2.75999
30
-3.68999
11
-2.64
21
2.92999
31
-3.39999
12
-2.56
22
2.67
32
-3.65999
13
-2.56
23
2.67
33
-3.65999
0
3DFACE
8
0
10
-2.71999
20
3.12
30
-3.15999
11
-2.64
21
2.92999
31
-3.39999
12
-1.17
22
3.14
32
-3.14999
13
-1.17
23
3.14
33
-3.14999
0
3DFACE
8
0
10
-2.64
20
2.92999
30
-3.39999
11
-2.56
21
2.67
31
-3.65999
12
-1.17999
22
2.92999
32
-3.39
13
-1.17999
23
2.92999
33
-3.39
0
3DFACE
8
0
10
-1.17999
20
2.92999
30
-3.39
11
-1.17
21
3.14
31
-3.14999
12
1.31
22
3.17999
32
-3.18999
13
1.31
23
3.17999
33
-3.18999
0
3DFACE
8
0
10
-1.17999
20
2.92999
30
-3.39
11
1.23
21
2.67999
31
-3.71999
12
1.46999
22
2.98999
32
-3.43999
13
1.46999
23
2.98999
33
-3.43999
0
3DFACE
8
0
10
1.23
20
2.67999
30
-3.71999
11
1.46999
21
2.98999
31
-3.43999
12
1.74998
22
2.71999
32
-3.73
13
1.74998
23
2.71999
33
-3.73
0
3DFACE
8
0
10
1.31
20
3.17999
30
-3.18999
11
1.64999
21
3.17999
31
-3.2
12
1.46999
22
2.98999
32
-3.43999
13
1.46999
23
2.98999
33
-3.43999
0
3DFACE
8
0
10
1.46999
20
2.98999
30
-3.43999
11
1.84
21
3.2
31
-3.20999
12
1.64999
22
3.17999
32
-3.2
13
1.64999
23
3.17999
33
-3.2
0
3DFACE
8
0
10
1.74998
20
2.71999
30
-3.73
11
1.84
21
3.2
31
-3.20999
12
1.46999
22
2.98999
32
-3.43999
13
1.46999
23
2.98999
33
-3.43999
0
3DFACE
8
0
10
5.03999
20
3.25999
30
-3.03
11
5.76999
21
2.95999
31
-3.56999
12
5.12
22
2.93999
32
-3.57999
13
5.12
23
2.93999
33
-3.57999
0
3DFACE
8
0
10
5.03999
20
3.25999
30
-3.03
11
5.87999
21
3.23999
31
-3.00999
12
5.76999
22
2.95999
32
-3.56999
13
5.76999
23
2.95999
33
-3.56999
0
3DFACE
8
0
10
5.87999
20
3.23999
30
-3.00999
11
6.93999
21
3.23
31
-2.98999
12
6.89999
22
3.12
32
-3.46999
13
6.89999
23
3.12
33
-3.46999
0
3DFACE
8
0
10
6.93999
20
3.23
30
-2.98999
11
7.57999
21
3.12999
31
-3.39999
12
7.53
22
3.17999
32
-2.95999
13
7.53
23
3.17999
33
-2.95999
0
3DFACE
8
0
10
7.12999
20
-2.92
30
-2.42
11
7.64
21
-2.79999
31
-3.04999
12
7.06
22
-2.85999
32
-3.07999
13
7.06
23
-2.85999
33
-3.07999
0
3DFACE
8
0
10
7.06
20
-2.85999
30
-3.07999
11
7.12999
21
-2.92
31
-2.42
12
6.07999
22
-3.00999
32
-2.42
13
6.07999
23
-3.00999
33
-2.42
0
3DFACE
8
0
10
5.15999
20
-2.95
30
-3.14
11
6.07999
21
-3.00999
31
-2.42
12
6
22
-2.90999
32
-3.10999
13
6
23
-2.90999
33
-3.10999
0
3DFACE
8
0
10
4.73
20
-3.12999
30
-2.37999
11
6.07999
21
-3.00999
31
-2.42
12
5.15999
22
-2.95
32
-3.14
13
5.15999
23
-2.95
33
-3.14
0
3DFACE
8
0
10
1.95999
20
-3.01999
30
-3.31
11
2.12999
21
-3.14999
31
-2.82999
12
2.00999
22
-3.12999
32
-2.82999
13
2.00999
23
-3.12999
33
-2.82999
0
3DFACE
8
0
10
1.76999
20
-3.00999
30
-3.29999
11
1.95999
21
-3.01999
31
-3.31
12
2.00999
22
-3.12999
32
-2.82999
13
2.00999
23
-3.12999
33
-2.82999
0
3DFACE
8
0
10
1.76999
20
-3.00999
30
-3.29999
11
2.00999
21
-3.12999
31
-2.82999
12
1.42999
22
-3.14999
32
-2.84999
13
1.42999
23
-3.14999
33
-2.84999
0
3DFACE
8
0
10
1.42999
20
-3.14999
30
-2.84999
11
1.42999
21
-3.03
31
-3.28999
12
-1.03
22
-3.23
32
-2.89
13
-1.03
23
-3.23
33
-2.89
0
3DFACE
8
0
10
-2.59
20
-3.12999
30
-3.25999
11
-1.03
21
-3.23
31
-2.89
12
-2.64
22
-3.28999
32
-2.89
13
-2.64
23
-3.28999
33
-2.89
0
3DFACE
8
0
10
-4.06999
20
-3.24998
30
-3.28
11
-3.56999
21
-3.20999
31
-3.26999
12
-3.62
22
-3.34
32
-2.87999
13
-3.62
23
-3.34
33
-2.87999
0
3DFACE
8
0
10
-4.06999
20
-3.24998
30
-3.28
11
-3.62
21
-3.34
31
-2.87999
12
-4.14999
22
-3.37
32
-2.87999
13
-4.14999
23
-3.37
33
-2.87999
0
3DFACE
8
0
10
-4.31
20
-3.40999
30
-2.42999
11
-4.14999
21
-3.37
31
-2.87999
12
-3.62
22
-3.34
32
-2.87999
13
-3.62
23
-3.34
33
-2.87999
0
3DFACE
8
0
10
-4.31
20
-3.40999
30
-2.42999
11
-3.62
21
-3.34
31
-2.87999
12
-3.65999
22
-3.35999
32
-2.42
13
-3.65999
23
-3.35999
33
-2.42
0
3DFACE
8
0
10
-2.64
20
-3.28999
30
-2.89
11
-1.03
21
-3.25999
31
-2.39999
12
-2.67999
22
-3.32999
32
-2.40999
13
-2.67999
23
-3.32999
33
-2.40999
0
3DFACE
8
0
10
1.42999
20
-3.17
30
-2.39
11
1.42999
21
-3.14999
31
-2.84999
12
-1.03
22
-3.25999
32
-2.39999
13
-1.03
23
-3.25999
33
-2.39999
0
3DFACE
8
0
10
1.42999
20
-3.17
30
-2.39
11
2.00999
21
-3.12999
31
-2.82999
12
2.18999
22
-3.12999
32
-2.37999
13
2.18999
23
-3.12999
33
-2.37999
0
3DFACE
8
0
10
2.00999
20
-3.12999
30
-2.82999
11
2.12999
21
-3.14999
31
-2.82999
12
2.18999
22
-3.12999
32
-2.37999
13
2.18999
23
-3.12999
33
-2.37999
0
3DFACE
8
0
10
2.18999
20
-3.12999
30
-2.37999
11
2.39
21
-3.14999
31
-2.39999
12
2.12999
22
-3.14999
32
-2.82999
13
2.12999
23
-3.14999
33
-2.82999
0
3DFACE
8
0
10
7.00999
20
3.26999
30
-2.32999
11
7.53
21
3.17999
31
-2.95999
12
7.57999
22
3.17999
32
-2.34
13
7.57999
23
3.17999
33
-2.34
0
3DFACE
8
0
10
5.95999
20
3.31999
30
-2.31
11
6.93999
21
3.23
31
-2.98999
12
7.00999
22
3.26999
32
-2.32999
13
7.00999
23
3.26999
33
-2.32999
0
3DFACE
8
0
10
5.87999
20
3.23999
30
-3.00999
11
5.95999
21
3.31999
31
-2.31
12
5.03999
22
3.25999
32
-3.03
13
5.03999
23
3.25999
33
-3.03
0
3DFACE
8
0
10
5.03999
20
3.25999
30
-3.03
11
5.95999
21
3.31999
31
-2.31
12
4.60999
22
3.37999
32
-2.28999
13
4.60999
23
3.37999
33
-2.28999
0
3DFACE
8
0
10
1.84
20
3.2
30
-3.20999
11
1.89
21
3.28999
31
-2.71999
12
2.00999
22
3.31
32
-2.73
13
2.00999
23
3.31
33
-2.73
0
3DFACE
8
0
10
1.64999
20
3.17999
30
-3.2
11
1.89
21
3.28999
31
-2.71999
12
1.84
22
3.2
32
-3.20999
13
1.84
23
3.2
33
-3.20999
0
3DFACE
8
0
10
1.31
20
3.28999
30
-2.73999
11
1.64999
21
3.17999
31
-3.2
12
1.89
22
3.28999
32
-2.71999
13
1.89
23
3.28999
33
-2.71999
0
3DFACE
8
0
10
-1.15999
20
3.26999
30
-2.78
11
1.31
21
3.17999
31
-3.18999
12
1.31
22
3.28999
32
-2.73999
13
1.31
23
3.28999
33
-2.73999
0
3DFACE
8
0
10
-2.78
20
3.26999
30
-2.78
11
-2.71999
21
3.12
31
-3.15999
12
-1.15999
22
3.26999
32
-2.78
13
-1.15999
23
3.26999
33
-2.78
0
3DFACE
8
0
10
-4.17999
20
3.17999
30
-3.15999
11
-3.75999
21
3.28
31
-2.76999
12
-3.7
22
3.15999
32
-3.15999
13
-3.7
23
3.15999
33
-3.15999
0
3DFACE
8
0
10
-4.28999
20
3.28999
30
-2.75999
11
-4.17999
21
3.17999
31
-3.15999
12
-3.75999
22
3.28
32
-2.76999
13
-3.75999
23
3.28
33
-2.76999
0
3DFACE
8
0
10
-4.48999
20
3.29999
30
-2.34999
11
-3.75999
21
3.28
31
-2.76999
12
-4.28999
22
3.28999
32
-2.75999
13
-4.28999
23
3.28999
33
-2.75999
0
3DFACE
8
0
10
-4.48999
20
3.29999
30
-2.34999
11
-3.79999
21
3.28
31
-2.31
12
-3.75999
22
3.28
32
-2.76999
13
-3.75999
23
3.28
33
-2.76999
0
3DFACE
8
0
10
-2.81999
20
3.28999
30
-2.29999
11
-2.78
21
3.26999
31
-2.78
12
-1.15999
22
3.28
32
-2.28999
13
-1.15999
23
3.28
33
-2.28999
0
3DFACE
8
0
10
-1.15999
20
3.28
30
-2.28999
11
1.31
21
3.28999
31
-2.73999
12
1.31
22
3.28999
32
-2.28
13
1.31
23
3.28999
33
-2.28
0
3DFACE
8
0
10
1.31
20
3.28999
30
-2.28
11
1.89
21
3.28999
31
-2.71999
12
2.06999
22
3.28
32
-2.26999
13
2.06999
23
3.28
33
-2.26999
0
3DFACE
8
0
10
1.89
20
3.28999
30
-2.71999
11
2.06999
21
3.28
31
-2.26999
12
2.00999
22
3.31
32
-2.73
13
2.00999
23
3.31
33
-2.73
0
3DFACE
8
0
10
2.00999
20
3.31
30
-2.73
11
2.26999
21
3.29999
31
-2.29999
12
2.06999
22
3.28
32
-2.26999
13
2.06999
23
3.28
33
-2.26999
0
3DFACE
8
0
10
7.06
20
3.14
30
-1.87999
11
7.57999
21
3.17999
31
-2.34
12
7.62
22
3.07999
32
-1.92999
13
7.62
23
3.07999
33
-1.92999
0
3DFACE
8
0
10
6.06
20
3.2
30
-1.82999
11
7.00999
21
3.26999
31
-2.32999
12
7.06
22
3.14
32
-1.87999
13
7.06
23
3.14
33
-1.87999
0
3DFACE
8
0
10
5.95999
20
3.31999
30
-2.31
11
6.06
21
3.2
31
-1.82999
12
4.84999
22
3.25999
32
-1.78999
13
4.84999
23
3.25999
33
-1.78999
0
3DFACE
8
0
10
4.60999
20
3.37999
30
-2.28999
11
4.84999
21
3.25999
31
-1.78999
12
5.95999
22
3.31999
32
-2.31
13
5.95999
23
3.31999
33
-2.31
0
3DFACE
8
0
10
4.29999
20
3.35999
30
-1.98
11
4.84999
21
3.25999
31
-1.78999
12
4.60999
22
3.37999
32
-2.28999
13
4.60999
23
3.37999
33
-2.28999
0
3DFACE
8
0
10
4.29999
20
3.35999
30
-1.98
11
4.84999
21
3.25999
31
-1.78999
12
3.64
22
3.34999
32
-1.71999
13
3.64
23
3.34999
33
-1.71999
0
3DFACE
8
0
10
2.48999
20
3.31999
30
-2.03
11
2.67999
21
3.25999
31
-1.76999
12
3.23999
22
3.34999
32
-1.70999
13
3.23999
23
3.34999
33
-1.70999
0
3DFACE
8
0
10
2.06999
20
3.28
30
-2.26999
11
2.26999
21
3.29999
31
-2.29999
12
2.48999
22
3.31999
32
-2.03
13
2.48999
23
3.31999
33
-2.03
0
3DFACE
8
0
10
2.14
20
3.17999
30
-1.76999
11
2.67999
21
3.25999
31
-1.76999
12
2.48999
22
3.31999
32
-2.03
13
2.48999
23
3.31999
33
-2.03
0
3DFACE
8
0
10
2.14
20
3.17999
30
-1.76999
11
2.48999
21
3.31999
31
-2.03
12
2.06999
22
3.28
32
-2.26999
13
2.06999
23
3.28
33
-2.26999
0
3DFACE
8
0
10
-1.14999
20
3.18999
30
-1.78
11
1.31
21
3.28999
31
-2.28
12
1.31999
22
3.17999
32
-1.76999
13
1.31999
23
3.17999
33
-1.76999
0
3DFACE
8
0
10
-2.76999
20
3.17
30
-1.79999
11
-1.15999
21
3.28
31
-2.28999
12
-1.14999
22
3.18999
32
-1.78
13
-1.14999
23
3.18999
33
-1.78
0
3DFACE
8
0
10
-4.48999
20
3.29999
30
-2.34999
11
-3.81999
21
3.18999
31
-1.81999
12
-3.79999
22
3.28
32
-2.31
13
-3.79999
23
3.28
33
-2.31
0
3DFACE
8
0
10
-4.92
20
3.21999
30
-1.89
11
-4.48999
21
3.29999
31
-2.34999
12
-3.81999
22
3.18999
32
-1.81999
13
-3.81999
23
3.18999
33
-1.81999
0
3DFACE
8
0
10
-6.93999
20
3.10999
30
-2.21999
11
-6.81999
21
2.85999
31
-1.73
12
-6.32999
22
3.14999
32
-1.79999
13
-6.32999
23
3.14999
33
-1.79999
0
3DFACE
8
0
10
-6.93999
20
3.10999
30
-2.21999
11
-6.81999
21
2.85999
31
-1.73
12
-7.21999
22
2.81999
32
-1.85999
13
-7.21999
23
2.81999
33
-1.85999
0
3DFACE
8
0
10
-7.21999
20
2.81999
30
-1.85999
11
-7.09999
21
3.09
31
-2.46999
12
-6.93999
22
3.10999
32
-2.21999
13
-6.93999
23
3.10999
33
-2.21999
0
3DFACE
8
0
10
-8.46999
20
2.53
30
-2.42999
11
-7.09999
21
3.09
31
-2.46999
12
-7.21999
22
2.81999
32
-1.85999
13
-7.21999
23
2.81999
33
-1.85999
0
3DFACE
8
0
10
-8.34
20
2.67
30
-2.59
11
-7.09999
21
3.09
31
-2.46999
12
-8.46999
22
2.53
32
-2.42999
13
-8.46999
23
2.53
33
-2.42999
0
3DFACE
8
0
10
-8.93999
20
2.31999
30
-2.64
11
-8.46999
21
2.53
31
-2.42999
12
-8.34
22
2.67
32
-2.59
13
-8.34
23
2.67
33
-2.59
0
3DFACE
8
0
10
-8.93999
20
2.31999
30
-2.64
11
-8.51999
21
2.45
31
-2.37
12
-8.46999
22
2.53
32
-2.42999
13
-8.46999
23
2.53
33
-2.42999
0
3DFACE
8
0
10
-8.93999
20
2.31999
30
-2.64
11
-8.54999
21
2.39
31
-2.34
12
-8.51999
22
2.45
32
-2.37
13
-8.51999
23
2.45
33
-2.37
0
3DFACE
8
0
10
-8.54999
20
2.39
30
-2.34
11
-7.26999
21
2.45
31
-1.75999
12
-7.26999
22
2.64999
32
-1.78
13
-7.26999
23
2.64999
33
-1.78
0
3DFACE
8
0
10
-8.54999
20
2.39
30
-2.34
11
-7.26999
21
2.64999
31
-1.78
12
-8.51999
22
2.45
32
-2.37
13
-8.51999
23
2.45
33
-2.37
0
3DFACE
8
0
10
-8.51999
20
2.45
30
-2.37
11
-7.21999
21
2.81999
31
-1.85999
12
-8.46999
22
2.53
32
-2.42999
13
-8.46999
23
2.53
33
-2.42999
0
3DFACE
8
0
10
-8.51999
20
2.45
30
-2.37
11
-7.21999
21
2.81999
31
-1.85999
12
-7.26999
22
2.64999
32
-1.78
13
-7.26999
23
2.64999
33
-1.78
0
3DFACE
8
0
10
-8.70999
20
0.969986
30
-2.31999
11
-8.54999
21
2.39
31
-2.34
12
-8.93999
22
2.31999
32
-2.64
13
-8.93999
23
2.31999
33
-2.64
0
3DFACE
8
0
10
-8.93999
20
2.31999
30
-2.64
11
-8.70999
21
0.969986
31
-2.31999
12
-9.24998
22
0.929993
32
-2.62
13
-9.24998
23
0.929993
33
-2.62
0
3DFACE
8
0
10
-9.24998
20
0.929993
30
-2.62
11
-8.70999
21
0.969986
31
-2.31999
12
-9.31
22
-0.139999
32
-2.62
13
-9.31
23
-0.139999
33
-2.62
0
3DFACE
8
0
10
-9.31
20
-0.139999
30
-2.62
11
-8.70999
21
0.969986
31
-2.31999
12
-8.73
22
-0.139999
32
-2.31999
13
-8.73
23
-0.139999
33
-2.31999
0
3DFACE
8
0
10
-8.73
20
-0.139999
30
-2.31999
11
-8.65999
21
-1.24998
31
-2.34999
12
-9.31
22
-0.139999
32
-2.62
13
-9.31
23
-0.139999
33
-2.62
0
3DFACE
8
0
10
-9.31
20
-0.139999
30
-2.62
11
-8.65999
21
-1.24998
31
-2.34999
12
-9.2
22
-1.21999
32
-2.64999
13
-9.2
23
-1.21999
33
-2.64999
0
3DFACE
8
0
10
-9.2
20
-1.21999
30
-2.64999
11
-8.65999
21
-1.24998
31
-2.34999
12
-8.84
22
-2.59
32
-2.71999
13
-8.84
23
-2.59
33
-2.71999
0
3DFACE
8
0
10
-8.84
20
-2.59
30
-2.71999
11
-8.65999
21
-1.24998
31
-2.34999
12
-8.43999
22
-2.64999
32
-2.42
13
-8.43999
23
-2.64999
33
-2.42
0
3DFACE
8
0
10
-8.84
20
-2.59
30
-2.71999
11
-8.40999
21
-2.71999
31
-2.45999
12
-8.43999
22
-2.64999
32
-2.42
13
-8.43999
23
-2.64999
33
-2.42
0
3DFACE
8
0
10
-8.84
20
-2.59
30
-2.71999
11
-8.35999
21
-2.78999
31
-2.50999
12
-8.40999
22
-2.71999
32
-2.45999
13
-8.40999
23
-2.71999
33
-2.45999
0
3DFACE
8
0
10
-8.84
20
-2.59
30
-2.71999
11
-8.21999
21
-2.92
31
-2.67999
12
-8.35999
22
-2.78999
32
-2.50999
13
-8.35999
23
-2.78999
33
-2.50999
0
3DFACE
8
0
10
-8.43999
20
-2.64999
30
-2.42
11
-8.40999
21
-2.71999
31
-2.45999
12
-7.14999
22
-2.89
32
-1.87
13
-7.14999
23
-2.89
33
-1.87
0
3DFACE
8
0
10
-8.43999
20
-2.64999
30
-2.42
11
-7.14999
21
-2.89
31
-1.87
12
-7.15999
22
-2.68999
32
-1.84999
13
-7.15999
23
-2.68999
33
-1.84999
0
3DFACE
8
0
10
-7.14999
20
-2.89
30
-1.87
11
-7.09999
21
-3.04999
31
-1.95999
12
-8.40999
22
-2.71999
32
-2.45999
13
-8.40999
23
-2.71999
33
-2.45999
0
3DFACE
8
0
10
-8.40999
20
-2.71999
30
-2.45999
11
-8.35999
21
-2.78999
31
-2.50999
12
-7.09999
22
-3.04999
32
-1.95999
13
-7.09999
23
-3.04999
33
-1.95999
0
3DFACE
8
0
10
-7.09999
20
-3.04999
30
-1.95999
11
-6.98
21
-3.29999
31
-2.57999
12
-8.35999
22
-2.78999
32
-2.50999
13
-8.35999
23
-2.78999
33
-2.50999
0
3DFACE
8
0
10
-8.35999
20
-2.78999
30
-2.50999
11
-6.98
21
-3.29999
31
-2.57999
12
-8.21999
22
-2.92
32
-2.67999
13
-8.21999
23
-2.92
33
-2.67999
0
3DFACE
8
0
10
-6.98
20
-3.29999
30
-2.57999
11
-6.78999
21
-3.31999
31
-2.34999
12
-7.09999
22
-3.04999
32
-1.95999
13
-7.09999
23
-3.04999
33
-1.95999
0
3DFACE
8
0
10
-7.09999
20
-3.04999
30
-1.95999
11
-6.7
21
-3.07999
31
-1.82999
12
-6.78999
22
-3.31999
32
-2.34999
13
-6.78999
23
-3.31999
33
-2.34999
0
3DFACE
8
0
10
-6.78999
20
-3.31999
30
-2.34999
11
-6.2
21
-3.34999
31
-1.89999
12
-6.7
22
-3.07999
32
-1.82999
13
-6.7
23
-3.07999
33
-1.82999
0
3DFACE
8
0
10
-4.31
20
-3.40999
30
-2.42999
11
-3.68999
21
-3.28999
31
-1.92999
12
-4.81
22
-3.35999
32
-2.01999
13
-4.81
23
-3.35999
33
-2.01999
0
3DFACE
8
0
10
-4.31
20
-3.40999
30
-2.42999
11
-3.65999
21
-3.35999
31
-2.42
12
-3.68999
22
-3.28999
32
-1.92999
13
-3.68999
23
-3.28999
33
-1.92999
0
3DFACE
8
0
10
-1.03
20
-3.25999
30
-2.39999
11
-1.01999
21
-3.17999
31
-1.89
12
-2.64
22
-3.23
32
-1.90999
13
-2.64
23
-3.23
33
-1.90999
0
3DFACE
8
0
10
1.42999
20
-3.17
30
-2.39
11
1.43999
21
-3.07999
31
-1.87999
12
-1.01999
22
-3.17999
32
-1.89
13
-1.01999
23
-3.17999
33
-1.89
0
3DFACE
8
0
10
2.18999
20
-3.12999
30
-2.37999
11
2.25999
21
-3.03999
31
-1.87
12
2.62
22
-3.15999
32
-2.14
13
2.62
23
-3.15999
33
-2.14
0
3DFACE
8
0
10
2.39
20
-3.14999
30
-2.39999
11
2.62
21
-3.15999
31
-2.14
12
2.18999
22
-3.12999
32
-2.37999
13
2.18999
23
-3.12999
33
-2.37999
0
3DFACE
8
0
10
2.25999
20
-3.03999
30
-1.87
11
2.62
21
-3.15999
31
-2.14
12
2.79999
22
-3.09999
32
-1.87999
13
2.79999
23
-3.09999
33
-1.87999
0
3DFACE
8
0
10
2.62
20
-3.15999
30
-2.14
11
3.35999
21
-3.15999
31
-1.81999
12
2.79999
22
-3.09999
32
-1.87999
13
2.79999
23
-3.09999
33
-1.87999
0
3DFACE
8
0
10
3.76999
20
-3.14999
30
-1.82999
11
4.96999
21
-3.01999
31
-1.89
12
4.42
22
-3.12999
32
-2.09
13
4.42
23
-3.12999
33
-2.09
0
3DFACE
8
0
10
4.42
20
-3.12999
30
-2.09
11
4.73
21
-3.12999
31
-2.37999
12
4.96999
22
-3.01999
32
-1.89
13
4.96999
23
-3.01999
33
-1.89
0
3DFACE
8
0
10
4.73
20
-3.12999
30
-2.37999
11
6.07999
21
-3.00999
31
-2.42
12
4.96999
22
-3.01999
32
-1.89
13
4.96999
23
-3.01999
33
-1.89
0
3DFACE
8
0
10
4.96999
20
-3.01999
30
-1.89
11
6.17999
21
-2.90999
31
-1.92999
12
6.07999
22
-3.00999
32
-2.42
13
6.07999
23
-3.00999
33
-2.42
0
3DFACE
8
0
10
7.12999
20
-2.92
30
-2.42
11
7.17999
21
-2.79999
31
-1.98
12
6.17999
22
-2.90999
32
-1.92999
13
6.17999
23
-2.90999
33
-1.92999
0
3DFACE
8
0
10
7.7
20
-2.81
30
-2.43999
11
7.73
21
-2.71999
31
-2.03
12
7.17999
22
-2.79999
32
-1.98
13
7.17999
23
-2.79999
33
-1.98
0
3DFACE
8
0
10
7.2
20
-2.53
30
-1.57999
11
7.73
21
-2.71999
31
-2.03
12
7.17999
22
-2.79999
32
-1.98
13
7.17999
23
-2.79999
33
-1.98
0
3DFACE
8
0
10
7.17999
20
-2.79999
30
-1.98
11
7.2
21
-2.53
31
-1.57999
12
6.26999
22
-2.65999
32
-1.46999
13
6.26999
23
-2.65999
33
-1.46999
0
3DFACE
8
0
10
6.17999
20
-2.90999
30
-1.92999
11
6.26999
21
-2.65999
31
-1.46999
12
5.20999
22
-2.74998
32
-1.39
13
5.20999
23
-2.74998
33
-1.39
0
3DFACE
8
0
10
3.76999
20
-3.14999
30
-1.82999
11
4.96999
21
-3.01999
31
-1.89
12
5.20999
22
-2.74998
32
-1.39
13
5.20999
23
-2.74998
33
-1.39
0
3DFACE
8
0
10
3.26999
20
-2.81999
30
-1.34999
11
5.20999
21
-2.74998
31
-1.39
12
3.76999
22
-3.14999
32
-1.82999
13
3.76999
23
-3.14999
33
-1.82999
0
3DFACE
8
0
10
3.26999
20
-2.81999
30
-1.34999
11
3.35999
21
-3.15999
31
-1.81999
12
3.76999
22
-3.14999
32
-1.82999
13
3.76999
23
-3.14999
33
-1.82999
0
3DFACE
8
0
10
2.79999
20
-3.09999
30
-1.87999
11
3.26999
21
-2.81999
31
-1.34999
12
3.35999
22
-3.15999
32
-1.81999
13
3.35999
23
-3.15999
33
-1.81999
0
3DFACE
8
0
10
2.17999
20
-2.82999
30
-1.37
11
2.79999
21
-3.09999
31
-1.87999
12
3.26999
22
-2.81999
32
-1.34999
13
3.26999
23
-2.81999
33
-1.34999
0
3DFACE
8
0
10
2.17999
20
-2.82999
30
-1.37
11
2.79999
21
-3.09999
31
-1.87999
12
2.28
22
-2.95999
32
-1.59
13
2.28
23
-2.95999
33
-1.59
0
3DFACE
8
0
10
2.25999
20
-3.03999
30
-1.87
11
2.79999
21
-3.09999
31
-1.87999
12
2.28
22
-2.95999
32
-1.59
13
2.28
23
-2.95999
33
-1.59
0
3DFACE
8
0
10
2.06
20
-3.06
30
-1.85999
11
2.28
21
-2.95999
31
-1.59
12
2.06
22
-2.95999
32
-1.54999
13
2.06
23
-2.95999
33
-1.54999
0
3DFACE
8
0
10
2.17999
20
-2.82999
30
-1.37
11
2.28
21
-2.95999
31
-1.59
12
2.06
22
-2.95999
32
-1.54999
13
2.06
23
-2.95999
33
-1.54999
0
3DFACE
8
0
10
2.06
20
-2.95999
30
-1.54999
11
2.17999
21
-2.82999
31
-1.37
12
1.43999
22
-2.82999
32
-1.39999
13
1.43999
23
-2.82999
33
-1.39999
0
3DFACE
8
0
10
1.42999
20
-2.95999
30
-1.53999
11
1.43999
21
-3.07999
31
-1.87999
12
-1.00999
22
-3.06999
32
-1.56999
13
-1.00999
23
-3.06999
33
-1.56999
0
3DFACE
8
0
10
1.42999
20
-2.95999
30
-1.53999
11
1.43999
21
-2.82999
31
-1.39999
12
-1.03
22
-2.96999
32
-1.42999
13
-1.03
23
-2.96999
33
-1.42999
0
3DFACE
8
0
10
-1.03
20
-2.96999
30
-1.42999
11
-1.00999
21
-3.06999
31
-1.56999
12
-1.98
22
-3.09999
32
-1.59999
13
-1.98
23
-3.09999
33
-1.59999
0
3DFACE
8
0
10
-1.98
20
-3.09999
30
-1.59999
11
-1.81999
21
-2.93999
31
-1.42
12
-1.03
22
-2.96999
32
-1.42999
13
-1.03
23
-2.96999
33
-1.42999
0
3DFACE
8
0
10
-2.45999
20
-3.12
30
-1.64
11
-1.98
21
-3.09999
31
-1.59999
12
-1.81999
22
-2.93999
32
-1.42
13
-1.81999
23
-2.93999
33
-1.42
0
3DFACE
8
0
10
-2.45999
20
-3.12
30
-1.64
11
-1.81999
21
-2.93999
31
-1.42
12
-2.21999
22
-2.92999
32
-1.42999
13
-2.21999
23
-2.92999
33
-1.42999
0
3DFACE
8
0
10
-2.64
20
-3.23
30
-1.90999
11
-2.45999
21
-3.12
31
-1.64
12
-3.7
22
-3.2
32
-1.68999
13
-3.7
23
-3.2
33
-1.68999
0
3DFACE
8
0
10
-3.7
20
-3.2
30
-1.68999
11
-2.45999
21
-3.12
31
-1.64
12
-3.67
22
-2.98999
32
-1.43999
13
-3.67
23
-2.98999
33
-1.43999
0
3DFACE
8
0
10
-3.67
20
-2.98999
30
-1.43999
11
-2.45999
21
-3.12
31
-1.64
12
-2.21999
22
-2.92999
32
-1.42999
13
-2.21999
23
-2.92999
33
-1.42999
0
3DFACE
8
0
10
-4.81
20
-3.35999
30
-2.01999
11
-3.68999
21
-3.28999
31
-1.92999
12
-3.7
22
-3.2
32
-1.68999
13
-3.7
23
-3.2
33
-1.68999
0
3DFACE
8
0
10
-4.84999
20
-3.26999
30
-1.73999
11
-3.7
21
-3.2
31
-1.68999
12
-4.81
22
-3.35999
32
-2.01999
13
-4.81
23
-3.35999
33
-2.01999
0
3DFACE
8
0
10
-4.87
20
-3.07999
30
-1.50999
11
-3.7
21
-3.2
31
-1.68999
12
-4.84999
22
-3.26999
32
-1.73999
13
-4.84999
23
-3.26999
33
-1.73999
0
3DFACE
8
0
10
-3.7
20
-3.2
30
-1.68999
11
-3.67
21
-2.98999
31
-1.43999
12
-4.87
22
-3.07999
32
-1.50999
13
-4.87
23
-3.07999
33
-1.50999
0
3DFACE
8
0
10
-5.67999
20
-3.34
30
-1.81
11
-4.81
21
-3.35999
31
-2.01999
12
-4.84999
22
-3.26999
32
-1.73999
13
-4.84999
23
-3.26999
33
-1.73999
0
3DFACE
8
0
10
-5.67999
20
-3.34
30
-1.81
11
-4.84999
21
-3.26999
31
-1.73999
12
-4.87
22
-3.07999
32
-1.50999
13
-4.87
23
-3.07999
33
-1.50999
0
3DFACE
8
0
10
-6
20
-3.09999
30
-1.65999
11
-4.87
21
-3.07999
31
-1.50999
12
-5.67999
22
-3.34
32
-1.81
13
-5.67999
23
-3.34
33
-1.81
0
3DFACE
8
0
10
-6.2
20
-3.34999
30
-1.89999
11
-5.67999
21
-3.34
31
-1.81
12
-6
22
-3.09999
32
-1.65999
13
-6
23
-3.09999
33
-1.65999
0
3DFACE
8
0
10
-6.7
20
-3.07999
30
-1.82999
11
-6
21
-3.09999
31
-1.65999
12
-6.2
22
-3.34999
32
-1.89999
13
-6.2
23
-3.34999
33
-1.89999
0
3DFACE
8
0
10
-7.09999
20
-3.04999
30
-1.95999
11
-6.7
21
-3.07999
31
-1.82999
12
-7.14999
22
-2.89
32
-1.87
13
-7.14999
23
-2.89
33
-1.87
0
3DFACE
8
0
10
-7.15999
20
-2.68999
30
-1.84999
11
-7.14999
21
-2.89
31
-1.87
12
-6
22
-2.92999
32
-1.57999
13
-6
23
-2.92999
33
-1.57999
0
3DFACE
8
0
10
-6.7
20
-3.07999
30
-1.82999
11
-6
21
-2.92999
31
-1.57999
12
-7.14999
22
-2.89
32
-1.87
13
-7.14999
23
-2.89
33
-1.87
0
3DFACE
8
0
10
-7.15999
20
-2.68999
30
-1.84999
11
-6
21
-2.92999
31
-1.57999
12
-6.01999
22
-2.70999
32
-1.56999
13
-6.01999
23
-2.70999
33
-1.56999
0
3DFACE
8
0
10
-6.7
20
-3.07999
30
-1.82999
11
-6
21
-3.09999
31
-1.65999
12
-6
22
-2.92999
32
-1.57999
13
-6
23
-2.92999
33
-1.57999
0
3DFACE
8
0
10
-6
20
-2.92999
30
-1.57999
11
-4.87
21
-3.07999
31
-1.50999
12
-6
22
-3.09999
32
-1.65999
13
-6
23
-3.09999
33
-1.65999
0
3DFACE
8
0
10
-6.01999
20
-2.70999
30
-1.56999
11
-4.87999
21
-2.70999
31
-1.43999
12
-6
22
-2.92999
32
-1.57999
13
-6
23
-2.92999
33
-1.57999
0
3DFACE
8
0
10
-6
20
-2.92999
30
-1.57999
11
-4.87999
21
-2.70999
31
-1.43999
12
-4.85999
22
-2.95999
32
-1.45
13
-4.85999
23
-2.95999
33
-1.45
0
3DFACE
8
0
10
-4.87
20
-3.07999
30
-1.50999
11
-4.85999
21
-2.95999
31
-1.45
12
-6
22
-2.92999
32
-1.57999
13
-6
23
-2.92999
33
-1.57999
0
3DFACE
8
0
10
-4.87
20
-3.07999
30
-1.50999
11
-3.67
21
-2.98999
31
-1.43999
12
-4.85999
22
-2.95999
32
-1.45
13
-4.85999
23
-2.95999
33
-1.45
0
3DFACE
8
0
10
-4.87999
20
-2.70999
30
-1.43999
11
-4.85999
21
-2.95999
31
-1.45
12
-3.67
22
-2.98999
32
-1.43999
13
-3.67
23
-2.98999
33
-1.43999
0
3DFACE
8
0
10
-4.87999
20
-2.70999
30
-1.43999
11
-3.67
21
-2.98999
31
-1.43999
12
-3.73999
22
-2.68999
32
-1.39999
13
-3.73999
23
-2.68999
33
-1.39999
0
3DFACE
8
0
10
-3.73999
20
-2.68999
30
-1.39999
11
-3.07999
21
-2.67999
31
-1.39999
12
-3.67
22
-2.98999
32
-1.43999
13
-3.67
23
-2.98999
33
-1.43999
0
3DFACE
8
0
10
-3.67
20
-2.98999
30
-1.43999
11
-3.07999
21
-2.67999
31
-1.39999
12
-3.04999
22
-2.96999
32
-1.43999
13
-3.04999
23
-2.96999
33
-1.43999
0
3DFACE
8
0
10
-3.07999
20
-2.67999
30
-1.39999
11
-3.04999
21
-2.96999
31
-1.43999
12
-2.65999
22
-2.95
32
-1.43999
13
-2.65999
23
-2.95
33
-1.43999
0
3DFACE
8
0
10
-2.67
20
-2.67
30
-1.40999
11
-2.65999
21
-2.95
31
-1.43999
12
-3.07999
22
-2.67999
32
-1.39999
13
-3.07999
23
-2.67999
33
-1.39999
0
3DFACE
8
0
10
-2.65999
20
-2.95
30
-1.43999
11
-2.21999
21
-2.92999
31
-1.42999
12
-2.67
22
-2.67
32
-1.40999
13
-2.67
23
-2.67
33
-1.40999
0
3DFACE
8
0
10
-3.07999
20
-2.67999
30
-1.39999
11
-2.67
21
-2.67
31
-1.40999
12
-2.82999
22
-2.48
32
-1.39
13
-2.82999
23
-2.48
33
-1.39
0
3DFACE
8
0
10
1.43999
20
-2.82999
30
-1.39999
11
1.45
21
-2.67
31
-1.32999
12
-1.04999
22
-2.82999
32
-1.42
13
-1.04999
23
-2.82999
33
-1.42
0
3DFACE
8
0
10
1.43999
20
-2.82999
30
-1.39999
11
2.31
21
-2.71999
31
-1.31999
12
1.45
22
-2.67
32
-1.32999
13
1.45
23
-2.67
33
-1.32999
0
3DFACE
8
0
10
1.45
20
-2.67
30
-1.32999
11
2.31
21
-2.64
31
-1.31
12
2.31
22
-2.71999
32
-1.31999
13
2.31
23
-2.71999
33
-1.31999
0
3DFACE
8
0
10
1.43999
20
-2.82999
30
-1.39999
11
2.31
21
-2.71999
31
-1.31999
12
2.17999
22
-2.82999
32
-1.37
13
2.17999
23
-2.82999
33
-1.37
0
3DFACE
8
0
10
2.17999
20
-2.82999
30
-1.37
11
3.26999
21
-2.81999
31
-1.34999
12
2.31
22
-2.71999
32
-1.31999
13
2.31
23
-2.71999
33
-1.31999
0
3DFACE
8
0
10
3.26999
20
-2.81999
30
-1.34999
11
3.5
21
-2.70999
31
-1.14
12
2.31
22
-2.71999
32
-1.31999
13
2.31
23
-2.71999
33
-1.31999
0
3DFACE
8
0
10
3.5
20
-2.70999
30
-1.14
11
4.89999
21
-2.48
31
-1.2
12
3.26999
22
-2.81999
32
-1.34999
13
3.26999
23
-2.81999
33
-1.34999
0
3DFACE
8
0
10
3.26999
20
-2.81999
30
-1.34999
11
5.20999
21
-2.74998
31
-1.39
12
4.89999
22
-2.48
32
-1.2
13
4.89999
23
-2.48
33
-1.2
0
3DFACE
8
0
10
7.2
20
-2.53
30
-1.57999
11
7.84
21
-1.78
31
-1.40999
12
7.78999
22
-2.42
32
-1.67
13
7.78999
23
-2.42
33
-1.67
0
3DFACE
8
0
10
7.28999
20
-1.78999
30
-1.42999
11
7.84
21
-1.78
31
-1.40999
12
7.2
22
-2.53
32
-1.57999
13
7.2
23
-2.53
33
-1.57999
0
3DFACE
8
0
10
7.28999
20
-1.78999
30
-1.42999
11
7.34999
21
-0.729996
31
-1.29999
12
7.84
22
-1.78
32
-1.40999
13
7.84
23
-1.78
33
-1.40999
0
3DFACE
8
0
10
7.34999
20
-0.729996
30
-1.29999
11
7.92
21
-0.669998
31
-1.34999
12
7.84
22
-1.78
32
-1.40999
13
7.84
23
-1.78
33
-1.40999
0
3DFACE
8
0
10
7.35999
20
0.149994
30
-1.26999
11
7.92
21
-0.669998
31
-1.34999
12
7.34999
22
-0.729996
32
-1.29999
13
7.34999
23
-0.729996
33
-1.29999
0
3DFACE
8
0
10
7.31999
20
1.04999
30
-1.28999
11
7.87999
21
1.01999
31
-1.34999
12
7.35999
22
0.149994
32
-1.26999
13
7.35999
23
0.149994
33
-1.26999
0
3DFACE
8
0
10
7.10999
20
2.85999
30
-1.48
11
7.62
21
3.07999
31
-1.92999
12
7.68999
22
2.78999
32
-1.56999
13
7.68999
23
2.78999
33
-1.56999
0
3DFACE
8
0
10
6.15999
20
2.93999
30
-1.37999
11
7.06
21
3.14
31
-1.87999
12
7.10999
22
2.85999
32
-1.48
13
7.10999
23
2.85999
33
-1.48
0
3DFACE
8
0
10
5.09999
20
2.98
30
-1.29999
11
6.06
21
3.2
31
-1.82999
12
6.15999
22
2.93999
32
-1.37999
13
6.15999
23
2.93999
33
-1.37999
0
3DFACE
8
0
10
3.64
20
3.34999
30
-1.71999
11
5.09999
21
2.98
31
-1.29999
12
4.84999
22
3.25999
32
-1.78999
13
4.84999
23
3.25999
33
-1.78999
0
3DFACE
8
0
10
3.64
20
3.34999
30
-1.71999
11
5.09999
21
2.98
31
-1.29999
12
3.15999
22
2.98
32
-1.24998
13
3.15999
23
2.98
33
-1.24998
0
3DFACE
8
0
10
3.15999
20
2.98
30
-1.24998
11
3.64
21
3.34999
31
-1.71999
12
3.23999
22
3.34999
32
-1.70999
13
3.23999
23
3.34999
33
-1.70999
0
3DFACE
8
0
10
3.15999
20
2.98
30
-1.24998
11
3.23999
21
3.34999
31
-1.70999
12
2.67999
22
3.25999
32
-1.76999
13
2.67999
23
3.25999
33
-1.76999
0
3DFACE
8
0
10
2.15999
20
3.09
30
-1.48999
11
2.67999
21
3.25999
31
-1.76999
12
3.15999
22
2.98
32
-1.24998
13
3.15999
23
2.98
33
-1.24998
0
3DFACE
8
0
10
2.06999
20
2.95
30
-1.26999
11
2.15999
21
3.09
31
-1.48999
12
3.15999
22
2.98
32
-1.24998
13
3.15999
23
2.98
33
-1.24998
0
3DFACE
8
0
10
2.14
20
3.17999
30
-1.76999
11
2.15999
21
3.09
31
-1.48999
12
2.67999
22
3.25999
32
-1.76999
13
2.67999
23
3.25999
33
-1.76999
0
3DFACE
8
0
10
1.93999
20
3.07999
30
-1.45
11
1.93999
21
3.18999
31
-1.75999
12
2.15999
22
3.09
32
-1.48999
13
2.15999
23
3.09
33
-1.48999
0
3DFACE
8
0
10
1.93999
20
3.07999
30
-1.45
11
2.15999
21
3.09
31
-1.48999
12
2.06999
22
2.95
32
-1.26999
13
2.06999
23
2.95
33
-1.26999
0
3DFACE
8
0
10
1.32999
20
2.92
30
-1.29999
11
1.93999
21
3.07999
31
-1.45
12
2.06999
22
2.95
32
-1.26999
13
2.06999
23
2.95
33
-1.26999
0
3DFACE
8
0
10
-1.14
20
3.06999
30
-1.46999
11
1.31999
21
3.17999
31
-1.76999
12
1.31999
22
3.04999
32
-1.43999
13
1.31999
23
3.04999
33
-1.43999
0
3DFACE
8
0
10
-1.14999
20
2.95999
30
-1.32999
11
1.31999
21
3.04999
31
-1.43999
12
1.32999
22
2.92
32
-1.29999
13
1.32999
23
2.92
33
-1.29999
0
3DFACE
8
0
10
-2.10999
20
3.06
30
-1.5
11
-1.14
21
3.06999
31
-1.46999
12
-1.14999
22
2.95999
32
-1.32999
13
-1.14999
23
2.95999
33
-1.32999
0
3DFACE
8
0
10
-1.93999
20
2.89999
30
-1.31999
11
-1.14999
21
2.95999
31
-1.32999
12
-2.10999
22
3.06
32
-1.5
13
-2.10999
23
3.06
33
-1.5
0
3DFACE
8
0
10
-2.59
20
3.06
30
-1.53999
11
-1.93999
21
2.89999
31
-1.31999
12
-2.10999
22
3.06
32
-1.5
13
-2.10999
23
3.06
33
-1.5
0
3DFACE
8
0
10
-2.59
20
3.06
30
-1.53999
11
-2.34
21
2.87
31
-1.32999
12
-1.93999
22
2.89999
32
-1.31999
13
-1.93999
23
2.89999
33
-1.31999
0
3DFACE
8
0
10
-3.78999
20
2.87999
30
-1.34
11
-2.34
21
2.87
31
-1.32999
12
-2.59
22
3.06
32
-1.53999
13
-2.59
23
3.06
33
-1.53999
0
3DFACE
8
0
10
-3.82999
20
3.09
30
-1.57999
11
-2.76999
21
3.17
31
-1.79999
12
-2.59
22
3.06
32
-1.53999
13
-2.59
23
3.06
33
-1.53999
0
3DFACE
8
0
10
-3.82999
20
3.09
30
-1.57999
11
-3.78999
21
2.87999
31
-1.34
12
-2.59
22
3.06
32
-1.53999
13
-2.59
23
3.06
33
-1.53999
0
3DFACE
8
0
10
-4.98999
20
2.92
30
-1.40999
11
-3.82999
21
3.09
31
-1.57999
12
-3.78999
22
2.87999
32
-1.34
13
-3.78999
23
2.87999
33
-1.34
0
3DFACE
8
0
10
-4.98
20
3.12
30
-1.62999
11
-3.82999
21
3.09
31
-1.57999
12
-4.98999
22
2.92
32
-1.40999
13
-4.98999
23
2.92
33
-1.40999
0
3DFACE
8
0
10
-4.92
20
3.21999
30
-1.89
11
-3.82999
21
3.09
31
-1.57999
12
-4.98
22
3.12
32
-1.62999
13
-4.98
23
3.12
33
-1.62999
0
3DFACE
8
0
10
-4.92
20
3.21999
30
-1.89
11
-3.82999
21
3.09
31
-1.57999
12
-3.81999
22
3.18999
32
-1.81999
13
-3.81999
23
3.18999
33
-1.81999
0
3DFACE
8
0
10
-5.81999
20
3.15999
30
-1.68999
11
-4.98
21
3.12
31
-1.62999
12
-4.92
22
3.21999
32
-1.89
13
-4.92
23
3.21999
33
-1.89
0
3DFACE
8
0
10
-5.81999
20
3.15999
30
-1.68999
11
-4.98999
21
2.92
31
-1.40999
12
-4.98
22
3.12
32
-1.62999
13
-4.98
23
3.12
33
-1.62999
0
3DFACE
8
0
10
-5.81999
20
3.15999
30
-1.68999
11
-4.98999
21
2.92
31
-1.40999
12
-6.12
22
2.89999
32
-1.56
13
-6.12
23
2.89999
33
-1.56
0
3DFACE
8
0
10
-6.32999
20
3.14999
30
-1.79999
11
-6.12
21
2.89999
31
-1.56
12
-5.81999
22
3.15999
32
-1.68999
13
-5.81999
23
3.15999
33
-1.68999
0
3DFACE
8
0
10
-6.32999
20
3.14999
30
-1.79999
11
-6.12
21
2.89999
31
-1.56
12
-6.81999
22
2.85999
32
-1.73
13
-6.81999
23
2.85999
33
-1.73
0
3DFACE
8
0
10
-7.26999
20
2.64999
30
-1.78
11
-7.21999
21
2.81999
31
-1.85999
12
-6.81999
22
2.85999
32
-1.73
13
-6.81999
23
2.85999
33
-1.73
0
3DFACE
8
0
10
-7.26999
20
2.45
30
-1.75999
11
-6.12999
21
2.50999
31
-1.48
12
-6.12
22
2.73
32
-1.48999
13
-6.12
23
2.73
33
-1.48999
0
3DFACE
8
0
10
-7.26999
20
2.45
30
-1.75999
11
-6.12
21
2.73
31
-1.48999
12
-7.26999
22
2.64999
32
-1.78
13
-7.26999
23
2.64999
33
-1.78
0
3DFACE
8
0
10
-7.26999
20
2.64999
30
-1.78
11
-6.81999
21
2.85999
31
-1.73
12
-6.12
22
2.73
32
-1.48999
13
-6.12
23
2.73
33
-1.48999
0
3DFACE
8
0
10
-6.81999
20
2.85999
30
-1.73
11
-6.12
21
2.73
31
-1.48999
12
-6.12
22
2.89999
32
-1.56
13
-6.12
23
2.89999
33
-1.56
0
3DFACE
8
0
10
-6.12
20
2.73
30
-1.48999
11
-4.98999
21
2.54999
31
-1.34999
12
-6.12999
22
2.50999
32
-1.48
13
-6.12999
23
2.50999
33
-1.48
0
3DFACE
8
0
10
-6.12
20
2.89999
30
-1.56
11
-4.98999
21
2.92
31
-1.40999
12
-6.12
22
2.73
32
-1.48999
13
-6.12
23
2.73
33
-1.48999
0
3DFACE
8
0
10
-6.12
20
2.73
30
-1.48999
11
-4.98999
21
2.92
31
-1.40999
12
-4.98
22
2.79999
32
-1.34999
13
-4.98
23
2.79999
33
-1.34999
0
3DFACE
8
0
10
-4.98999
20
2.54999
30
-1.34999
11
-4.98
21
2.79999
31
-1.34999
12
-6.12
22
2.73
32
-1.48999
13
-6.12
23
2.73
33
-1.48999
0
3DFACE
8
0
10
-4.98999
20
2.92
30
-1.40999
11
-4.98
21
2.79999
31
-1.34999
12
-3.78999
22
2.87999
32
-1.34
13
-3.78999
23
2.87999
33
-1.34
0
3DFACE
8
0
10
-4.98999
20
2.54999
30
-1.34999
11
-3.78999
21
2.87999
31
-1.34
12
-4.98
22
2.79999
32
-1.34999
13
-4.98
23
2.79999
33
-1.34999
0
3DFACE
8
0
10
-4.98999
20
2.54999
30
-1.34999
11
-3.84999
21
2.56999
31
-1.31
12
-3.78999
22
2.87999
32
-1.34
13
-3.78999
23
2.87999
33
-1.34
0
3DFACE
8
0
10
-3.84999
20
2.56999
30
-1.31
11
-3.78999
21
2.87999
31
-1.34
12
-3.18999
22
2.57999
32
-1.31
13
-3.18999
23
2.57999
33
-1.31
0
3DFACE
8
0
10
-3.78999
20
2.87999
30
-1.34
11
-3.17
21
2.87999
31
-1.34
12
-3.18999
22
2.57999
32
-1.31
13
-3.18999
23
2.57999
33
-1.31
0
3DFACE
8
0
10
-3.18999
20
2.57999
30
-1.31
11
-3.17
21
2.87999
31
-1.34
12
-2.78
22
2.87999
32
-1.34
13
-2.78
23
2.87999
33
-1.34
0
3DFACE
8
0
10
-3.18999
20
2.57999
30
-1.31
11
-2.78
21
2.87999
31
-1.34
12
-2.78
22
2.59
32
-1.31
13
-2.78
23
2.59
33
-1.31
0
3DFACE
8
0
10
-2.78
20
2.59
30
-1.31
11
-2.78
21
2.87999
31
-1.34
12
-2.34
22
2.87
32
-1.32999
13
-2.34
23
2.87
33
-1.32999
0
3DFACE
8
0
10
-2.34
20
2.87
30
-1.32999
11
-1.7
21
2.53
31
-0.919998
12
-1.93999
22
2.89999
32
-1.31999
13
-1.93999
23
2.89999
33
-1.31999
0
3DFACE
8
0
10
-1.17
20
2.81999
30
-1.32999
11
1.32999
21
2.92
31
-1.29999
12
1.34999
22
2.76999
32
-1.23999
13
1.34999
23
2.76999
33
-1.23999
0
3DFACE
8
0
10
1.32999
20
2.92
30
-1.29999
11
1.34999
21
2.76999
31
-1.23999
12
2.2
22
2.84
32
-1.23
13
2.2
23
2.84
33
-1.23
0
3DFACE
8
0
10
2.2
20
2.84
30
-1.23
11
2.20999
21
2.74998
31
-1.23
12
1.34999
22
2.76999
32
-1.23999
13
1.34999
23
2.76999
33
-1.23999
0
3DFACE
8
0
10
2.06999
20
2.95
30
-1.26999
11
2.2
21
2.84
31
-1.23
12
1.32999
22
2.92
32
-1.29999
13
1.32999
23
2.92
33
-1.29999
0
3DFACE
8
0
10
2.06999
20
2.95
30
-1.26999
11
2.2
21
2.84
31
-1.23
12
3.15999
22
2.98
32
-1.24998
13
3.15999
23
2.98
33
-1.24998
0
3DFACE
8
0
10
2.2
20
2.84
30
-1.23
11
3.15999
21
2.98
31
-1.24998
12
3.34
22
2.87
32
-1.06999
13
3.34
23
2.87
33
-1.06999
0
3DFACE
8
0
10
3.15999
20
2.98
30
-1.24998
11
4.85999
21
2.7
31
-1.12
12
3.34
22
2.87
32
-1.06999
13
3.34
23
2.87
33
-1.06999
0
3DFACE
8
0
10
3.34
20
2.87
30
-1.06999
11
4.85999
21
2.7
31
-1.12
12
3.34999
22
2.74998
32
-1.09999
13
3.34999
23
2.74998
33
-1.09999
0
3DFACE
8
0
10
3.15999
20
2.98
30
-1.24998
11
4.85999
21
2.7
31
-1.12
12
5.09999
22
2.98
32
-1.29999
13
5.09999
23
2.98
33
-1.29999
0
3DFACE
8
0
10
4.85999
20
2.7
30
-1.12
11
5.95
21
2.34999
31
-1.12999
12
5.09999
22
2.98
32
-1.29999
13
5.09999
23
2.98
33
-1.29999
0
3DFACE
8
0
10
5.09999
20
2.98
30
-1.29999
11
6.15999
21
2.93999
31
-1.37999
12
5.95
22
2.34999
32
-1.12999
13
5.95
23
2.34999
33
-1.12999
0
3DFACE
8
0
10
6.15999
20
2.93999
30
-1.37999
11
7.10999
21
2.85999
31
-1.48
12
5.95
22
2.34999
32
-1.12999
13
5.95
23
2.34999
33
-1.12999
0
3DFACE
8
0
10
5.95
20
2.34999
30
-1.12999
11
7.10999
21
2.85999
31
-1.48
12
6.17999
22
2.07999
32
-1.14
13
6.17999
23
2.07999
33
-1.14
0
3DFACE
8
0
10
7.10999
20
2.85999
30
-1.48
11
7.21999
21
2.12
31
-1.37999
12
6.17999
22
2.07999
32
-1.14
13
6.17999
23
2.07999
33
-1.14
0
3DFACE
8
0
10
7.10999
20
2.85999
30
-1.48
11
7.68999
21
2.78999
31
-1.56999
12
7.76999
22
2.14
32
-1.34999
13
7.76999
23
2.14
33
-1.34999
0
3DFACE
8
0
10
7.21999
20
2.12
30
-1.37999
11
7.76999
21
2.14
31
-1.34999
12
7.10999
22
2.85999
32
-1.48
13
7.10999
23
2.85999
33
-1.48
0
3DFACE
8
0
10
7.21999
20
2.12
30
-1.37999
11
7.31999
21
1.04999
31
-1.28999
12
7.76999
22
2.14
32
-1.34999
13
7.76999
23
2.14
33
-1.34999
0
3DFACE
8
0
10
7.76999
20
2.14
30
-1.34999
11
7.87999
21
1.01999
31
-1.34999
12
7.31999
22
1.04999
32
-1.28999
13
7.31999
23
1.04999
33
-1.28999
0
3DFACE
8
0
10
6.17999
20
2.07999
30
-1.14
11
7.21999
21
2.12
31
-1.37999
12
7.31999
22
1.04999
32
-1.28999
13
7.31999
23
1.04999
33
-1.28999
0
3DFACE
8
0
10
6.71999
20
1.06
30
-1.15999
11
7.31999
21
1.04999
31
-1.28999
12
6.17999
22
2.07999
32
-1.14
13
6.17999
23
2.07999
33
-1.14
0
3DFACE
8
0
10
6.71999
20
1.06
30
-1.15999
11
6.81999
21
0.159988
31
-1.17
12
7.31999
22
1.04999
32
-1.28999
13
7.31999
23
1.04999
33
-1.28999
0
3DFACE
8
0
10
7.31999
20
1.04999
30
-1.28999
11
7.35999
21
0.149994
31
-1.26999
12
6.81999
22
0.159988
32
-1.17
13
6.81999
23
0.159988
33
-1.17
0
3DFACE
8
0
10
6.81999
20
0.159988
30
-1.17
11
7.35999
21
0.149994
31
-1.26999
12
7.34999
22
-0.729996
32
-1.29999
13
7.34999
23
-0.729996
33
-1.29999
0
3DFACE
8
0
10
6.71999
20
-0.779999
30
-1.18999
11
7.34999
21
-0.729996
31
-1.29999
12
6.81999
22
0.159988
32
-1.17
13
6.81999
23
0.159988
33
-1.17
0
3DFACE
8
0
10
6.25999
20
-1.81
30
-1.2
11
6.71999
21
-0.779999
31
-1.18999
12
7.34999
22
-0.729996
32
-1.29999
13
7.34999
23
-0.729996
33
-1.29999
0
3DFACE
8
0
10
7.28999
20
-1.78999
30
-1.42999
11
7.34999
21
-0.729996
31
-1.29999
12
6.25999
22
-1.81
32
-1.2
13
6.25999
23
-1.81
33
-1.2
0
3DFACE
8
0
10
6.25999
20
-1.81
30
-1.2
11
7.28999
21
-1.78999
31
-1.42999
12
7.2
22
-2.53
32
-1.57999
13
7.2
23
-2.53
33
-1.57999
0
3DFACE
8
0
10
6.25999
20
-1.81
30
-1.2
11
7.2
21
-2.53
31
-1.57999
12
6.04999
22
-2.06
32
-1.2
13
6.04999
23
-2.06
33
-1.2
0
3DFACE
8
0
10
6.26999
20
-2.65999
30
-1.46999
11
7.2
21
-2.53
31
-1.57999
12
6.04999
22
-2.06
32
-1.2
13
6.04999
23
-2.06
33
-1.2
0
3DFACE
8
0
10
6.04999
20
-2.06
30
-1.2
11
6.26999
21
-2.65999
31
-1.46999
12
5.20999
22
-2.74998
32
-1.39
13
5.20999
23
-2.74998
33
-1.39
0
3DFACE
8
0
10
4.89999
20
-2.48
30
-1.2
11
5.20999
21
-2.74998
31
-1.39
12
6.04999
22
-2.06
32
-1.2
13
6.04999
23
-2.06
33
-1.2
0
3DFACE
8
0
10
3.5
20
-2.59
30
-1.17999
11
4.89999
21
-2.48
31
-1.2
12
3.5
22
-2.70999
32
-1.14
13
3.5
23
-2.70999
33
-1.14
0
3DFACE
8
0
10
2.37
20
-2.37999
30
-0.62999
11
3.5
21
-2.70999
31
-1.14
12
2.31
22
-2.71999
32
-1.31999
13
2.31
23
-2.71999
33
-1.31999
0
3DFACE
8
0
10
3.32999
20
-2.39999
30
-0.689987
11
3.5
21
-2.70999
31
-1.14
12
2.37
22
-2.37999
32
-0.62999
13
2.37
23
-2.37999
33
-0.62999
0
3DFACE
8
0
10
-2.42999
20
2.84
30
-1.40999
11
-2.34
21
2.87
31
-1.32999
12
-1.7
22
2.53
32
-0.919998
13
-1.7
23
2.53
33
-0.919998
0
3DFACE
8
0
10
-1.93999
20
2.89999
30
-1.31999
11
-1.39
21
2.64
31
-0.939987
12
-1.7
22
2.53
32
-0.919998
13
-1.7
23
2.53
33
-0.919998
0
3DFACE
8
0
10
-1.7
20
2.53
30
-0.919998
11
-1.39
21
2.64
31
-0.939987
12
-1.10999
22
2.28999
32
-0.609985
13
-1.10999
23
2.28999
33
-0.609985
0
3DFACE
8
0
10
-1.39
20
2.64
30
-0.939987
11
-1.10999
21
2.28999
31
-0.609985
12
0.189987
22
1.98999
32
-0.0999908
13
0.189987
23
1.98999
33
-0.0999908
0
3DFACE
8
0
10
-0.0599976
20
1.85999
30
-0.119995
11
0.189987
21
1.98999
31
-0.0999908
12
-1.10999
22
2.28999
32
-0.609985
13
-1.10999
23
2.28999
33
-0.609985
0
3DFACE
8
0
10
-2.21999
20
-2.92999
30
-1.42999
11
-1.81999
21
-2.93999
31
-1.42
12
-1.59
22
-2.57999
32
-1
13
-1.59
23
-2.57999
33
-1
0
3DFACE
8
0
10
-1.59
20
-2.57999
30
-1
11
-1.28
21
-2.67
31
-1.03
12
-1.81999
22
-2.93999
32
-1.42
13
-1.81999
23
-2.93999
33
-1.42
0
3DFACE
8
0
10
-1.28
20
-2.67
30
-1.03
11
-1.00999
21
-2.31999
31
-0.689987
12
-1.59
22
-2.57999
32
-1
13
-1.59
23
-2.57999
33
-1
0
3DFACE
8
0
10
-1.28
20
-2.67
30
-1.03
11
0.259995
21
-1.98999
31
-0.169998
12
-1.00999
22
-2.31999
32
-0.689987
13
-1.00999
23
-2.31999
33
-0.689987
0
3DFACE
8
0
10
-1.00999
20
-2.31999
30
-0.689987
11
0.00999451
21
-1.87
31
-0.179993
12
0.259995
22
-1.98999
32
-0.169998
13
0.259995
23
-1.98999
33
-0.169998
0
3DFACE
8
0
10
-3.18999
20
2.57999
30
-1.31
11
-2.78
21
2.59
31
-1.31
12
-2.92999
22
2.39999
32
-1.31
13
-2.92999
23
2.39999
33
-1.31
0
3DFACE
8
0
10
-3.18999
20
2.57999
30
-1.31
11
-2.92999
21
2.39999
31
-1.31
12
-3.28
22
1.17
32
-1.25999
13
-3.28
23
1.17
33
-1.25999
0
3DFACE
8
0
10
-8.70999
20
0.969986
30
-2.31999
11
-7.26999
21
2.45
31
-1.75999
12
-8.54999
22
2.39
32
-2.34
13
-8.54999
23
2.39
33
-2.34
0
3DFACE
8
0
10
-8.70999
20
0.969986
30
-2.31999
11
-7.2
21
1.03
31
-1.76999
12
-7.26999
22
2.45
32
-1.75999
13
-7.26999
23
2.45
33
-1.75999
0
3DFACE
8
0
10
-8.70999
20
0.969986
30
-2.31999
11
-7.2
21
1.03
31
-1.76999
12
-7.20999
22
-0.119995
32
-1.73999
13
-7.20999
23
-0.119995
33
-1.73999
0
3DFACE
8
0
10
-8.73
20
-0.139999
30
-2.31999
11
-7.20999
21
-0.119995
31
-1.73999
12
-8.70999
22
0.969986
32
-2.31999
13
-8.70999
23
0.969986
33
-2.31999
0
3DFACE
8
0
10
-8.73
20
-0.139999
30
-2.31999
11
-8.65999
21
-1.24998
31
-2.34999
12
-7.20999
22
-0.119995
32
-1.73999
13
-7.20999
23
-0.119995
33
-1.73999
0
3DFACE
8
0
10
-7.20999
20
-0.119995
30
-1.73999
11
-7.14999
21
-1.26999
31
-1.81
12
-8.65999
22
-1.24998
32
-2.34999
13
-8.65999
23
-1.24998
33
-2.34999
0
3DFACE
8
0
10
-8.65999
20
-1.24998
30
-2.34999
11
-7.15999
21
-2.68999
31
-1.84999
12
-7.14999
22
-1.26999
32
-1.81
13
-7.14999
23
-1.26999
33
-1.81
0
3DFACE
8
0
10
-8.65999
20
-1.24998
30
-2.34999
11
-8.43999
21
-2.64999
31
-2.42
12
-7.15999
22
-2.68999
32
-1.84999
13
-7.15999
23
-2.68999
33
-1.84999
0
3DFACE
8
0
10
-7.15999
20
-2.68999
30
-1.84999
11
-6.07999
21
-1.31999
31
-1.54999
12
-7.14999
22
-1.26999
32
-1.81
13
-7.14999
23
-1.26999
33
-1.81
0
3DFACE
8
0
10
-7.20999
20
-0.119995
30
-1.73999
11
-7.14999
21
-1.26999
31
-1.81
12
-6.07999
22
-1.20999
32
-1.51999
13
-6.07999
23
-1.20999
33
-1.51999
0
3DFACE
8
0
10
-7.20999
20
-0.119995
30
-1.73999
11
-6.07999
21
-1.20999
31
-1.51999
12
-6.10999
22
-0.179993
32
-1.43999
13
-6.10999
23
-0.179993
33
-1.43999
0
3DFACE
8
0
10
-7.20999
20
-0.119995
30
-1.73999
11
-6.12
21
-0.0299988
31
-1.43999
12
-6.12999
22
1.00999
32
-1.48999
13
-6.12999
23
1.00999
33
-1.48999
0
3DFACE
8
0
10
-7.20999
20
-0.119995
30
-1.73999
11
-6.12999
21
1.00999
31
-1.48999
12
-7.2
22
1.03
32
-1.76999
13
-7.2
23
1.03
33
-1.76999
0
3DFACE
8
0
10
-7.26999
20
2.45
30
-1.75999
11
-6.12999
21
1.12
31
-1.50999
12
-6.12999
22
2.50999
32
-1.48
13
-6.12999
23
2.50999
33
-1.48
0
3DFACE
8
0
10
-6.12999
20
2.50999
30
-1.48
11
-4.98
21
1.17999
31
-1.35999
12
-4.98999
22
2.54999
32
-1.34999
13
-4.98999
23
2.54999
33
-1.34999
0
3DFACE
8
0
10
-5
20
1.04999
30
-1.31
11
-4.96999
21
-0.00999451
31
-1.26999
12
-6.12999
22
1.00999
32
-1.48999
13
-6.12999
23
1.00999
33
-1.48999
0
3DFACE
8
0
10
-6.12999
20
1.00999
30
-1.48999
11
-4.96999
21
-0.00999451
31
-1.26999
12
-6.12
22
-0.0299988
32
-1.43999
13
-6.12
23
-0.0299988
33
-1.43999
0
3DFACE
8
0
10
-6.10999
20
-0.179993
30
-1.43999
11
-4.95999
21
-0.159988
31
-1.26999
12
-6.07999
22
-1.20999
32
-1.51999
13
-6.07999
23
-1.20999
33
-1.51999
0
3DFACE
8
0
10
-6.07999
20
-1.20999
30
-1.51999
11
-4.95999
21
-0.159988
31
-1.26999
12
-4.95
22
-1.21999
32
-1.34
13
-4.95
23
-1.21999
33
-1.34
0
3DFACE
8
0
10
-6.01999
20
-2.70999
30
-1.56999
11
-4.92
21
-1.34
31
-1.39999
12
-6.07999
22
-1.31999
32
-1.54999
13
-6.07999
23
-1.31999
33
-1.54999
0
3DFACE
8
0
10
-4.87999
20
-2.70999
30
-1.43999
11
-3.81999
21
-1.31999
31
-1.34
12
-4.92
22
-1.34
32
-1.39999
13
-4.92
23
-1.34
33
-1.39999
0
3DFACE
8
0
10
-4.95999
20
-0.159988
30
-1.26999
11
-4.95
21
-1.21999
31
-1.34
12
-3.81
22
-1.18999
32
-1.26999
13
-3.81
23
-1.18999
33
-1.26999
0
3DFACE
8
0
10
-4.95999
20
-0.159988
30
-1.26999
11
-3.81
21
-1.18999
31
-1.26999
12
-3.84999
22
-0.149994
32
-1.20999
13
-3.84999
23
-0.149994
33
-1.20999
0
3DFACE
8
0
10
-4.96999
20
-0.00999451
30
-1.26999
11
-3.85999
21
0.019989
31
-1.20999
12
-3.85999
22
1.06999
32
-1.23999
13
-3.85999
23
1.06999
33
-1.23999
0
3DFACE
8
0
10
-4.96999
20
-0.00999451
30
-1.26999
11
-3.85999
21
1.06999
31
-1.23999
12
-5
22
1.04999
32
-1.31
13
-5
23
1.04999
33
-1.31
0
3DFACE
8
0
10
-4.98999
20
2.54999
30
-1.34999
11
-3.87999
21
1.2
31
-1.29999
12
-3.84999
22
2.56999
32
-1.31
13
-3.84999
23
2.56999
33
-1.31
0
3DFACE
8
0
10
-3.84999
20
2.56999
30
-1.31
11
-3.28
21
1.17
31
-1.25999
12
-3.18999
22
2.57999
32
-1.31
13
-3.18999
23
2.57999
33
-1.31
0
3DFACE
8
0
10
-3.73999
20
-2.68999
30
-1.39999
11
-3.23
21
-1.26999
31
-1.29999
12
-3.81999
22
-1.31999
32
-1.34
13
-3.81999
23
-1.31999
33
-1.34
0
3DFACE
8
0
10
-3.23
20
-1.26999
30
-1.29999
11
-2.82999
21
-2.48
31
-1.39
12
-3.07999
22
-2.67999
32
-1.39999
13
-3.07999
23
-2.67999
33
-1.39999
0
3DFACE
8
0
10
0.0599976
20
-1.32999
30
-0.0799866
11
0.259995
21
-1.98999
31
-0.169998
12
0.00999451
22
-1.87
32
-0.179993
13
0.00999451
23
-1.87
33
-0.179993
0
3DFACE
8
0
10
-0.139999
20
-1.40999
30
-0.139999
11
0.00999451
21
-1.87
31
-0.179993
12
0.0599976
22
-1.32999
32
-0.0799866
13
0.0599976
23
-1.32999
33
-0.0799866
0
3DFACE
8
0
10
-0.249985
20
-0.889999
30
-0.0999908
11
0.0599976
21
-1.32999
31
-0.0799866
12
-0.139999
22
-1.40999
32
-0.139999
13
-0.139999
23
-1.40999
33
-0.139999
0
3DFACE
8
0
10
-0.019989
20
-0.889999
30
-0.0299988
11
0.0599976
21
-1.32999
31
-0.0799866
12
-0.249985
22
-0.889999
32
-0.0999908
13
-0.249985
23
-0.889999
33
-0.0999908
0
3DFACE
8
0
10
-0.249985
20
-0.889999
30
-0.0999908
11
-0.0799866
21
-0.409988
31
-0.00999451
12
-0.019989
22
-0.889999
32
-0.0299988
13
-0.019989
23
-0.889999
33
-0.0299988
0
3DFACE
8
0
10
-0.339996
20
-0.00999451
30
-0.0699921
11
-0.0799866
21
-0.409988
31
-0.00999451
12
-0.249985
22
-0.889999
32
-0.0999908
13
-0.249985
23
-0.889999
33
-0.0999908
0
3DFACE
8
0
10
-0.0799866
20
-0.409988
30
-0.00999451
11
-0.0299988
21
-0.00999451
31
0
12
-0.339996
22
-0.00999451
32
-0.0699921
13
-0.339996
23
-0.00999451
33
-0.0699921
0
3DFACE
8
0
10
-0.339996
20
-0.00999451
30
-0.0699921
11
-0.0999908
21
0.389999
31
0.00999451
12
-0.0299988
22
-0.00999451
32
0
13
-0.0299988
23
-0.00999451
33
0
0
3DFACE
8
0
10
-0.289993
20
0.869995
30
-0.0699921
11
-0.0999908
21
0.389999
31
0.00999451
12
-0.339996
22
-0.00999451
32
-0.0699921
13
-0.339996
23
-0.00999451
33
-0.0699921
0
3DFACE
8
0
10
-0.0999908
20
0.389999
30
0.00999451
11
-0.0599976
21
0.869995
31
-0.00999451
12
-0.289993
22
0.869995
32
-0.0699921
13
-0.289993
23
0.869995
33
-0.0699921
0
3DFACE
8
0
10
-0.289993
20
0.869995
30
-0.0699921
11
0.00999451
21
1.31999
31
-0.0299988
12
-0.0599976
22
0.869995
32
-0.00999451
13
-0.0599976
23
0.869995
33
-0.00999451
0
3DFACE
8
0
10
-0.199997
20
1.39
30
-0.0899963
11
0.00999451
21
1.31999
31
-0.0299988
12
-0.289993
22
0.869995
32
-0.0699921
13
-0.289993
23
0.869995
33
-0.0699921
0
3DFACE
8
0
10
-0.199997
20
1.39
30
-0.0899963
11
0.00999451
21
1.31999
31
-0.0299988
12
-0.0599976
22
1.85999
32
-0.119995
13
-0.0599976
23
1.85999
33
-0.119995
0
3DFACE
8
0
10
-0.0599976
20
1.85999
30
-0.119995
11
0.189987
21
1.98999
31
-0.0999908
12
0.00999451
22
1.31999
32
-0.0299988
13
0.00999451
23
1.31999
33
-0.0299988
0
3DFACE
8
0
10
-0.0999908
20
0.389999
30
0.00999451
11
-0.00999451
21
0.249985
31
-0.0299988
12
-0.0299988
22
-0.00999451
32
0
13
-0.0299988
23
-0.00999451
33
0
0
3DFACE
8
0
10
0
20
-0.259995
30
-0.0299988
11
2.45999
21
-0.219986
31
0
12
-0.0299988
22
-0.00999451
32
0
13
-0.0299988
23
-0.00999451
33
0
0
3DFACE
8
0
10
-0.0299988
20
-0.00999451
30
0
11
0
21
-0.259995
31
-0.0299988
12
-0.0799866
22
-0.409988
32
-0.00999451
13
-0.0799866
23
-0.409988
33
-0.00999451
0
3DFACE
8
0
10
-0.0299988
20
-0.00999451
30
0
11
-0.00999451
21
0.249985
31
-0.0299988
12
2.45999
22
0.299988
32
0.00999451
13
2.45999
23
0.299988
33
0.00999451
0
3DFACE
8
0
10
2.45999
20
0.299988
30
0.00999451
11
2.46999
21
0.0399933
31
0
12
-0.0299988
22
-0.00999451
32
0
13
-0.0299988
23
-0.00999451
33
0
0
3DFACE
8
0
10
-0.0299988
20
-0.00999451
30
0
11
2.46999
21
0.0399933
31
0
12
2.45999
22
-0.219986
32
0
13
2.45999
23
-0.219986
33
0
0
3DFACE
8
0
10
2.37
20
-2.37999
30
-0.62999
11
3.21999
21
-2.06
31
-0.389999
12
3.32999
22
-2.39999
32
-0.689987
13
3.32999
23
-2.39999
33
-0.689987
0
3DFACE
8
0
10
2.39999
20
-2.03
30
-0.299988
11
3.21999
21
-2.06
31
-0.389999
12
2.37
22
-2.37999
32
-0.62999
13
2.37
23
-2.37999
33
-0.62999
0
3DFACE
8
0
10
2.42999
20
-1.67999
30
-0.139999
11
3.21999
21
-2.06
31
-0.389999
12
2.39999
22
-2.03
32
-0.299988
13
2.39999
23
-2.03
33
-0.299988
0
3DFACE
8
0
10
3.14999
20
-1.74998
30
-0.219986
11
3.21999
21
-2.06
31
-0.389999
12
2.42999
22
-1.67999
32
-0.139999
13
2.42999
23
-1.67999
33
-0.139999
0
3DFACE
8
0
10
2.42999
20
-1.67999
30
-0.139999
11
3.07999
21
-0.799988
31
-0.0799866
12
3.14999
22
-1.74998
32
-0.219986
13
3.14999
23
-1.74998
33
-0.219986
0
3DFACE
8
0
10
2.45999
20
-0.779999
30
0
11
3.07999
21
-0.799988
31
-0.0799866
12
2.42999
22
-1.67999
32
-0.139999
13
2.42999
23
-1.67999
33
-0.139999
0
3DFACE
8
0
10
2.2
20
2.84
30
-1.23
11
3.34
21
2.87
31
-1.06999
12
2.28
22
2.48
32
-0.539993
13
2.28
23
2.48
33
-0.539993
0
3DFACE
8
0
10
2.28
20
2.48
30
-0.539993
11
3.34
21
2.87
31
-1.06999
12
3.18999
22
2.53
32
-0.619995
13
3.18999
23
2.53
33
-0.619995
0
3DFACE
8
0
10
3.09999
20
2.17999
30
-0.329987
11
3.18999
21
2.53
31
-0.619995
12
2.28
22
2.48
32
-0.539993
13
2.28
23
2.48
33
-0.539993
0
3DFACE
8
0
10
2.28
20
2.48
30
-0.539993
11
3.09999
21
2.17999
31
-0.329987
12
2.32999
22
2.10999
32
-0.229996
13
2.32999
23
2.10999
33
-0.229996
0
3DFACE
8
0
10
2.32999
20
2.10999
30
-0.229996
11
3.09999
21
2.17999
31
-0.329987
12
2.35999
22
1.74998
32
-0.0799866
13
2.35999
23
1.74998
33
-0.0799866
0
3DFACE
8
0
10
2.35999
20
1.74998
30
-0.0799866
11
3.09999
21
2.17999
31
-0.329987
12
3.04999
22
1.87
32
-0.169998
13
3.04999
23
1.87
33
-0.169998
0
3DFACE
8
0
10
3.03
20
0.909988
30
-0.0599976
11
3.04999
21
1.87
31
-0.169998
12
2.35999
22
1.74998
32
-0.0799866
13
2.35999
23
1.74998
33
-0.0799866
0
3DFACE
8
0
10
2.35999
20
1.74998
30
-0.0799866
11
3.03
21
0.909988
31
-0.0599976
12
2.42999
22
0.859985
32
0.019989
13
2.42999
23
0.859985
33
0.019989
0
3DFACE
8
0
10
2.42999
20
0.859985
30
0.019989
11
3.03
21
0.909988
31
-0.0599976
12
2.45999
22
0.299988
32
0.00999451
13
2.45999
23
0.299988
33
0.00999451
0
3DFACE
8
0
10
2.45999
20
0.299988
30
0.00999451
11
3.03
21
0.909988
31
-0.0599976
12
3.04999
22
0.0399933
32
-0.0499878
13
3.04999
23
0.0399933
33
-0.0499878
0
3DFACE
8
0
10
2.46999
20
0.0399933
30
0
11
3.04999
21
0.0399933
31
-0.0499878
12
2.45999
22
0.299988
32
0.00999451
13
2.45999
23
0.299988
33
0.00999451
0
3DFACE
8
0
10
2.45999
20
-0.219986
30
0
11
2.46999
21
0.0399933
31
0
12
3.04999
22
0.0399933
32
-0.0499878
13
3.04999
23
0.0399933
33
-0.0499878
0
3DFACE
8
0
10
3.04999
20
0.0399933
30
-0.0499878
11
3.07999
21
-0.799988
31
-0.0799866
12
2.45999
22
-0.219986
32
0
13
2.45999
23
-0.219986
33
0
0
3DFACE
8
0
10
2.45999
20
-0.219986
30
0
11
3.07999
21
-0.799988
31
-0.0799866
12
2.45999
22
-0.779999
32
0
13
2.45999
23
-0.779999
33
0
0
3DFACE
8
0
10
-3.28
20
1.17
30
-1.25999
11
-2.93999
21
2.37
31
-1.39
12
-3.23999
22
1.12999
32
-1.37999
13
-3.23999
23
1.12999
33
-1.37999
0
3DFACE
8
0
10
-3.29999
20
1.01999
30
-1.20999
11
-3.26999
21
-0.0499878
31
-1.39999
12
-3.23999
22
1.12999
32
-1.37999
13
-3.23999
23
1.12999
33
-1.37999
0
3DFACE
8
0
10
-3.26999
20
-0.0499878
30
-1.39999
11
-3.24998
21
-1.12
31
-1.23999
12
-3.31
22
-0.0499878
32
-1.18999
13
-3.31
23
-0.0499878
33
-1.18999
0
3DFACE
8
0
10
-3.23
20
-1.26999
30
-1.29999
11
-2.84
21
-2.45
31
-1.46999
12
-3.18999
22
-1.21999
32
-1.42
13
-3.18999
23
-1.21999
33
-1.42
0
3DFACE
8
0
10
-0.199997
20
1.39
30
-0.0899963
11
-0.0899963
21
1.84
31
-0.259995
12
-0.209991
22
1.39999
32
-0.219986
13
-0.209991
23
1.39999
33
-0.219986
0
3DFACE
8
0
10
-0.289993
20
0.899994
30
-0.189987
11
-0.199997
21
1.39
31
-0.0899963
12
-0.289993
22
0.869995
32
-0.0699921
13
-0.289993
23
0.869995
33
-0.0699921
0
3DFACE
8
0
10
-0.339996
20
-0.00999451
30
-0.179993
11
-0.289993
21
0.869995
31
-0.0699921
12
-0.339996
22
-0.00999451
32
-0.0699921
13
-0.339996
23
-0.00999451
33
-0.0699921
0
3DFACE
8
0
10
-0.339996
20
-0.00999451
30
-0.179993
11
-0.249985
21
-0.889999
31
-0.0999908
12
-0.249985
22
-0.919998
32
-0.219986
13
-0.249985
23
-0.919998
33
-0.219986
0
3DFACE
8
0
10
-0.249985
20
-0.919998
30
-0.219986
11
-0.139999
21
-1.40999
31
-0.139999
12
-0.149994
22
-1.40999
32
-0.259995
13
-0.149994
23
-1.40999
33
-0.259995
0
3DFACE
8
0
10
-0.139999
20
-1.40999
30
-0.139999
11
-0.00999451
21
-1.84999
31
-0.319992
12
-0.149994
22
-1.40999
32
-0.259995
13
-0.149994
23
-1.40999
33
-0.259995
0
3DFACE
8
0
10
0.0999908
20
-1.34
30
-0.199997
11
0.259995
21
-1.98999
31
-0.169998
12
0.309998
22
-1.96999
32
-0.279999
13
0.309998
23
-1.96999
33
-0.279999
0
3DFACE
8
0
10
-0.00999451
20
-0.87999
30
-0.159988
11
0.0599976
21
-1.32999
31
-0.0799866
12
0.0999908
22
-1.34
32
-0.199997
13
0.0999908
23
-1.34
33
-0.199997
0
3DFACE
8
0
10
-0.0599976
20
-0.459991
30
-0.12999
11
-0.019989
21
-0.889999
31
-0.0299988
12
-0.00999451
22
-0.87999
32
-0.159988
13
-0.00999451
23
-0.87999
33
-0.159988
0
3DFACE
8
0
10
-0.0799866
20
-0.409988
30
-0.00999451
11
0.00999451
21
-0.309998
31
-0.149994
12
-0.0599976
22
-0.459991
32
-0.12999
13
-0.0599976
23
-0.459991
33
-0.12999
0
3DFACE
8
0
10
0.00999451
20
-0.309998
30
-0.149994
11
2.45999
21
-0.219986
31
0
12
0
22
-0.259995
32
-0.0299988
13
0
23
-0.259995
33
-0.0299988
0
3DFACE
8
0
10
-0.00999451
20
0.249985
30
-0.0299988
11
2.45
21
0.339996
31
-0.139999
12
2.45999
22
0.299988
32
0.00999451
13
2.45999
23
0.299988
33
0.00999451
0
3DFACE
8
0
10
-0.0999908
20
0.389999
30
0.00999451
11
0
21
0.299988
31
-0.139999
12
-0.0799866
22
0.449997
32
-0.119995
13
-0.0799866
23
0.449997
33
-0.119995
0
3DFACE
8
0
10
-0.0799866
20
0.449997
30
-0.119995
11
-0.0599976
21
0.869995
31
-0.00999451
12
-0.0399933
22
0.869995
32
-0.12999
13
-0.0399933
23
0.869995
33
-0.12999
0
3DFACE
8
0
10
-0.0399933
20
0.869995
30
-0.12999
11
0.00999451
21
1.31999
31
-0.0299988
12
0.0499878
22
1.34
32
-0.159988
13
0.0499878
23
1.34
33
-0.159988
0
3DFACE
8
0
10
0.0499878
20
1.34
30
-0.159988
11
0.189987
21
1.98999
31
-0.0999908
12
0.23999
22
1.98
32
-0.219986
13
0.23999
23
1.98
33
-0.219986
0
3DFACE
8
0
10
3.32999
20
-2.39999
30
-0.689987
11
3.5
21
-2.59
31
-1.17999
12
3.5
22
-2.70999
32
-1.14
13
3.5
23
-2.70999
33
-1.14
0
3DFACE
8
0
10
3.21999
20
-2.06
30
-0.389999
11
3.34
21
-2.32999
31
-0.719986
12
3.32999
22
-2.39999
32
-0.689987
13
3.32999
23
-2.39999
33
-0.689987
0
3DFACE
8
0
10
3.14999
20
-1.74998
30
-0.219986
11
3.23
21
-2.01999
31
-0.439987
12
3.21999
22
-2.06
32
-0.389999
13
3.21999
23
-2.06
33
-0.389999
0
3DFACE
8
0
10
3.07999
20
-0.799988
30
-0.0799866
11
3.17
21
-1.70999
31
-0.289993
12
3.14999
22
-1.74998
32
-0.219986
13
3.14999
23
-1.74998
33
-0.219986
0
3DFACE
8
0
10
3.04999
20
0.0399933
30
-0.0499878
11
3.09999
21
-0.779999
31
-0.149994
12
3.09
22
0.0299988
32
-0.159988
13
3.09
23
0.0299988
33
-0.159988
0
3DFACE
8
0
10
3.04999
20
0.0399933
30
-0.0499878
11
3.04999
21
0.909988
31
-0.119995
12
3.09
22
0.0299988
32
-0.159988
13
3.09
23
0.0299988
33
-0.159988
0
3DFACE
8
0
10
3.03
20
0.909988
30
-0.0599976
11
3.06999
21
1.84
31
-0.23999
12
3.04999
22
1.87
32
-0.169998
13
3.04999
23
1.87
33
-0.169998
0
3DFACE
8
0
10
3.04999
20
1.87
30
-0.169998
11
3.12
21
2.14
31
-0.37999
12
3.09999
22
2.17999
32
-0.329987
13
3.09999
23
2.17999
33
-0.329987
0
3DFACE
8
0
10
3.09999
20
2.17999
30
-0.329987
11
3.20999
21
2.46999
31
-0.669998
12
3.18999
22
2.53
32
-0.619995
13
3.18999
23
2.53
33
-0.619995
0
3DFACE
8
0
10
3.18999
20
2.53
30
-0.619995
11
3.34999
21
2.74998
31
-1.09999
12
3.34
22
2.87
32
-1.06999
13
3.34
23
2.87
33
-1.06999
0
3DFACE
8
0
10
1.53999
20
-2.96999
30
-1.64
11
1.98999
21
-3
31
-1.82999
12
1.98999
22
-2.96999
32
-1.64999
13
1.98999
23
-2.96999
33
-1.64999
0
3DFACE
8
0
10
1.40999
20
3.10999
30
-1.71999
11
1.87
21
3.09
31
-1.54999
12
1.42
22
3.06999
32
-1.53999
13
1.42
23
3.06999
33
-1.53999
0
3DFACE
8
0
10
-2.21999
20
-2.92999
30
-1.42999
11
-1.62999
21
-2.53999
31
-1.12
12
-2.31
22
-2.89999
32
-1.50999
13
-2.31
23
-2.89999
33
-1.50999
0
3DFACE
8
0
10
-1.59
20
-2.57999
30
-1
11
-0.959991
21
-2.24998
31
-0.779999
12
-1.00999
22
-2.31999
32
-0.689987
13
-1.00999
23
-2.31999
33
-0.689987
0
3DFACE
8
0
10
-1.00999
20
-2.31999
30
-0.689987
11
-0.00999451
21
-1.84999
31
-0.319992
12
0.00999451
22
-1.87
32
-0.179993
13
0.00999451
23
-1.87
33
-0.179993
0
3DFACE
8
0
10
-1.7
20
2.53
30
-0.919998
11
-1.04999
21
2.21999
31
-0.709991
12
-1.73
22
2.48999
32
-1.03
13
-1.73
23
2.48999
33
-1.03
0
3DFACE
8
0
10
-1.10999
20
2.28999
30
-0.609985
11
-0.0899963
21
1.84
31
-0.259995
12
-1.04999
22
2.21999
32
-0.709991
13
-1.04999
23
2.21999
33
-0.709991
0
3DFACE
8
0
10
2.31
20
-2.71999
30
-1.31999
11
2.35999
21
-2.31
31
-0.719986
12
2.37
22
-2.37999
32
-0.62999
13
2.37
23
-2.37999
33
-0.62999
0
3DFACE
8
0
10
2.37
20
-2.37999
30
-0.62999
11
2.39
21
-2.00999
31
-0.439987
12
2.39999
22
-2.03
32
-0.299988
13
2.39999
23
-2.03
33
-0.299988
0
3DFACE
8
0
10
2.39999
20
-2.03
30
-0.299988
11
2.40999
21
-1.67
31
-0.259995
12
2.42999
22
-1.67999
32
-0.139999
13
2.42999
23
-1.67999
33
-0.139999
0
3DFACE
8
0
10
2.42999
20
-1.67999
30
-0.139999
11
2.45
21
-0.759995
31
-0.119995
12
2.45999
22
-0.779999
32
0
13
2.45999
23
-0.779999
33
0
0
3DFACE
8
0
10
2.45999
20
-0.779999
30
0
11
2.45999
21
-0.249985
31
-0.139999
12
2.45999
22
-0.219986
32
0
13
2.45999
23
-0.219986
33
0
0
3DFACE
8
0
10
2.42999
20
0.859985
30
0.019989
11
2.45
21
0.339996
31
-0.139999
12
2.45999
22
0.299988
32
0.00999451
13
2.45999
23
0.299988
33
0.00999451
0
3DFACE
8
0
10
2.35999
20
1.74998
30
-0.0799866
11
2.42
21
0.849991
31
-0.0999908
12
2.42999
22
0.859985
32
0.019989
13
2.42999
23
0.859985
33
0.019989
0
3DFACE
8
0
10
2.32999
20
2.10999
30
-0.229996
11
2.34999
21
1.75999
31
-0.199997
12
2.35999
22
1.74998
32
-0.0799866
13
2.35999
23
1.74998
33
-0.0799866
0
3DFACE
8
0
10
2.28
20
2.48
30
-0.539993
11
2.31
21
2.09999
31
-0.369995
12
2.32999
22
2.10999
32
-0.229996
13
2.32999
23
2.10999
33
-0.229996
0
3DFACE
8
0
10
2.2
20
2.84
30
-1.23
11
2.26999
21
2.40999
31
-0.639999
12
2.28
22
2.48
32
-0.539993
13
2.28
23
2.48
33
-0.539993
0
3DFACE
8
0
10
-1.26999
20
2.59999
30
-1.04999
11
0.189987
21
1.98999
31
-0.0999908
12
0.23999
22
1.98
32
-0.219986
13
0.23999
23
1.98
33
-0.219986
0
3DFACE
8
0
10
-1.15999
20
-2.62
30
-1.14
11
0.259995
21
-1.98999
31
-0.169998
12
0.309998
22
-1.96999
32
-0.279999
13
0.309998
23
-1.96999
33
-0.279999
0
3DFACE
8
0
10
1.53999
20
-2.96999
30
-1.64
11
2.06
21
-2.95999
31
-1.54999
12
1.98999
22
-2.96999
32
-1.64999
13
1.98999
23
-2.96999
33
-1.64999
0
3DFACE
8
0
10
1.53
20
-3
30
-1.81999
11
2.06
21
-3.06
31
-1.85999
12
1.43999
22
-3.07999
32
-1.87999
13
1.43999
23
-3.07999
33
-1.87999
0
3DFACE
8
0
10
7.73
20
-0.549988
30
-2.10999
11
7.84
21
-0.589996
31
-2.81
12
7.64
22
-0.509995
32
-2.74998
13
7.64
23
-0.509995
33
-2.74998
0
3DFACE
8
0
10
7.70999
20
0.919998
30
-2.09
11
7.81
21
0.979996
31
-2.78999
12
7.62
22
0.889999
32
-2.73
13
7.62
23
0.889999
33
-2.73
0
3DFACE
8
0
10
1.42
20
3.06999
30
-1.53999
11
1.93999
21
3.07999
31
-1.45
12
1.87
22
3.09
32
-1.54999
13
1.87
23
3.09
33
-1.54999
0
3DFACE
8
0
10
1.40999
20
3.10999
30
-1.71999
11
1.93999
21
3.18999
31
-1.75999
12
1.31999
22
3.17999
32
-1.76999
13
1.31999
23
3.17999
33
-1.76999
0
3DFACE
8
0
10
-6.07999
20
-0.0999908
30
-1.45
11
-4.96999
21
-0.00999451
31
-1.26999
12
-4.95
22
-0.0799866
32
-1.31999
13
-4.95
23
-0.0799866
33
-1.31999
0
3DFACE
8
0
10
-4.96999
20
-0.00999451
30
-1.26999
11
-4.00999
21
-0.0599976
31
-1.28
12
-4.95
22
-0.0799866
32
-1.31999
13
-4.95
23
-0.0799866
33
-1.31999
0
3DFACE
8
0
10
-6.07999
20
-1.31999
30
-1.54999
11
-4.95
21
-1.21999
31
-1.34
12
-4.92
22
-1.34
32
-1.39999
13
-4.92
23
-1.34
33
-1.39999
0
3DFACE
8
0
10
-4.92
20
-1.34
30
-1.39999
11
-3.81
21
-1.18999
31
-1.26999
12
-3.81999
22
-1.31999
32
-1.34
13
-3.81999
23
-1.31999
33
-1.34
0
3DFACE
8
0
10
-3.81
20
-1.18999
30
-1.26999
11
-3.23
21
-1.26999
31
-1.29999
12
-3.81999
22
-1.31999
32
-1.34
13
-3.81999
23
-1.31999
33
-1.34
0
3DFACE
8
0
10
1.43999
20
-3.07999
30
-1.87999
11
1.53999
21
-2.96999
31
-1.64
12
1.53
22
-3
32
-1.81999
13
1.53
23
-3
33
-1.81999
0
3DFACE
8
0
10
1.98999
20
-2.96999
30
-1.64999
11
2.06
21
-3.06
31
-1.85999
12
1.98999
22
-3
32
-1.82999
13
1.98999
23
-3
33
-1.82999
0
3DFACE
8
0
10
1.87
20
3.09
30
-1.54999
11
1.93999
21
3.18999
31
-1.75999
12
1.93999
22
3.07999
32
-1.45
13
1.93999
23
3.07999
33
-1.45
0
3DFACE
8
0
10
1.31999
20
3.17999
30
-1.76999
11
1.42
21
3.06999
31
-1.53999
12
1.40999
22
3.10999
32
-1.71999
13
1.40999
23
3.10999
33
-1.71999
0
3DFACE
8
0
10
-4.95999
20
-0.159988
30
-1.26999
11
-4.00999
21
-0.0599976
31
-1.28
12
-4.95
22
-0.0799866
32
-1.31999
13
-4.95
23
-0.0799866
33
-1.31999
0
3DFACE
8
0
10
-6.07999
20
-0.0999908
30
-1.45
11
-4.95999
21
-0.159988
31
-1.26999
12
-6.10999
22
-0.179993
32
-1.43999
13
-6.10999
23
-0.179993
33
-1.43999
0
3DFACE
8
0
10
-6.12999
20
1.12
30
-1.50999
11
-5
21
1.04999
31
-1.31
12
-6.12999
22
1.00999
32
-1.48999
13
-6.12999
23
1.00999
33
-1.48999
0
3DFACE
8
0
10
-5
20
1.04999
30
-1.31
11
-3.87999
21
1.2
31
-1.29999
12
-4.98
22
1.17999
32
-1.35999
13
-4.98
23
1.17999
33
-1.35999
0
3DFACE
8
0
10
-3.85999
20
1.06999
30
-1.23999
11
-3.28
21
1.17
31
-1.25999
12
-3.87999
22
1.2
32
-1.29999
13
-3.87999
23
1.2
33
-1.29999
0
3DFACE
8
0
10
7.59
20
2.92
30
-3.39999
11
7.82999
21
0.979996
31
-2.92
12
7.73999
22
2.98
32
-2.95
13
7.73999
23
2.98
33
-2.95
0
3DFACE
8
0
10
7.68999
20
-2.51999
30
-3.50999
11
7.85999
21
-0.579987
31
-2.93999
12
7.73
22
-0.559998
32
-3.45999
13
7.73
23
-0.559998
33
-3.45999
0
3DFACE
8
0
10
-9.24998
20
0.929993
30
-2.62
11
-9.09
21
2.12999
31
-2.79999
12
-9.25999
22
0.87999
32
-2.79999
13
-9.25999
23
0.87999
33
-2.79999
0
3DFACE
8
0
10
-9.31
20
-0.139999
30
-2.62
11
-9.25999
21
0.87999
31
-2.79999
12
-9.34
22
-0.139999
32
-2.79999
13
-9.34
23
-0.139999
33
-2.79999
0
3DFACE
8
0
10
-9.56999
20
-0.12999
30
-3.67
11
-9.51999
21
0.439987
31
-3.48999
12
-9.53999
22
0.459991
32
-3.65999
13
-9.53999
23
0.459991
33
-3.65999
0
3DFACE
8
0
10
-9.56999
20
-0.12999
30
-3.67
11
-9.48999
21
-0.709991
31
-3.50999
12
-9.50999
22
-0.719986
32
-3.67999
13
-9.50999
23
-0.719986
33
-3.67999
0
3DFACE
8
0
10
-9.31
20
-0.139999
30
-2.62
11
-9.20999
21
-1.15999
31
-2.82999
12
-9.34
22
-0.139999
32
-2.79999
13
-9.34
23
-0.139999
33
-2.79999
0
3DFACE
8
0
10
-9.2
20
-1.21999
30
-2.64999
11
-8.98999
21
-2.39999
31
-2.87
12
-9.20999
22
-1.15999
32
-2.82999
13
-9.20999
23
-1.15999
33
-2.82999
0
3DFACE
8
0
10
7.06
20
-2.85999
30
-3.07999
11
7.67999
21
-2.71999
31
-3.50999
12
7.00999
22
-2.73
32
-3.57999
13
7.00999
23
-2.73
33
-3.57999
0
3DFACE
8
0
10
6
20
-2.90999
30
-3.10999
11
7.00999
21
-2.73
31
-3.57999
12
5.87999
22
-2.62
32
-3.65999
13
5.87999
23
-2.62
33
-3.65999
0
3DFACE
8
0
10
-1.06
20
-2.87
30
-3.48999
11
1.42999
21
-3.03
31
-3.28999
12
1.57999
22
-2.81999
32
-3.53999
13
1.57999
23
-2.81999
33
-3.53999
0
3DFACE
8
0
10
-1.06
20
-2.87
30
-3.48999
11
1.32999
21
-2.50999
31
-3.81
12
-1.09999
22
-2.53999
32
-3.76999
13
-1.09999
23
-2.53999
33
-3.76999
0
3DFACE
8
0
10
-2.51999
20
-2.92999
30
-3.5
11
-1.03999
21
-3.09
31
-3.24998
12
-1.06
22
-2.87
32
-3.48999
13
-1.06
23
-2.87
33
-3.48999
0
3DFACE
8
0
10
-2.45
20
-2.64999
30
-3.74998
11
-1.06
21
-2.87
31
-3.48999
12
-1.09999
22
-2.53999
32
-3.76999
13
-1.09999
23
-2.53999
33
-3.76999
0
3DFACE
8
0
10
-2.64
20
2.92999
30
-3.39999
11
-1.17
21
3.14
31
-3.14999
12
-1.17999
22
2.92999
32
-3.39
13
-1.17999
23
2.92999
33
-3.39
0
3DFACE
8
0
10
-2.56
20
2.67
30
-3.65999
11
-1.17999
21
2.92999
31
-3.39
12
-1.20999
22
2.60999
32
-3.67999
13
-1.20999
23
2.60999
33
-3.67999
0
3DFACE
8
0
10
-1.17999
20
2.92999
30
-3.39
11
1.31
21
3.17999
31
-3.18999
12
1.46999
22
2.98999
32
-3.43999
13
1.46999
23
2.98999
33
-3.43999
0
3DFACE
8
0
10
-1.17999
20
2.92999
30
-3.39
11
1.23
21
2.67999
31
-3.71999
12
-1.20999
22
2.60999
32
-3.67999
13
-1.20999
23
2.60999
33
-3.67999
0
3DFACE
8
0
10
5.87999
20
3.23999
30
-3.00999
11
6.89999
21
3.12
31
-3.46999
12
5.76999
22
2.95999
32
-3.56999
13
5.76999
23
2.95999
33
-3.56999
0
3DFACE
8
0
10
6.93999
20
3.23
30
-2.98999
11
7.57999
21
3.12999
31
-3.39999
12
6.89999
22
3.12
32
-3.46999
13
6.89999
23
3.12
33
-3.46999
0
3DFACE
8
0
10
7.12999
20
-2.92
30
-2.42
11
7.64
21
-2.79999
31
-3.04999
12
7.7
22
-2.81
32
-2.43999
13
7.7
23
-2.81
33
-2.43999
0
3DFACE
8
0
10
6.07999
20
-3.00999
30
-2.42
11
7.06
21
-2.85999
31
-3.07999
12
6
22
-2.90999
32
-3.10999
13
6
23
-2.90999
33
-3.10999
0
3DFACE
8
0
10
1.42999
20
-3.14999
30
-2.84999
11
1.76999
21
-3.00999
31
-3.29999
12
1.42999
22
-3.03
32
-3.28999
13
1.42999
23
-3.03
33
-3.28999
0
3DFACE
8
0
10
-1.03
20
-3.23
30
-2.89
11
1.42999
21
-3.03
31
-3.28999
12
-1.03999
22
-3.09
32
-3.24998
13
-1.03999
23
-3.09
33
-3.24998
0
3DFACE
8
0
10
-2.59
20
-3.12999
30
-3.25999
11
-1.03
21
-3.23
31
-2.89
12
-1.03999
22
-3.09
32
-3.24998
13
-1.03999
23
-3.09
33
-3.24998
0
3DFACE
8
0
10
-2.64
20
-3.28999
30
-2.89
11
-1.03
21
-3.25999
31
-2.39999
12
-1.03
22
-3.23
32
-2.89
13
-1.03
23
-3.23
33
-2.89
0
3DFACE
8
0
10
-1.03
20
-3.25999
30
-2.39999
11
1.42999
21
-3.14999
31
-2.84999
12
-1.03
22
-3.23
32
-2.89
13
-1.03
23
-3.23
33
-2.89
0
3DFACE
8
0
10
1.42999
20
-3.17
30
-2.39
11
2.00999
21
-3.12999
31
-2.82999
12
1.42999
22
-3.14999
32
-2.84999
13
1.42999
23
-3.14999
33
-2.84999
0
3DFACE
8
0
10
7.00999
20
3.26999
30
-2.32999
11
7.53
21
3.17999
31
-2.95999
12
6.93999
22
3.23
32
-2.98999
13
6.93999
23
3.23
33
-2.98999
0
3DFACE
8
0
10
5.95999
20
3.31999
30
-2.31
11
6.93999
21
3.23
31
-2.98999
12
5.87999
22
3.23999
32
-3.00999
13
5.87999
23
3.23999
33
-3.00999
0
3DFACE
8
0
10
1.31
20
3.28999
30
-2.73999
11
1.64999
21
3.17999
31
-3.2
12
1.31
22
3.17999
32
-3.18999
13
1.31
23
3.17999
33
-3.18999
0
3DFACE
8
0
10
-1.15999
20
3.26999
30
-2.78
11
1.31
21
3.17999
31
-3.18999
12
-1.17
22
3.14
32
-3.14999
13
-1.17
23
3.14
33
-3.14999
0
3DFACE
8
0
10
-2.71999
20
3.12
30
-3.15999
11
-1.15999
21
3.26999
31
-2.78
12
-1.17
22
3.14
32
-3.14999
13
-1.17
23
3.14
33
-3.14999
0
3DFACE
8
0
10
-2.78
20
3.26999
30
-2.78
11
-1.15999
21
3.28
31
-2.28999
12
-1.15999
22
3.26999
32
-2.78
13
-1.15999
23
3.26999
33
-2.78
0
3DFACE
8
0
10
-1.15999
20
3.28
30
-2.28999
11
1.31
21
3.28999
31
-2.73999
12
-1.15999
22
3.26999
32
-2.78
13
-1.15999
23
3.26999
33
-2.78
0
3DFACE
8
0
10
1.31
20
3.28999
30
-2.28
11
1.89
21
3.28999
31
-2.71999
12
1.31
22
3.28999
32
-2.73999
13
1.31
23
3.28999
33
-2.73999
0
3DFACE
8
0
10
7.06
20
3.14
30
-1.87999
11
7.57999
21
3.17999
31
-2.34
12
7.00999
22
3.26999
32
-2.32999
13
7.00999
23
3.26999
33
-2.32999
0
3DFACE
8
0
10
6.06
20
3.2
30
-1.82999
11
7.00999
21
3.26999
31
-2.32999
12
5.95999
22
3.31999
32
-2.31
13
5.95999
23
3.31999
33
-2.31
0
3DFACE
8
0
10
-1.14999
20
3.18999
30
-1.78
11
1.31
21
3.28999
31
-2.28
12
-1.15999
22
3.28
32
-2.28999
13
-1.15999
23
3.28
33
-2.28999
0
3DFACE
8
0
10
-2.76999
20
3.17
30
-1.79999
11
-1.15999
21
3.28
31
-2.28999
12
-2.81999
22
3.28999
32
-2.29999
13
-2.81999
23
3.28999
33
-2.29999
0
3DFACE
8
0
10
-2.64
20
-3.23
30
-1.90999
11
-1.03
21
-3.25999
31
-2.39999
12
-2.67999
22
-3.32999
32
-2.40999
13
-2.67999
23
-3.32999
33
-2.40999
0
3DFACE
8
0
10
-1.01999
20
-3.17999
30
-1.89
11
1.42999
21
-3.17
31
-2.39
12
-1.03
22
-3.25999
32
-2.39999
13
-1.03
23
-3.25999
33
-2.39999
0
3DFACE
8
0
10
6.17999
20
-2.90999
30
-1.92999
11
7.12999
21
-2.92
31
-2.42
12
6.07999
22
-3.00999
32
-2.42
13
6.07999
23
-3.00999
33
-2.42
0
3DFACE
8
0
10
7.17999
20
-2.79999
30
-1.98
11
7.7
21
-2.81
31
-2.43999
12
7.12999
22
-2.92
32
-2.42
13
7.12999
23
-2.92
33
-2.42
0
3DFACE
8
0
10
7.2
20
-2.53
30
-1.57999
11
7.73
21
-2.71999
31
-2.03
12
7.78999
22
-2.42
32
-1.67
13
7.78999
23
-2.42
33
-1.67
0
3DFACE
8
0
10
6.26999
20
-2.65999
30
-1.46999
11
7.17999
21
-2.79999
31
-1.98
12
6.17999
22
-2.90999
32
-1.92999
13
6.17999
23
-2.90999
33
-1.92999
0
3DFACE
8
0
10
5.20999
20
-2.74998
30
-1.39
11
6.17999
21
-2.90999
31
-1.92999
12
4.96999
22
-3.01999
32
-1.89
13
4.96999
23
-3.01999
33
-1.89
0
3DFACE
8
0
10
2.06
20
-3.06
30
-1.85999
11
2.28
21
-2.95999
31
-1.59
12
2.25999
22
-3.03999
32
-1.87
13
2.25999
23
-3.03999
33
-1.87
0
3DFACE
8
0
10
1.43999
20
-2.82999
30
-1.39999
11
2.06
21
-2.95999
31
-1.54999
12
1.42999
22
-2.95999
32
-1.53999
13
1.42999
23
-2.95999
33
-1.53999
0
3DFACE
8
0
10
-1.00999
20
-3.06999
30
-1.56999
11
1.43999
21
-3.07999
31
-1.87999
12
-1.01999
22
-3.17999
32
-1.89
13
-1.01999
23
-3.17999
33
-1.89
0
3DFACE
8
0
10
-1.03
20
-2.96999
30
-1.42999
11
1.42999
21
-2.95999
31
-1.53999
12
-1.00999
22
-3.06999
32
-1.56999
13
-1.00999
23
-3.06999
33
-1.56999
0
3DFACE
8
0
10
-3.7
20
-3.2
30
-1.68999
11
-2.64
21
-3.23
31
-1.90999
12
-3.68999
22
-3.28999
32
-1.92999
13
-3.68999
23
-3.28999
33
-1.92999
0
3DFACE
8
0
10
-1.04999
20
-2.82999
30
-1.42
11
1.43999
21
-2.82999
31
-1.39999
12
-1.03
22
-2.96999
32
-1.42999
13
-1.03
23
-2.96999
33
-1.42999
0
3DFACE
8
0
10
7.35999
20
0.149994
30
-1.26999
11
7.92
21
-0.669998
31
-1.34999
12
7.89999
22
0.169998
32
-1.34999
13
7.89999
23
0.169998
33
-1.34999
0
3DFACE
8
0
10
7.35999
20
0.149994
30
-1.26999
11
7.87999
21
1.01999
31
-1.34999
12
7.89999
22
0.169998
32
-1.34999
13
7.89999
23
0.169998
33
-1.34999
0
3DFACE
8
0
10
7.10999
20
2.85999
30
-1.48
11
7.62
21
3.07999
31
-1.92999
12
7.06
22
3.14
32
-1.87999
13
7.06
23
3.14
33
-1.87999
0
3DFACE
8
0
10
6.15999
20
2.93999
30
-1.37999
11
7.06
21
3.14
31
-1.87999
12
6.06
22
3.2
32
-1.82999
13
6.06
23
3.2
33
-1.82999
0
3DFACE
8
0
10
5.09999
20
2.98
30
-1.29999
11
6.06
21
3.2
31
-1.82999
12
4.84999
22
3.25999
32
-1.78999
13
4.84999
23
3.25999
33
-1.78999
0
3DFACE
8
0
10
1.93999
20
3.18999
30
-1.75999
11
2.15999
21
3.09
31
-1.48999
12
2.14
22
3.17999
32
-1.76999
13
2.14
23
3.17999
33
-1.76999
0
3DFACE
8
0
10
1.32999
20
2.92
30
-1.29999
11
1.93999
21
3.07999
31
-1.45
12
1.31999
22
3.04999
32
-1.43999
13
1.31999
23
3.04999
33
-1.43999
0
3DFACE
8
0
10
-1.14
20
3.06999
30
-1.46999
11
1.31999
21
3.17999
31
-1.76999
12
-1.14999
22
3.18999
32
-1.78
13
-1.14999
23
3.18999
33
-1.78
0
3DFACE
8
0
10
-1.14999
20
2.95999
30
-1.32999
11
1.31999
21
3.04999
31
-1.43999
12
-1.14
22
3.06999
32
-1.46999
13
-1.14
23
3.06999
33
-1.46999
0
3DFACE
8
0
10
-3.82999
20
3.09
30
-1.57999
11
-2.76999
21
3.17
31
-1.79999
12
-3.81999
22
3.18999
32
-1.81999
13
-3.81999
23
3.18999
33
-1.81999
0
3DFACE
8
0
10
-1.17
20
2.81999
30
-1.32999
11
1.32999
21
2.92
31
-1.29999
12
-1.14999
22
2.95999
32
-1.32999
13
-1.14999
23
2.95999
33
-1.32999
0
3DFACE
8
0
10
-7.15999
20
-2.68999
30
-1.84999
11
-6.07999
21
-1.31999
31
-1.54999
12
-6.01999
22
-2.70999
32
-1.56999
13
-6.01999
23
-2.70999
33
-1.56999
0
3DFACE
8
0
10
-7.26999
20
2.45
30
-1.75999
11
-6.12999
21
1.12
31
-1.50999
12
-7.2
22
1.03
32
-1.76999
13
-7.2
23
1.03
33
-1.76999
0
3DFACE
8
0
10
-6.12999
20
2.50999
30
-1.48
11
-4.98
21
1.17999
31
-1.35999
12
-6.12999
22
1.12
32
-1.50999
13
-6.12999
23
1.12
33
-1.50999
0
3DFACE
8
0
10
-6.01999
20
-2.70999
30
-1.56999
11
-4.92
21
-1.34
31
-1.39999
12
-4.87999
22
-2.70999
32
-1.43999
13
-4.87999
23
-2.70999
33
-1.43999
0
3DFACE
8
0
10
-4.87999
20
-2.70999
30
-1.43999
11
-3.81999
21
-1.31999
31
-1.34
12
-3.73999
22
-2.68999
32
-1.39999
13
-3.73999
23
-2.68999
33
-1.39999
0
3DFACE
8
0
10
-4.98999
20
2.54999
30
-1.34999
11
-3.87999
21
1.2
31
-1.29999
12
-4.98
22
1.17999
32
-1.35999
13
-4.98
23
1.17999
33
-1.35999
0
3DFACE
8
0
10
-3.84999
20
2.56999
30
-1.31
11
-3.28
21
1.17
31
-1.25999
12
-3.87999
22
1.2
32
-1.29999
13
-3.87999
23
1.2
33
-1.29999
0
3DFACE
8
0
10
-3.73999
20
-2.68999
30
-1.39999
11
-3.23
21
-1.26999
31
-1.29999
12
-3.07999
22
-2.67999
32
-1.39999
13
-3.07999
23
-2.67999
33
-1.39999
0
ENDSEC
0
EOF
